<?xml version="1.0" encoding="utf-8"?>
<!-- Generator: Adobe Illustrator 16.0.0, SVG Export Plug-In . SVG Version: 6.00 Build 0)  -->
<!DOCTYPE svg PUBLIC "-//W3C//DTD SVG 1.1//EN" "http://www.w3.org/Graphics/SVG/1.1/DTD/svg11.dtd">
<svg version="1.1" id="Layer_1" xmlns="http://www.w3.org/2000/svg" xmlns:xlink="http://www.w3.org/1999/xlink" x="0px" y="0px"
	 width="386.32px" height="386.324px" viewBox="0 0 386.32 386.324" enable-background="new 0 0 386.32 386.324"
	 xml:space="preserve">
<g>
	<g>
		<path fill="#FFFFFF" d="M291.486,238.848c0-52.063-45.238-94.271-101.043-94.271c-55.803,0-101.041,42.207-101.041,94.271
			c0,26.404,11.639,50.271,30.385,67.381l-6.645,39.603c-0.438,11.675,8.52,22.299,21.211,24.461
			c12.688,2.163,24.66-4.897,28.11-16.058l2.912-16.847l0.045,18.146c1.531,11.582,12.146,20.552,25.021,20.552
			s23.489-8.97,25.02-20.552l0.043-18.146l2.912,16.847c3.455,11.155,15.424,18.221,28.115,16.058
			c12.693-2.162,21.648-12.786,21.213-24.461l-6.646-39.603C279.845,289.115,291.486,265.252,291.486,238.848z"/>
		<g>
			<ellipse transform="matrix(0.4417 -0.8972 0.8972 0.4417 -147.8739 316.111)" cx="180.055" cy="276.871" rx="8.356" ry="5.75"/>
			<ellipse transform="matrix(0.4417 0.8972 -0.8972 0.4417 359.8409 -24.5503)" cx="199.645" cy="276.836" rx="8.356" ry="5.752"/>
		</g>
	</g>
	<path d="M264.654,235.753c0,0-0.111-0.31-0.316-0.887c-0.096-0.29-0.215-0.647-0.354-1.067c-0.127-0.431-0.396-0.848-0.603-1.332
		c-0.229-0.477-0.438-0.986-0.805-1.529c-0.354-0.533-0.615-1.139-1.096-1.688c-0.451-0.563-0.83-1.188-1.41-1.742
		c-0.262-0.286-0.529-0.582-0.803-0.883c-0.289-0.287-0.617-0.562-0.933-0.842c-1.221-1.158-2.752-2.187-4.362-3.173
		c-0.873-0.422-1.668-0.969-2.617-1.325c-0.463-0.193-0.91-0.417-1.381-0.61c-0.48-0.176-0.964-0.354-1.451-0.529
		c-0.479-0.199-0.99-0.318-1.494-0.477c-0.508-0.146-1.004-0.324-1.523-0.447c-1.057-0.199-2.088-0.504-3.174-0.642
		c-2.143-0.396-4.373-0.496-6.59-0.552c-0.842,0.063-2.574,0.02-3.447,0.16c-0.51,0.063-1.02,0.115-1.528,0.146
		c-0.521,0.057-1.074,0.168-1.607,0.246c-1.088,0.137-2.117,0.445-3.174,0.645c-0.521,0.125-1.021,0.303-1.523,0.447
		c-0.502,0.156-1.018,0.275-1.487,0.477c-0.488,0.183-0.976,0.355-1.451,0.531c-0.476,0.191-0.914,0.42-1.379,0.611
		c-0.949,0.361-1.746,0.902-2.615,1.328c-1.617,0.986-3.146,2.01-4.367,3.167c-0.311,0.284-0.639,0.553-0.928,0.84
		c-0.271,0.299-0.529,0.597-0.805,0.881c-0.578,0.554-0.964,1.181-1.41,1.741c-0.48,0.553-0.738,1.158-1.101,1.691
		c-0.361,0.533-0.582,1.063-0.813,1.555c-0.209,0.49-0.478,0.93-0.601,1.332c-0.139,0.408-0.258,0.755-0.354,1.037
		c-0.207,0.58-0.316,0.89-0.316,0.89s-0.082-0.312-0.194-0.917c-0.109-0.605-0.345-1.52-0.312-2.699
		c-0.021-0.597-0.033-1.267,0.086-1.977c0.104-0.713,0.162-1.525,0.418-2.328c0.229-0.814,0.455-1.716,0.863-2.582
		c0.184-0.445,0.394-0.896,0.604-1.363c0.229-0.451,0.507-0.888,0.771-1.352c1.068-1.858,2.582-3.62,4.354-5.319
		c0.925-0.784,1.871-1.64,2.941-2.335c0.527-0.361,1.061-0.749,1.621-1.076c0.574-0.313,1.15-0.634,1.734-0.955
		c2.359-1.217,4.944-2.227,7.666-2.82c0.684-0.146,1.348-0.318,2.059-0.443c0.729-0.113,1.463-0.206,2.197-0.292
		c0.356-0.04,0.76-0.103,1.084-0.119l0.94-0.046l2.063-0.1c2.813,0.104,5.641,0.289,8.344,1.011
		c2.715,0.604,5.307,1.604,7.662,2.821c0.582,0.32,1.16,0.643,1.731,0.953c0.563,0.326,1.095,0.724,1.621,1.078
		c1.068,0.694,2.021,1.547,2.939,2.334c1.772,1.697,3.287,3.459,4.354,5.316c0.267,0.463,0.539,0.898,0.771,1.352
		c0.213,0.465,0.42,0.916,0.604,1.361c0.406,0.865,0.64,1.766,0.863,2.58c0.26,0.801,0.316,1.613,0.421,2.326
		c0.115,0.701,0.11,1.396,0.096,2.003c0.034,1.219-0.203,2.062-0.313,2.667C264.722,235.434,264.654,235.753,264.654,235.753z"/>
	<path d="M172.05,235.753c0,0-0.105-0.31-0.313-0.887c-0.097-0.29-0.215-0.647-0.354-1.067c-0.127-0.431-0.391-0.848-0.598-1.332
		c-0.229-0.477-0.438-0.986-0.805-1.529c-0.357-0.533-0.615-1.139-1.101-1.688c-0.447-0.563-0.83-1.188-1.406-1.742
		c-0.266-0.286-0.528-0.581-0.807-0.883c-0.289-0.287-0.617-0.562-0.928-0.842c-1.221-1.158-2.752-2.185-4.367-3.173
		c-0.873-0.422-1.668-0.967-2.617-1.325c-0.464-0.193-0.906-0.417-1.382-0.61c-0.479-0.176-0.963-0.354-1.45-0.527
		c-0.475-0.201-0.986-0.32-1.49-0.479c-0.513-0.146-1.008-0.322-1.523-0.447c-1.056-0.199-2.087-0.504-3.175-0.642
		c-0.539-0.08-1.074-0.188-1.62-0.249c-0.55-0.039-1.099-0.087-1.646-0.148c-0.547-0.074-1.102-0.096-1.652-0.103l-0.832-0.021
		l-0.417-0.016l-0.208-0.007l-0.104-0.003l-0.053-0.004l-0.025-0.002c0.069-0.002-0.188,0.006,0.148-0.004l-1.889,0.06l-0.943,0.024
		c-0.302,0.015-0.522,0.059-0.789,0.08c-0.51,0.063-1.02,0.113-1.533,0.146c-0.521,0.061-1.072,0.168-1.604,0.246
		c-1.089,0.137-2.117,0.441-3.175,0.646c-0.521,0.125-1.019,0.303-1.521,0.444c-0.502,0.156-1.021,0.272-1.493,0.479
		c-0.484,0.18-0.971,0.354-1.45,0.531c-0.471,0.188-0.914,0.42-1.38,0.608c-0.945,0.358-1.745,0.899-2.612,1.328
		c-1.614,0.983-3.146,2.01-4.364,3.167c-0.313,0.281-0.645,0.553-0.931,0.84c-0.271,0.299-0.526,0.6-0.805,0.882
		c-0.58,0.556-0.961,1.183-1.412,1.74c-0.479,0.553-0.734,1.158-1.096,1.688c-0.365,0.532-0.582,1.066-0.813,1.558
		c-0.209,0.487-0.475,0.93-0.599,1.332c-0.139,0.405-0.257,0.755-0.353,1.034c-0.207,0.58-0.317,0.893-0.317,0.893
		s-0.081-0.313-0.199-0.917c-0.104-0.604-0.339-1.521-0.307-2.698c-0.022-0.598-0.032-1.268,0.087-1.978
		c0.1-0.716,0.162-1.525,0.418-2.328c0.229-0.813,0.455-1.716,0.863-2.582c0.184-0.442,0.393-0.896,0.604-1.363
		c0.231-0.448,0.505-0.888,0.771-1.352c1.063-1.858,2.583-3.62,4.354-5.319c0.927-0.781,1.874-1.64,2.944-2.335
		c0.527-0.358,1.059-0.749,1.623-1.075c0.573-0.313,1.146-0.635,1.729-0.953c2.363-1.22,4.948-2.229,7.666-2.82
		c0.688-0.148,1.353-0.321,2.063-0.446c0.728-0.114,1.462-0.206,2.197-0.292c0.354-0.04,0.759-0.1,1.084-0.119l0.938-0.046
		l1.891-0.091l0.207-0.004l0.03,0.004l0.066,0.002l0.132,0.006l0.265,0.014l0.527,0.023l1.055,0.051
		c0.703,0.025,1.404,0.066,2.104,0.174c0.699,0.082,1.395,0.182,2.084,0.287c0.688,0.121,1.369,0.299,2.048,0.445
		c2.716,0.604,5.304,1.604,7.663,2.824c0.582,0.32,1.16,0.641,1.729,0.953c0.565,0.326,1.097,0.721,1.621,1.078
		c1.07,0.692,2.021,1.547,2.943,2.334c1.771,1.694,3.287,3.459,4.354,5.313c0.271,0.463,0.54,0.896,0.772,1.354
		c0.213,0.465,0.419,0.916,0.604,1.358c0.408,0.865,0.644,1.769,0.865,2.58c0.257,0.801,0.318,1.61,0.419,2.326
		c0.118,0.698,0.114,1.396,0.099,2.003c0.031,1.219-0.202,2.063-0.313,2.667C172.118,235.434,172.05,235.753,172.05,235.753z"/>
	<g>
		<path d="M266.631,167.109v-148.9c0-4.373-32.61-7.917-72.846-7.917s-72.848,3.544-72.848,7.917v148.9
			c-32.164,2.339-53.152,6.186-53.152,10.533c0,7.13,56.412,12.91,126,12.91s126-5.78,126-12.91
			C319.785,173.295,298.795,169.447,266.631,167.109z"/>
		<g>
			<path fill="#F4A800" d="M120.937,148.193v18.916c55.845,8.698,129.963,0.454,145.689-0.734v-18.182
				C169.037,158.209,120.937,148.193,120.937,148.193z"/>
		</g>
	</g>
</g>
</svg>
