<?xml version="1.0" encoding="utf-8"?>
<!-- Generator: Adobe Illustrator 16.0.0, SVG Export Plug-In . SVG Version: 6.00 Build 0)  -->
<!DOCTYPE svg PUBLIC "-//W3C//DTD SVG 1.1//EN" "http://www.w3.org/Graphics/SVG/1.1/DTD/svg11.dtd">
<svg version="1.1" id="Layer_1" xmlns="http://www.w3.org/2000/svg" xmlns:xlink="http://www.w3.org/1999/xlink" x="0px" y="0px"
	 width="386.32px" height="386.324px" viewBox="0 0 386.32 386.324" enable-background="new 0 0 386.32 386.324"
	 xml:space="preserve">
<g>
	<g>
		<path fill="#FFFFFF" d="M291.486,238.848c0-52.063-45.238-94.271-101.043-94.271c-55.803,0-101.041,42.207-101.041,94.271
			c0,26.404,11.639,50.271,30.385,67.381l-6.645,39.601c-0.438,11.675,8.52,22.299,21.211,24.461
			c12.69,2.163,24.66-4.897,28.112-16.058l2.912-16.845l0.045,18.144c1.531,11.582,12.146,20.552,25.021,20.552
			s23.489-8.97,25.02-20.552l0.043-18.144l2.912,16.845c3.455,11.157,15.424,18.221,28.115,16.058
			c12.693-2.162,21.648-12.786,21.213-24.461l-6.646-39.601C279.845,289.115,291.486,265.252,291.486,238.848z"/>
		<g>
			<ellipse transform="matrix(-0.4417 0.8972 -0.8972 -0.4417 507.9918 237.5875)" cx="180.07" cy="276.856" rx="8.355" ry="5.75"/>
			
				<ellipse transform="matrix(-0.4416 -0.8972 0.8972 -0.4416 39.4515 578.2256)" cx="199.663" cy="276.836" rx="8.355" ry="5.751"/>
		</g>
	</g>
	<path d="M264.654,235.753c0,0-0.111-0.31-0.316-0.887c-0.096-0.29-0.215-0.647-0.354-1.067c-0.127-0.431-0.394-0.848-0.601-1.332
		c-0.229-0.477-0.438-0.986-0.805-1.529c-0.354-0.533-0.615-1.139-1.096-1.69c-0.451-0.563-0.83-1.188-1.41-1.742
		c-0.262-0.287-0.529-0.582-0.803-0.883c-0.289-0.287-0.617-0.56-0.931-0.842c-1.221-1.158-2.752-2.185-4.364-3.171
		c-0.873-0.422-1.668-0.969-2.617-1.327c-0.463-0.193-0.91-0.417-1.381-0.61c-0.48-0.176-0.963-0.354-1.451-0.531
		c-0.478-0.199-0.99-0.318-1.494-0.475c-0.508-0.146-1.004-0.324-1.523-0.448c-1.057-0.2-2.088-0.503-3.174-0.641
		c-2.143-0.396-4.373-0.496-6.59-0.55c-0.842,0.062-2.574,0.018-3.447,0.16c-0.51,0.063-1.02,0.115-1.53,0.146
		c-0.521,0.057-1.074,0.168-1.607,0.246c-1.088,0.137-2.117,0.445-3.174,0.645c-0.521,0.125-1.019,0.303-1.523,0.447
		c-0.502,0.156-1.018,0.275-1.489,0.477c-0.488,0.181-0.974,0.355-1.451,0.531c-0.474,0.191-0.914,0.42-1.379,0.611
		c-0.949,0.361-1.746,0.902-2.615,1.328c-1.617,0.986-3.146,2.01-4.367,3.167c-0.311,0.284-0.639,0.553-0.928,0.84
		c-0.271,0.299-0.529,0.597-0.805,0.881c-0.578,0.554-0.962,1.181-1.41,1.741c-0.48,0.553-0.738,1.158-1.099,1.691
		c-0.362,0.533-0.582,1.065-0.813,1.555c-0.209,0.49-0.476,0.93-0.599,1.332c-0.139,0.408-0.258,0.755-0.354,1.037
		c-0.207,0.58-0.316,0.89-0.316,0.89s-0.082-0.312-0.196-0.917c-0.109-0.605-0.343-1.52-0.31-2.699
		c-0.021-0.597-0.033-1.267,0.086-1.977c0.103-0.713,0.162-1.525,0.418-2.328c0.229-0.814,0.455-1.716,0.863-2.582
		c0.184-0.445,0.394-0.896,0.604-1.363c0.229-0.451,0.505-0.888,0.771-1.352c1.068-1.858,2.582-3.62,4.355-5.319
		c0.924-0.784,1.872-1.64,2.942-2.335c0.527-0.361,1.06-0.749,1.621-1.076c0.574-0.313,1.15-0.634,1.734-0.955
		c2.361-1.217,4.946-2.227,7.666-2.82c0.684-0.147,1.348-0.32,2.059-0.445c0.729-0.114,1.463-0.206,2.197-0.292
		c0.358-0.04,0.76-0.101,1.084-0.119l0.942-0.046l2.063-0.098c2.813,0.104,5.641,0.289,8.344,1.009
		c2.715,0.604,5.306,1.603,7.662,2.823c0.582,0.32,1.16,0.641,1.732,0.953c0.563,0.326,1.094,0.722,1.621,1.078
		c1.069,0.694,2.021,1.547,2.94,2.334c1.773,1.697,3.287,3.459,4.355,5.316c0.266,0.463,0.539,0.898,0.771,1.352
		c0.213,0.465,0.42,0.916,0.604,1.361c0.407,0.865,0.639,1.766,0.864,2.58c0.259,0.801,0.316,1.613,0.421,2.326
		c0.115,0.701,0.11,1.396,0.094,2.003c0.035,1.219-0.203,2.062-0.311,2.667C264.722,235.434,264.654,235.753,264.654,235.753z"/>
	<path d="M172.05,235.753c0,0-0.107-0.31-0.313-0.887c-0.097-0.29-0.215-0.647-0.354-1.067c-0.127-0.431-0.391-0.848-0.598-1.332
		c-0.229-0.477-0.438-0.986-0.805-1.529c-0.357-0.533-0.615-1.139-1.099-1.69c-0.449-0.563-0.83-1.188-1.408-1.742
		c-0.264-0.287-0.528-0.581-0.805-0.883c-0.289-0.287-0.617-0.56-0.928-0.842c-1.221-1.158-2.752-2.183-4.367-3.171
		c-0.873-0.422-1.668-0.967-2.617-1.327c-0.464-0.193-0.908-0.417-1.382-0.61c-0.479-0.176-0.963-0.354-1.45-0.529
		c-0.475-0.201-0.988-0.32-1.492-0.477c-0.511-0.146-1.006-0.323-1.523-0.448c-1.056-0.2-2.087-0.503-3.175-0.641
		c-0.539-0.08-1.074-0.188-1.62-0.249c-0.55-0.039-1.099-0.087-1.646-0.15c-0.547-0.074-1.102-0.094-1.654-0.101l-0.832-0.021
		l-0.417-0.015l-0.208-0.007l-0.104-0.003l-0.053-0.002l-0.025-0.003c0.069-0.002-0.189,0.005,0.148-0.004l-1.889,0.059
		l-0.943,0.025c-0.302,0.014-0.523,0.058-0.789,0.08c-0.51,0.063-1.02,0.114-1.533,0.146c-0.521,0.059-1.074,0.168-1.605,0.246
		c-1.089,0.137-2.117,0.443-3.175,0.646c-0.521,0.125-1.017,0.303-1.521,0.445c-0.502,0.156-1.021,0.273-1.493,0.479
		c-0.486,0.179-0.971,0.354-1.45,0.531c-0.471,0.189-0.915,0.42-1.38,0.609c-0.947,0.359-1.745,0.9-2.614,1.328
		c-1.614,0.984-3.146,2.01-4.364,3.167c-0.313,0.282-0.643,0.553-0.931,0.84c-0.27,0.299-0.526,0.599-0.803,0.882
		c-0.58,0.555-0.961,1.182-1.412,1.74c-0.479,0.553-0.736,1.158-1.096,1.689c-0.365,0.533-0.582,1.067-0.813,1.557
		c-0.209,0.488-0.473,0.93-0.597,1.332c-0.139,0.406-0.257,0.755-0.353,1.035c-0.207,0.58-0.317,0.892-0.317,0.892
		s-0.081-0.313-0.199-0.917c-0.105-0.604-0.339-1.521-0.307-2.699c-0.022-0.597-0.032-1.267,0.087-1.977
		c0.1-0.715,0.162-1.525,0.418-2.328c0.229-0.813,0.455-1.716,0.863-2.582c0.184-0.443,0.393-0.896,0.604-1.363
		c0.231-0.449,0.505-0.888,0.771-1.352c1.065-1.858,2.583-3.62,4.354-5.319c0.925-0.782,1.874-1.64,2.944-2.335
		c0.527-0.359,1.059-0.749,1.623-1.076c0.573-0.313,1.147-0.634,1.73-0.953c2.363-1.219,4.948-2.229,7.666-2.82
		c0.688-0.149,1.351-0.322,2.063-0.447c0.728-0.114,1.462-0.206,2.197-0.292c0.355-0.04,0.759-0.099,1.084-0.119l0.939-0.046
		l1.889-0.091l0.207-0.003l0.032,0.003l0.066,0.002l0.132,0.006l0.265,0.013l0.527,0.024l1.055,0.051
		c0.703,0.026,1.404,0.067,2.104,0.173c0.699,0.083,1.395,0.182,2.084,0.288c0.688,0.121,1.369,0.298,2.048,0.445
		c2.716,0.604,5.304,1.603,7.663,2.825c0.582,0.32,1.16,0.64,1.729,0.953c0.565,0.326,1.095,0.72,1.621,1.078
		c1.07,0.693,2.021,1.547,2.943,2.334c1.771,1.695,3.287,3.459,4.354,5.314c0.27,0.463,0.54,0.896,0.772,1.354
		c0.213,0.465,0.419,0.916,0.604,1.359c0.408,0.865,0.642,1.768,0.865,2.58c0.257,0.801,0.318,1.611,0.419,2.326
		c0.118,0.699,0.114,1.396,0.097,2.003c0.033,1.219-0.202,2.063-0.312,2.667C172.118,235.434,172.05,235.753,172.05,235.753z"/>
	<g>
		<path d="M266.631,167.109v-148.9c0-4.373-32.612-7.917-72.846-7.917s-72.848,3.544-72.848,7.917v148.9
			c-32.164,2.339-53.152,6.186-53.152,10.533c0,7.13,56.412,12.91,126,12.91s126-5.78,126-12.91
			C319.785,173.295,298.795,169.447,266.631,167.109z"/>
		<g>
			<path fill="#009444" d="M120.937,148.193v18.916c55.845,8.698,129.965,0.454,145.691-0.734v-18.182
				C169.037,158.209,120.937,148.193,120.937,148.193z"/>
		</g>
	</g>
</g>
</svg>
