<?xml version="1.0" encoding="utf-8"?>
<!-- Generator: Adobe Illustrator 16.0.0, SVG Export Plug-In . SVG Version: 6.00 Build 0)  -->
<!DOCTYPE svg PUBLIC "-//W3C//DTD SVG 1.1//EN" "http://www.w3.org/Graphics/SVG/1.1/DTD/svg11.dtd">
<svg version="1.1" id="Layer_1" xmlns="http://www.w3.org/2000/svg" xmlns:xlink="http://www.w3.org/1999/xlink" x="0px" y="0px"
	 width="386.32px" height="386.324px" viewBox="0 0 386.32 386.324" enable-background="new 0 0 386.32 386.324"
	 xml:space="preserve">
<g>
	<g>
		<path fill="#FFFFFF" d="M290.773,238.547c0-52.063-45.238-94.271-101.042-94.271c-55.803,0-101.041,42.207-101.041,94.271
			c0,26.404,11.639,50.268,30.385,67.381l-6.645,39.601c-0.438,11.675,8.52,22.299,21.211,24.461
			c12.69,2.164,24.657-4.898,28.112-16.06l2.912-16.843l0.045,18.141c1.531,11.582,12.146,20.555,25.021,20.555
			s23.488-8.973,25.019-20.555l0.045-18.141l2.91,16.843c3.455,11.158,15.424,18.224,28.115,16.06
			c12.693-2.162,21.646-12.786,21.213-24.461l-6.646-39.601C279.135,288.814,290.773,264.951,290.773,238.547z"/>
		<g>
			
				<ellipse transform="matrix(-0.4416 0.8972 -0.8972 -0.4416 506.6794 237.7996)" cx="179.344" cy="276.563" rx="8.354" ry="5.751"/>
			<ellipse transform="matrix(-0.4416 -0.8972 0.8972 -0.4416 38.6505 577.2134)" cx="198.948" cy="276.579" rx="8.354" ry="5.75"/>
		</g>
	</g>
	<circle cx="235.035" cy="230.793" r="28.906"/>
	<g>
		<path d="M265.918,166.809v-148.9c0-4.373-32.612-7.917-72.845-7.917s-72.848,3.544-72.848,7.917v148.9
			c-32.164,2.339-53.152,6.186-53.152,10.533c0,7.13,56.412,12.91,126,12.91c69.587,0,126-5.78,126-12.91
			C319.072,172.994,298.082,169.146,265.918,166.809z"/>
		<g>
			<path fill="#009444" d="M120.225,147.893v18.916c55.843,8.698,129.964,0.453,145.69-0.734v-18.182
				C168.325,157.909,120.225,147.893,120.225,147.893z"/>
		</g>
	</g>
	<circle cx="142.43" cy="241.793" r="17.906"/>
</g>
</svg>
