<?xml version="1.0" encoding="utf-8"?>
<!-- Generator: Adobe Illustrator 16.0.0, SVG Export Plug-In . SVG Version: 6.00 Build 0)  -->
<!DOCTYPE svg PUBLIC "-//W3C//DTD SVG 1.1//EN" "http://www.w3.org/Graphics/SVG/1.1/DTD/svg11.dtd">
<svg version="1.1" id="Layer_1" xmlns="http://www.w3.org/2000/svg" xmlns:xlink="http://www.w3.org/1999/xlink" x="0px" y="0px"
	 width="386.32px" height="386.324px" viewBox="0 0 386.32 386.324" enable-background="new 0 0 386.32 386.324"
	 xml:space="preserve">
<g>
	<g>
		<path fill="#FFFFFF" d="M290.773,238.547c0-52.063-45.238-94.271-101.042-94.271c-55.803,0-101.041,42.207-101.041,94.271
			c0,26.404,11.639,50.268,30.385,67.381l-6.645,39.6c-0.438,11.675,8.52,22.299,21.211,24.461
			c12.691,2.164,24.658-4.898,28.113-16.059l2.912-16.843l0.045,18.141c1.531,11.582,12.145,20.554,25.02,20.554
			s23.488-8.972,25.019-20.554l0.045-18.141l2.91,16.843c3.455,11.158,15.424,18.223,28.115,16.059
			c12.693-2.162,21.647-12.786,21.213-24.461l-6.646-39.6C279.135,288.814,290.773,264.951,290.773,238.547z"/>
		<g>
			<ellipse transform="matrix(-0.8972 -0.4416 0.4416 -0.8972 218.1076 603.886)" cx="179.329" cy="276.562" rx="5.75" ry="8.354"/>
			<ellipse transform="matrix(0.8972 -0.4416 0.4416 0.8972 -101.6889 116.2858)" cx="198.95" cy="276.582" rx="5.75" ry="8.354"/>
		</g>
	</g>
	<circle cx="235.035" cy="230.793" r="28.906"/>
	<g>
		<path d="M265.918,166.809v-148.9c0-4.373-32.613-7.917-72.845-7.917c-40.232,0-72.848,3.544-72.848,7.917v148.9
			c-32.164,2.339-53.152,6.186-53.152,10.533c0,7.13,56.412,12.91,126,12.91c69.587,0,126-5.78,126-12.91
			C319.072,172.994,298.082,169.146,265.918,166.809z"/>
		<g>
			<path fill="#741F89" d="M120.225,147.893v18.916c55.843,8.698,129.965,0.453,145.691-0.734v-18.182
				C168.325,157.909,120.225,147.893,120.225,147.893z"/>
		</g>
	</g>
	<circle cx="142.43" cy="241.793" r="17.906"/>
</g>
</svg>
