<?xml version="1.0" encoding="utf-8"?>
<!-- Generator: Adobe Illustrator 16.0.0, SVG Export Plug-In . SVG Version: 6.00 Build 0)  -->
<!DOCTYPE svg PUBLIC "-//W3C//DTD SVG 1.1//EN" "http://www.w3.org/Graphics/SVG/1.1/DTD/svg11.dtd">
<svg version="1.1" id="Layer_1" xmlns="http://www.w3.org/2000/svg" xmlns:xlink="http://www.w3.org/1999/xlink" x="0px" y="0px"
	 width="386.32px" height="386.324px" viewBox="0 0 386.32 386.324" enable-background="new 0 0 386.32 386.324"
	 xml:space="preserve">
<g>
	<g>
		<path fill="#FFFFFF" d="M292.395,211.71c0-52.064-45.238-94.271-101.041-94.271c-55.806,0-101.043,42.207-101.043,94.271
			c0,26.403,11.641,50.267,30.387,67.382l-6.646,39.598c-0.436,11.674,8.521,22.299,21.214,24.461
			c12.69,2.162,24.659-4.898,28.114-16.059l2.912-16.843l0.043,18.142c1.531,11.581,12.146,20.554,25.021,20.554
			s23.485-8.973,25.018-20.554l0.045-18.142l2.912,16.843c3.455,11.159,15.422,18.221,28.115,16.059
			c12.691-2.162,21.646-12.787,21.211-24.461l-6.645-39.598C280.757,261.977,292.395,238.113,292.395,211.71z"/>
		<g>
			<ellipse transform="matrix(0.4416 -0.8972 0.8972 0.4416 -123.0149 301.7987)" cx="180.956" cy="249.729" rx="8.356" ry="5.75"/>
			<ellipse transform="matrix(0.4416 0.8972 -0.8972 0.4416 336.0729 -40.4933)" cx="200.568" cy="249.745" rx="8.356" ry="5.75"/>
		</g>
	</g>
	<g>
		<polygon points="200.005,187.063 200.005,204.466 200.005,208.085 200.005,209.492 182.448,209.492 182.448,208.085 
			182.448,206.736 182.448,204.466 182.448,187.063 105.366,187.063 105.366,233.921 182.448,233.921 182.448,215.818 
			182.448,213.027 200.005,213.027 200.005,215.818 200.005,233.921 277.087,233.921 277.087,211.116 277.087,206.736 
			277.087,187.063 		"/>
		<polyline opacity="0.3" fill="#FFFFFF" enable-background="new    " points="105.366,233.921 182.448,187.063 182.448,198.415 
			123.479,233.921 		"/>
		<polyline opacity="0.3" fill="#FFFFFF" enable-background="new    " points="200.005,233.921 277.087,187.063 277.087,198.415 
			218.118,233.921 		"/>
	</g>
	<g>
		<g>
			<path fill="#FFFFFF" d="M110.612,110.972l-9.613,15.269l8.89-17.726c-1.138-3.914-2.229-7.989-3.269-12.111l-5.953,6.837
				l5.234-9.732c-0.615-2.509-1.211-5.022-1.783-7.514l-9.215,15.579l6.969-25.762l0,0c-1.197-5.638-2.248-10.938-3.125-15.543
				l-7.916,13.638l7.051-18.246c-1.323-7.188-2.069-11.79-2.069-11.79c-1.426-3.523-3.097-6.062-4.881-7.843l-6.265,5.546
				l4.193-7.258c-7.846-5.182-17.002,2.021-18.355,6.628c0,0-0.987,4.246-1.885,11.047l9.379,10.583l-9.678-8.191
				c-0.563,4.813-1.025,10.654-1.102,17.037c3.192,1.991,9.639,5.977,12.987,7.83l2.074,0.991c-0.203,0-0.975-0.381-2.074-0.991
				l-13.004-5.204c-0.01,9.18,0.826,18.388,3.373,28.306l13.756,8.035l-12.914-4.962c0.543,1.841,1.158,3.664,1.834,5.467
				l9.029,2.022l-8.205,0.056c5.264,12.855,14.197,24.305,28.951,31.075l17.113,6l3.383-11.174
				C119.007,135.077,114.567,124.141,110.612,110.972z"/>
			<g>
				<path fill="#BCBEC0" d="M83.516,36.802c0.002,0-0.679,7.055-0.658,17.66c0.002,2.649,0.051,5.521,0.164,8.553
					c0.125,3.031,0.25,6.228,0.508,9.524c0.229,3.299,0.576,6.697,0.977,10.141c0.445,3.438,0.935,6.926,1.582,10.381l0.486,2.591
					l0.555,2.568c0.349,1.715,0.789,3.398,1.218,5.069c0.875,3.339,1.842,6.587,2.866,9.696c0.531,1.547,1.056,3.067,1.566,4.556
					c0.564,1.469,1.117,2.904,1.654,4.303c0.598,1.373,1.178,2.709,1.739,4.001c0.613,1.268,1.207,2.493,1.777,3.67
					c0.629,1.146,1.23,2.246,1.803,3.292c0.547,1.066,1.226,1.973,1.761,2.896c0.28,0.455,0.553,0.895,0.813,1.319
					c0.271,0.42,0.564,0.797,0.828,1.176c0.531,0.76,1.018,1.458,1.459,2.088c0.906,1.244,1.727,2.137,2.223,2.804
					c0.515,0.654,0.789,1.003,0.789,1.003l-0.211,0.214c0,0-0.332-0.296-0.955-0.85c-0.614-0.564-1.551-1.368-2.647-2.484
					c-1.043-1.159-2.437-2.489-3.729-4.254c-1.389-1.698-2.77-3.748-4.223-6.026c-0.672-1.171-1.373-2.391-2.098-3.652
					c-0.644-1.305-1.308-2.654-1.99-4.041c-0.635-1.407-1.238-2.876-1.867-4.372c-0.564-1.519-1.119-3.08-1.664-4.672
					c-0.467-1.616-0.986-3.246-1.42-4.92c-0.416-1.676-0.879-3.366-1.211-5.095c-0.357-1.725-0.732-3.457-1.025-5.212l-0.469-2.63
					l-0.396-2.646c-0.546-3.524-0.929-7.067-1.269-10.556c-0.295-3.491-0.535-6.929-0.66-10.26c-0.145-3.329-0.198-6.55-0.184-9.602
					c0.015-3.052,0.088-5.936,0.197-8.595c0.434-10.642,1.411-17.674,1.411-17.674L83.516,36.802z"/>
			</g>
		</g>
		<path d="M318.081,121.571c-12.447-8.352-26.053,9.482-36.813,10.395c0,0-29.853-57.521-85.34-59.629
			c-1.339-0.095-2.693-0.15-4.056-0.185c-1.36,0.034-2.717,0.09-4.055,0.185c-55.49,2.107-85.34,59.629-85.34,59.629
			c-10.76-0.912-24.365-18.746-36.813-10.395C52.481,130.419,77.024,168.3,94.858,184.3c0,0,42.297-14.449,97.016-14.314
			c54.719-0.135,97.015,14.314,97.015,14.314C306.723,168.3,331.266,130.419,318.081,121.571z"/>
		<g>
			<path fill="#FFFFFF" d="M214.403,141.457l-19.605-8.669l-0.366-0.161l-24.394-10.785c0.926-2.021-0.498-5.171-1.729-7.419
				c-1.966-3.583-6.17-5.057-9.396-3.289c-3.213,1.76-4.233,6.073-2.299,9.648c-3.947,0.976-6.449,4.635-5.59,8.195
				c0.863,3.574,4.781,5.693,8.754,4.734c2.494-0.602,5.781-1.668,6.654-3.713l24.393,10.785l0.367,0.162l19.604,8.67
				c-0.926,2.02,0.498,5.17,1.73,7.418c1.963,3.584,6.17,5.058,9.393,3.29c3.213-1.761,4.236-6.073,2.302-9.65
				c3.946-0.974,6.448-4.633,5.59-8.195c-0.863-3.572-4.783-5.694-8.754-4.734C218.563,138.347,215.276,139.413,214.403,141.457z"/>
		</g>
		<path fill="#FFFFFF" d="M166.43,141.457l19.604-8.669l0.367-0.161l24.393-10.785c-0.924-2.021,0.5-5.171,1.732-7.419
			c1.963-3.583,6.17-5.057,9.393-3.289c3.213,1.76,4.236,6.073,2.302,9.648c3.946,0.976,6.448,4.635,5.59,8.195
			c-0.863,3.574-4.783,5.693-8.756,4.734c-2.492-0.602-5.779-1.668-6.652-3.713l-24.394,10.785l-0.366,0.162l-19.605,8.67
			c0.926,2.02-0.498,5.17-1.729,7.418c-1.966,3.584-6.17,5.058-9.396,3.29c-3.213-1.761-4.236-6.073-2.299-9.65
			c-3.949-0.974-6.449-4.633-5.59-8.195c0.86-3.572,4.781-5.694,8.754-4.734C162.272,138.347,165.559,139.413,166.43,141.457z"/>
		<g>
			<g>
				<path fill="#FFFFFF" d="M190.419,139.992c-3.022,0-5.603-2.021-6.16-4.761c-0.958,2.151-3.136,3.522-5.636,3.522
					c-0.376,0-0.757-0.032-1.13-0.096c-3.117-0.532-5.384-3.16-5.272-6.113l1.482-8.863c-4.464-4.173-6.919-9.706-6.919-15.611
					c0-12.177,10.603-22.084,23.635-22.084c13.031,0,23.633,9.907,23.633,22.084c0,5.907-2.454,11.44-6.919,15.611l1.478,8.799
					c0.116,3.017-2.149,5.645-5.265,6.177c-0.374,0.064-0.756,0.096-1.132,0.096l0,0c-2.519,0-4.71-1.391-5.645-3.52
					C195.983,138,193.42,139.992,190.419,139.992z"/>
				<path d="M190.419,86.487c12.775,0,23.133,9.664,23.133,21.584c0,6.045-2.663,11.508-6.956,15.427l1.521,9.065
					c0.1,2.673-1.951,5.105-4.854,5.602c-0.354,0.06-0.702,0.089-1.048,0.089c-2.494,0-4.694-1.521-5.391-3.767l-0.666-3.855
					l-0.012,4.153c-0.351,2.651-2.779,4.707-5.728,4.707c-2.949,0-5.379-2.056-5.729-4.707l-0.01-4.153l-0.668,3.855
					c-0.695,2.246-2.896,3.767-5.391,3.767c-0.344,0-0.694-0.029-1.046-0.089c-2.906-0.496-4.957-2.929-4.857-5.602l1.521-9.065
					c-4.291-3.919-6.957-9.382-6.957-15.427C167.284,96.151,177.641,86.487,190.419,86.487 M190.419,85.487
					c-13.309,0-24.135,10.131-24.135,22.584c0,5.958,2.439,11.545,6.881,15.791l-1.432,8.536l-0.012,0.064l-0.002,0.064
					c-0.119,3.203,2.325,6.05,5.688,6.625c0.402,0.068,0.813,0.103,1.215,0.103c2.279,0,4.313-1.06,5.507-2.763
					c1.006,2.363,3.47,4.001,6.289,4.001s5.281-1.638,6.287-4.001c1.195,1.703,3.229,2.763,5.508,2.763
					c0.404,0,0.813-0.035,1.216-0.103c3.36-0.574,5.807-3.422,5.687-6.625l-0.002-0.064l-0.011-0.064l-1.434-8.536
					c4.442-4.244,6.882-9.831,6.882-15.791C214.552,95.619,203.725,85.487,190.419,85.487L190.419,85.487z"/>
			</g>
			<g>
				<ellipse transform="matrix(0.4416 -0.8972 0.8972 0.4416 0.2233 233.9163)" cx="188.031" cy="116.779" rx="1.912" ry="1.317"/>
				
					<ellipse transform="matrix(0.4415 0.8972 -0.8972 0.4415 212.3055 -107.5257)" cx="192.53" cy="116.785" rx="1.912" ry="1.316"/>
			</g>
			<circle cx="179.588" cy="106.296" r="6.618"/>
			<circle cx="200.791" cy="106.296" r="6.618"/>
		</g>
	</g>
</g>
</svg>
