<?xml version="1.0" encoding="utf-8"?>
<!-- Generator: Adobe Illustrator 16.0.0, SVG Export Plug-In . SVG Version: 6.00 Build 0)  -->
<!DOCTYPE svg PUBLIC "-//W3C//DTD SVG 1.1//EN" "http://www.w3.org/Graphics/SVG/1.1/DTD/svg11.dtd">
<svg version="1.1" id="Layer_1" xmlns="http://www.w3.org/2000/svg" xmlns:xlink="http://www.w3.org/1999/xlink" x="0px" y="0px"
	 width="386.32px" height="386.324px" viewBox="0 0 386.32 386.324" enable-background="new 0 0 386.32 386.324"
	 xml:space="preserve">
<g>
	<g>
		<path fill="#FFFFFF" d="M267.76,200.928c0-52.063-45.236-94.271-101.039-94.271c-55.807,0-101.045,42.207-101.045,94.271
			c0,26.404,11.642,50.268,30.389,67.381l-6.646,39.6c-0.436,11.675,8.521,22.299,21.213,24.461
			c12.691,2.163,24.66-4.896,28.115-16.06l2.911-16.842l0.044,18.143c1.531,11.583,12.146,20.552,25.021,20.552
			s23.484-8.969,25.018-20.552l0.045-18.143l2.912,16.842c3.455,11.161,15.422,18.223,28.115,16.06
			c12.689-2.162,21.646-12.786,21.211-24.461l-6.646-39.6C256.121,251.195,267.76,227.332,267.76,200.928z"/>
		<g>
			<ellipse transform="matrix(-0.8972 -0.4416 0.4416 -0.8972 191.093 522.3738)" cx="156.341" cy="238.947" rx="5.75" ry="8.355"/>
			<ellipse transform="matrix(0.8972 -0.4417 0.4417 0.8972 -87.4411 102.2782)" cx="175.947" cy="238.94" rx="5.75" ry="8.356"/>
		</g>
	</g>
	<path d="M100.313,174.953c-4.244,5.031-6.807,11.525-6.807,18.623c0,15.964,12.941,28.906,28.906,28.906
		c13.114,0,24.184-8.737,27.719-20.705L100.313,174.953z"/>
	<path d="M237.119,175.281c4.244,5.031,6.805,11.526,6.805,18.623c0,15.965-12.939,28.906-28.904,28.906
		c-13.115,0-24.184-8.736-27.72-20.705L237.119,175.281z"/>
	<path fill="#F4A800" d="M343.22,150.433c-5.566-14.291-43.682-15.908-69.143-15.34c-0.273-6.383-3.189-12.619-8.566-16.93
		c-5.379-4.311-12.1-5.803-18.391-4.686c-4.979-24.974-14.84-61.825-30-64.153c-23.059-3.538-69.408,52.248-58.375,72.802
		c7.229,13.469,44.58,15.363,69.479,15.07c0.313,6.332,3.227,12.507,8.563,16.787c5.336,4.277,11.998,5.781,18.248,4.709
		c5.123,24.368,15.092,60.416,29.811,64.544C307.306,229.537,351.685,172.172,343.22,150.433z"/>
</g>
</svg>
