<?xml version="1.0" encoding="utf-8"?>
<!-- Generator: Adobe Illustrator 16.0.0, SVG Export Plug-In . SVG Version: 6.00 Build 0)  -->
<!DOCTYPE svg PUBLIC "-//W3C//DTD SVG 1.1//EN" "http://www.w3.org/Graphics/SVG/1.1/DTD/svg11.dtd">
<svg version="1.1" id="Layer_1" xmlns="http://www.w3.org/2000/svg" xmlns:xlink="http://www.w3.org/1999/xlink" x="0px" y="0px"
	 width="386.32px" height="386.324px" viewBox="0 0 386.32 386.324" enable-background="new 0 0 386.32 386.324"
	 xml:space="preserve">
<g>
	<g>
		<path fill="#FFFFFF" d="M267.76,201.168c0-52.063-45.236-94.271-101.039-94.271c-55.807,0-101.045,42.208-101.045,94.271
			c0,26.404,11.642,50.268,30.389,67.381l-6.646,39.601c-0.436,11.675,8.521,22.298,21.213,24.46
			c12.691,2.164,24.66-4.896,28.115-16.059l2.911-16.842l0.044,18.141c1.531,11.582,12.146,20.553,25.021,20.553
			s23.484-8.971,25.017-20.553l0.045-18.141l2.912,16.842c3.455,11.16,15.422,18.223,28.115,16.059
			c12.689-2.162,21.646-12.785,21.211-24.46l-6.646-39.601C256.123,251.436,267.76,227.572,267.76,201.168z"/>
		<g>
			
				<ellipse transform="matrix(-0.8972 -0.4416 0.4416 -0.8972 190.9403 522.8303)" cx="156.323" cy="239.191" rx="5.749" ry="8.355"/>
			<ellipse transform="matrix(0.8972 -0.4417 0.4417 0.8972 -87.5572 102.3008)" cx="175.938" cy="239.201" rx="5.749" ry="8.355"/>
		</g>
	</g>
	<g>
		<polygon points="175.371,176.193 175.371,193.596 175.371,197.216 175.371,198.621 157.815,198.621 157.815,197.216 
			157.815,195.867 157.815,193.596 157.815,176.193 80.732,176.193 80.732,223.052 157.815,223.052 157.815,204.949 
			157.815,202.158 175.371,202.158 175.371,204.949 175.371,223.052 252.453,223.052 252.453,200.246 252.453,195.867 
			252.453,176.193 		"/>
		<polyline opacity="0.3" fill="#FFFFFF" enable-background="new    " points="80.732,223.052 157.815,176.193 157.815,187.545 
			98.846,223.052 		"/>
		<polyline opacity="0.3" fill="#FFFFFF" enable-background="new    " points="175.371,223.052 252.453,176.193 252.453,187.545 
			193.484,223.052 		"/>
	</g>
	<path fill="#009444" d="M343.222,150.673c-5.566-14.291-43.682-15.908-69.143-15.34c-0.273-6.382-3.189-12.619-8.566-16.93
		c-5.379-4.311-12.1-5.803-18.391-4.686c-4.979-24.975-14.84-61.825-30-64.154c-23.059-3.538-69.408,52.248-58.375,72.803
		c7.229,13.469,44.58,15.363,69.479,15.07c0.313,6.333,3.227,12.508,8.563,16.788c5.336,4.277,11.998,5.781,18.248,4.709
		c5.123,24.368,15.092,60.415,29.811,64.543C307.308,229.779,351.687,172.413,343.222,150.673z"/>
</g>
</svg>
