<?xml version="1.0" encoding="utf-8"?>
<!-- Generator: Adobe Illustrator 16.0.0, SVG Export Plug-In . SVG Version: 6.00 Build 0)  -->
<!DOCTYPE svg PUBLIC "-//W3C//DTD SVG 1.1//EN" "http://www.w3.org/Graphics/SVG/1.1/DTD/svg11.dtd">
<svg version="1.1" id="Layer_1" xmlns="http://www.w3.org/2000/svg" xmlns:xlink="http://www.w3.org/1999/xlink" x="0px" y="0px"
	 width="386.32px" height="386.324px" viewBox="0 0 386.32 386.324" enable-background="new 0 0 386.32 386.324"
	 xml:space="preserve">
<g>
	<path fill="#F4A800" d="M152.87,134.96c0,0-74.917,158.19-130.021,166.021l31.388-1.799l-7.104,19.643
		c0,0,123.323-115.617,118.964-162.799"/>
	<path fill="#F4A800" d="M125.238,121.401c0,0-4.018,174.986-51.159,204.576l27.937-14.424l1.511,20.832
		c0,0,65.563-155.812,42.369-197.131"/>
	<g>
		<path fill="#FFFFFF" d="M296.613,181.51c0-52.063-45.238-94.271-101.043-94.271c-55.803,0-101.042,42.208-101.042,94.271
			c0,26.404,11.639,50.268,30.385,67.381l-6.645,39.598c-0.437,11.677,8.52,22.301,21.211,24.462
			c12.692,2.163,24.661-4.897,28.116-16.058l2.911-16.843l0.046,18.142c1.53,11.582,12.143,20.552,25.018,20.552
			s23.488-8.97,25.02-20.552l0.043-18.142l2.912,16.843c3.455,11.159,15.425,18.221,28.115,16.058
			c12.693-2.161,21.648-12.785,21.213-24.462l-6.646-39.598C284.972,231.777,296.613,207.914,296.613,181.51z"/>
		<g>
			<ellipse transform="matrix(0.4416 -0.8972 0.8972 0.4416 -93.5486 288.7443)" cx="185.195" cy="219.526" rx="8.354" ry="5.75"/>
			<ellipse transform="matrix(0.4416 0.8972 -0.8972 0.4416 311.3181 -61.1612)" cx="204.794" cy="219.523" rx="8.354" ry="5.75"/>
		</g>
	</g>
	<circle cx="148.27" cy="184.756" r="17.906"/>
	<circle cx="240.875" cy="173.756" r="28.906"/>
	<path fill="#F4A800" d="M279.84,128.932L279.84,128.932c-6.399-9.005-14.407-16.927-23.649-23.402
		c-62.484,18.83-109.608,5.449-123.661,1.757c-9.326,6.956-17.305,15.419-23.506,24.998l0,0
		C207.699,162.133,279.84,128.932,279.84,128.932z"/>
</g>
</svg>
