<?xml version="1.0" encoding="utf-8"?>
<!-- Generator: Adobe Illustrator 16.0.0, SVG Export Plug-In . SVG Version: 6.00 Build 0)  -->
<!DOCTYPE svg PUBLIC "-//W3C//DTD SVG 1.1//EN" "http://www.w3.org/Graphics/SVG/1.1/DTD/svg11.dtd">
<svg version="1.1" id="Layer_1" xmlns="http://www.w3.org/2000/svg" xmlns:xlink="http://www.w3.org/1999/xlink" x="0px" y="0px"
	 width="386.32px" height="386.324px" viewBox="0 0 386.32 386.324" enable-background="new 0 0 386.32 386.324"
	 xml:space="preserve">
<g>
	<g>
		<path fill="#FFFFFF" d="M267.76,201.33c0-52.064-45.236-94.271-101.038-94.271c-55.807,0-101.044,42.207-101.044,94.271
			c0,26.404,11.641,50.268,30.388,67.381l-6.646,39.598c-0.436,11.676,8.521,22.301,21.213,24.461
			c12.691,2.162,24.66-4.896,28.115-16.059l2.911-16.842l0.044,18.141c1.531,11.582,12.146,20.553,25.021,20.553
			s23.484-8.971,25.018-20.553l0.045-18.141l2.912,16.842c3.455,11.16,15.421,18.221,28.114,16.059
			c12.689-2.16,21.646-12.785,21.211-24.461l-6.646-39.598C256.121,251.598,267.76,227.734,267.76,201.33z"/>
		<g>
			
				<ellipse transform="matrix(-0.8972 -0.4417 0.4417 -0.8972 190.8883 523.1367)" cx="156.338" cy="239.349" rx="5.751" ry="8.356"/>
			<ellipse transform="matrix(0.8972 -0.4417 0.4417 0.8972 -87.6242 102.3102)" cx="175.923" cy="239.349" rx="5.751" ry="8.356"/>
		</g>
	</g>
	<g>
		<path d="M90.511,194.613c0,15.963,12.94,28.906,28.904,28.906c15.965,0,28.906-12.943,28.906-28.906
			c0-0.039-0.002-0.078-0.002-0.117H90.515C90.515,194.535,90.511,194.574,90.511,194.613z"/>
		<path d="M183.116,194.613c0,15.963,12.942,28.906,28.905,28.906c15.965,0,28.904-12.943,28.904-28.906
			c0-0.039-0.002-0.078-0.002-0.117h-57.807C183.119,194.535,183.116,194.574,183.116,194.613z"/>
	</g>
	<path fill="#2E3192" d="M343.22,150.834c-5.566-14.291-43.682-15.908-69.143-15.34c-0.273-6.383-3.189-12.619-8.566-16.93
		c-5.379-4.312-12.1-5.804-18.391-4.686c-4.979-24.975-14.84-61.826-30-64.153c-23.058-3.538-69.407,52.247-58.374,72.802
		c7.229,13.469,44.58,15.363,69.479,15.07c0.313,6.332,3.227,12.508,8.563,16.787c5.336,4.277,11.998,5.781,18.248,4.709
		c5.123,24.368,15.092,60.414,29.811,64.542C307.306,229.939,351.685,172.574,343.22,150.834z"/>
</g>
</svg>
