<?xml version="1.0" encoding="utf-8"?>
<!-- Generator: Adobe Illustrator 16.0.0, SVG Export Plug-In . SVG Version: 6.00 Build 0)  -->
<!DOCTYPE svg PUBLIC "-//W3C//DTD SVG 1.1//EN" "http://www.w3.org/Graphics/SVG/1.1/DTD/svg11.dtd">
<svg version="1.1" id="Layer_1" xmlns="http://www.w3.org/2000/svg" xmlns:xlink="http://www.w3.org/1999/xlink" x="0px" y="0px"
	 width="386.32px" height="386.324px" viewBox="0 0 386.32 386.324" enable-background="new 0 0 386.32 386.324"
	 xml:space="preserve">
<g>
	<g>
		<path fill="#FFFFFF" d="M267.76,201.33c0-52.064-45.237-94.271-101.039-94.271c-55.806,0-101.044,42.207-101.044,94.271
			c0,26.404,11.641,50.268,30.388,67.381l-6.646,39.598c-0.436,11.675,8.521,22.3,21.213,24.461
			c12.691,2.162,24.66-4.897,28.115-16.059l2.911-16.842l0.044,18.141c1.531,11.582,12.146,20.553,25.021,20.553
			s23.485-8.971,25.018-20.553l0.045-18.141l2.912,16.842c3.455,11.16,15.421,18.221,28.114,16.059
			c12.69-2.161,21.646-12.786,21.211-24.461l-6.646-39.598C256.121,251.598,267.76,227.734,267.76,201.33z"/>
		<g>
			<ellipse transform="matrix(0.4416 -0.8972 0.8972 0.4416 -127.4569 273.9179)" cx="156.343" cy="239.36" rx="8.356" ry="5.751"/>
			<ellipse transform="matrix(0.4417 0.8972 -0.8972 0.4417 312.952 -24.2113)" cx="175.929" cy="239.341" rx="8.356" ry="5.751"/>
		</g>
	</g>
	<g>
		<path d="M90.511,194.613c0,15.963,12.941,28.906,28.905,28.906c15.965,0,28.906-12.943,28.906-28.906
			c0-0.039-0.002-0.078-0.002-0.117H90.515C90.515,194.535,90.511,194.574,90.511,194.613z"/>
		<path d="M183.116,194.613c0,15.963,12.942,28.906,28.905,28.906c15.965,0,28.905-12.943,28.905-28.906
			c0-0.039-0.002-0.078-0.002-0.117h-57.807C183.119,194.535,183.116,194.574,183.116,194.613z"/>
	</g>
	<path fill="#ED1C24" d="M343.22,150.834c-5.566-14.291-43.681-15.908-69.142-15.34c-0.274-6.383-3.19-12.619-8.567-16.93
		c-5.378-4.312-12.099-5.804-18.39-4.686c-4.979-24.975-14.84-61.826-30-64.153c-23.058-3.538-69.407,52.247-58.374,72.802
		c7.229,13.469,44.58,15.363,69.479,15.07c0.313,6.332,3.227,12.508,8.563,16.787c5.336,4.277,11.998,5.781,18.248,4.709
		c5.123,24.368,15.092,60.414,29.81,64.542C307.306,229.939,351.685,172.574,343.22,150.834z"/>
</g>
</svg>
