<?xml version="1.0" encoding="utf-8"?>
<!-- Generator: Adobe Illustrator 16.0.0, SVG Export Plug-In . SVG Version: 6.00 Build 0)  -->
<!DOCTYPE svg PUBLIC "-//W3C//DTD SVG 1.1//EN" "http://www.w3.org/Graphics/SVG/1.1/DTD/svg11.dtd">
<svg version="1.1" id="Layer_1" xmlns="http://www.w3.org/2000/svg" xmlns:xlink="http://www.w3.org/1999/xlink" x="0px" y="0px"
	 width="386.32px" height="386.324px" viewBox="0 0 386.32 386.324" enable-background="new 0 0 386.32 386.324"
	 xml:space="preserve">
<g>
	<g>
		<path fill="#FFFFFF" d="M291.449,238.59c0-52.063-45.238-94.271-101.043-94.271c-55.803,0-101.041,42.207-101.041,94.271
			c0,26.404,11.639,50.268,30.385,67.381l-6.645,39.602c-0.438,11.675,8.52,22.299,21.211,24.461
			c12.689,2.163,24.66-4.897,28.115-16.062l2.908-16.842l0.049,18.144c1.527,11.579,12.143,20.553,25.018,20.553
			s23.489-8.973,25.02-20.553l0.047-18.144l2.908,16.842c3.455,11.16,15.428,18.225,28.115,16.062
			c12.693-2.162,21.648-12.786,21.213-24.461l-6.646-39.602C279.808,288.857,291.449,264.994,291.449,238.59z"/>
		<g>
			<ellipse transform="matrix(0.8972 0.4416 -0.4416 0.8972 140.6559 -51.0706)" cx="180.033" cy="276.609" rx="5.75" ry="8.355"/>
			
				<ellipse transform="matrix(-0.8972 0.4417 -0.4417 -0.8972 500.9175 436.5409)" cx="199.64" cy="276.583" rx="5.751" ry="8.354"/>
		</g>
	</g>
	<g>
		<path d="M114.199,231.564c0,15.965,12.942,28.906,28.906,28.906c15.965,0,28.906-12.941,28.906-28.906
			c0-0.039-0.006-0.076-0.006-0.115H114.2C114.203,231.488,114.199,231.525,114.199,231.564z"/>
		<path d="M206.804,231.564c0,15.965,12.938,28.906,28.902,28.906s28.906-12.941,28.906-28.906c0-0.039-0.004-0.076-0.004-0.115
			h-57.808C206.806,231.488,206.804,231.525,206.804,231.564z"/>
	</g>
	<g>
		<path d="M266.594,166.852v-148.9c0-4.373-32.611-7.917-72.846-7.917c-40.229,0-72.848,3.544-72.848,7.917v148.9
			c-32.164,2.339-53.152,6.186-53.152,10.533c0,7.13,56.412,12.91,126,12.91s126-5.78,126-12.91
			C319.748,173.037,298.758,169.189,266.594,166.852z"/>
		<path fill="#009444" d="M120.9,147.936c49.427,5.393,97.427,6.06,145.69,0v18.916c0,0-61.594,13.1-145.69,0V147.936z"/>
	</g>
</g>
</svg>
