<?xml version="1.0" encoding="utf-8"?>
<!-- Generator: Adobe Illustrator 16.0.0, SVG Export Plug-In . SVG Version: 6.00 Build 0)  -->
<!DOCTYPE svg PUBLIC "-//W3C//DTD SVG 1.1//EN" "http://www.w3.org/Graphics/SVG/1.1/DTD/svg11.dtd">
<svg version="1.1" id="Layer_1" xmlns="http://www.w3.org/2000/svg" xmlns:xlink="http://www.w3.org/1999/xlink" x="0px" y="0px"
	 width="386.32px" height="386.324px" viewBox="0 0 386.32 386.324" enable-background="new 0 0 386.32 386.324"
	 xml:space="preserve">
<g>
	<path fill="#FFFFFF" d="M291.449,238.59c0-52.063-45.238-94.271-101.043-94.271c-55.803,0-101.041,42.207-101.041,94.271
		c0,26.404,11.639,50.268,30.385,67.381l-6.645,39.6c-0.438,11.675,8.52,22.299,21.211,24.461
		c12.691,2.163,24.66-4.897,28.115-16.06l2.91-16.842l0.047,18.142c1.529,11.581,12.143,20.553,25.018,20.553
		s23.489-8.972,25.02-20.553l0.045-18.142l2.91,16.842c3.455,11.16,15.426,18.223,28.115,16.06
		c12.693-2.162,21.648-12.786,21.213-24.461l-6.646-39.6C279.808,288.857,291.449,264.994,291.449,238.59z"/>
	<g>
		<ellipse transform="matrix(-0.8972 -0.4416 0.4416 -0.8972 219.4048 604.2567)" cx="180.027" cy="276.594" rx="5.75" ry="8.355"/>
		<ellipse transform="matrix(0.8972 -0.4417 0.4417 0.8972 -101.6371 116.6062)" cx="199.621" cy="276.593" rx="5.75" ry="8.354"/>
	</g>
</g>
<g>
	<path d="M114.199,231.564c0,15.965,12.942,28.906,28.906,28.906c15.965,0,28.906-12.941,28.906-28.906
		c0-0.039-0.004-0.076-0.004-0.115h-57.807C114.203,231.488,114.199,231.525,114.199,231.564z"/>
	<path d="M206.804,231.564c0,15.965,12.939,28.906,28.904,28.906s28.906-12.941,28.906-28.906c0-0.039-0.004-0.076-0.004-0.115
		h-57.807C206.806,231.488,206.804,231.525,206.804,231.564z"/>
</g>
<g>
	<path d="M266.594,166.853v-148.9c0-4.373-32.615-7.917-72.846-7.917c-40.232,0-72.85,3.544-72.85,7.917v148.9
		c-32.162,2.339-53.15,6.185-53.15,10.533c0,7.129,56.412,12.909,126,12.909s126-5.78,126-12.909
		C319.748,173.037,298.758,169.19,266.594,166.853z"/>
	<g>
		<path fill="#741F89" d="M120.9,147.937L120.9,147.937l-0.001,18.916c55.535,8.649,128.262,0.581,145.693-0.865v-18.051
			C169,157.952,120.9,147.937,120.9,147.937z"/>
	</g>
</g>
</svg>
