<?xml version="1.0" encoding="utf-8"?>
<!-- Generator: Adobe Illustrator 16.0.0, SVG Export Plug-In . SVG Version: 6.00 Build 0)  -->
<!DOCTYPE svg PUBLIC "-//W3C//DTD SVG 1.1//EN" "http://www.w3.org/Graphics/SVG/1.1/DTD/svg11.dtd">
<svg version="1.1" id="Layer_1" xmlns="http://www.w3.org/2000/svg" xmlns:xlink="http://www.w3.org/1999/xlink" x="0px" y="0px"
	 width="386.32px" height="386.324px" viewBox="0 0 386.32 386.324" enable-background="new 0 0 386.32 386.324"
	 xml:space="preserve">
<g>
	<g>
		<path fill="#FFFFFF" d="M292.571,212.525c0-52.064-45.238-94.271-101.041-94.271c-55.805,0-101.043,42.207-101.043,94.271
			c0,26.402,11.641,50.268,30.387,67.381l-6.646,39.598c-0.437,11.674,8.52,22.299,21.213,24.462
			c12.69,2.161,24.66-4.897,28.115-16.06l2.911-16.841l0.044,18.14c1.53,11.582,12.145,20.553,25.02,20.553
			s23.486-8.971,25.018-20.553l0.046-18.14l2.911,16.841c3.455,11.161,15.423,18.221,28.115,16.06
			c12.691-2.163,21.646-12.788,21.211-24.462l-6.645-39.598C280.932,262.793,292.571,238.93,292.571,212.525z"/>
		<g>
			<ellipse transform="matrix(0.4416 -0.8972 0.8972 0.4416 -123.6298 302.4384)" cx="181.156" cy="250.54" rx="8.357" ry="5.75"/>
			<ellipse transform="matrix(0.4416 0.8972 -0.8972 0.4416 336.8871 -40.218)" cx="200.754" cy="250.537" rx="8.357" ry="5.75"/>
		</g>
	</g>
	<g>
		<g>
			<ellipse transform="matrix(0.4418 -0.8971 0.8971 0.4418 -125.1377 303.2112)" cx="181.094" cy="252.167" rx="8.355" ry="5.75"/>
			<ellipse transform="matrix(0.4417 0.8972 -0.8972 0.4417 338.2824 -39.2777)" cx="200.699" cy="252.159" rx="8.354" ry="5.751"/>
		</g>
	</g>
	<g>
		<path d="M115.065,207.869c0,15.964,12.942,28.906,28.906,28.906c15.965,0,28.905-12.942,28.905-28.906
			c0-0.038-0.002-0.076-0.002-0.116h-57.807C115.069,207.793,115.065,207.831,115.065,207.869z"/>
		<path d="M207.669,207.869c0,15.964,12.943,28.906,28.906,28.906c15.965,0,28.906-12.942,28.906-28.906
			c0-0.038-0.002-0.076-0.002-0.116h-57.808C207.673,207.793,207.669,207.831,207.669,207.869z"/>
	</g>
	<g>
		<g>
			<path fill="#FFFFFF" d="M110.268,110.779l-9.613,15.269l8.889-17.726c-1.137-3.914-2.229-7.989-3.268-12.111l-5.953,6.837
				l5.234-9.732c-0.615-2.509-1.211-5.022-1.783-7.514l-9.215,15.579l6.969-25.762l0,0c-1.197-5.638-2.248-10.938-3.125-15.543
				l-7.916,13.638l7.051-18.246c-1.324-7.188-2.07-11.79-2.07-11.79c-1.426-3.523-3.096-6.062-4.881-7.843l-6.264,5.546l4.193-7.258
				c-7.847-5.182-17.002,2.021-18.355,6.628c0,0-0.988,4.246-1.885,11.047l9.379,10.583l-9.678-8.191
				c-0.563,4.813-1.025,10.654-1.103,17.037c3.193,1.991,9.64,5.977,12.988,7.83l2.074,0.991c-0.203,0-0.976-0.381-2.074-0.991
				L66.86,73.853c-0.01,9.18,0.826,18.388,3.373,28.306l13.756,8.035l-12.914-4.962c0.543,1.841,1.158,3.664,1.834,5.467
				l9.029,2.022l-8.205,0.056c5.264,12.855,14.197,24.305,28.951,31.075l17.112,6l3.384-11.174
				C118.663,134.885,114.223,123.948,110.268,110.779z"/>
			<g>
				<path fill="#BCBEC0" d="M83.173,36.609c0,0-0.678,7.054-0.657,17.66c0.002,2.65,0.051,5.521,0.164,8.553
					c0.125,3.031,0.25,6.228,0.508,9.524c0.229,3.299,0.576,6.697,0.977,10.142c0.445,3.438,0.935,6.925,1.582,10.381l0.486,2.59
					l0.555,2.568c0.348,1.715,0.789,3.398,1.217,5.07c0.873,3.338,1.841,6.586,2.867,9.695c0.531,1.547,1.055,3.068,1.566,4.557
					c0.563,1.468,1.117,2.903,1.653,4.302c0.599,1.373,1.179,2.709,1.738,4.001c0.615,1.269,1.209,2.494,1.779,3.67
					c0.629,1.147,1.229,2.247,1.803,3.293c0.547,1.065,1.223,1.973,1.76,2.896c0.281,0.454,0.552,0.894,0.814,1.318
					c0.268,0.42,0.563,0.798,0.828,1.177c0.531,0.76,1.018,1.457,1.457,2.088c0.908,1.243,1.727,2.136,2.225,2.804
					c0.514,0.653,0.789,1.002,0.789,1.002l-0.211,0.215c0,0-0.332-0.296-0.955-0.851c-0.615-0.563-1.551-1.368-2.647-2.483
					c-1.043-1.159-2.437-2.49-3.729-4.255c-1.391-1.698-2.771-3.748-4.225-6.026c-0.672-1.171-1.371-2.391-2.097-3.652
					c-0.643-1.305-1.309-2.654-1.991-4.041c-0.636-1.407-1.238-2.876-1.865-4.372c-0.566-1.519-1.119-3.08-1.666-4.672
					c-0.465-1.616-0.986-3.246-1.42-4.919c-0.416-1.677-0.877-3.366-1.209-5.096c-0.357-1.724-0.732-3.457-1.027-5.212l-0.467-2.63
					l-0.396-2.646c-0.547-3.524-0.93-7.067-1.268-10.555c-0.295-3.492-0.535-6.93-0.66-10.261c-0.145-3.329-0.199-6.549-0.186-9.602
					c0.016-3.052,0.09-5.936,0.198-8.595c0.433-10.642,1.412-17.674,1.41-17.674L83.173,36.609z"/>
			</g>
		</g>
		<path d="M317.737,121.379c-12.447-8.352-26.055,9.482-36.814,10.395c0,0-29.85-57.521-85.338-59.629
			c-1.338-0.095-2.692-0.15-4.055-0.185c-1.363,0.034-2.717,0.09-4.055,0.185c-55.49,2.107-85.34,59.629-85.34,59.629
			c-10.761-0.912-24.365-18.746-36.813-10.395c-13.186,8.848,11.357,46.729,29.191,62.729c0,0,42.297-14.449,97.016-14.314
			c54.717-0.135,97.014,14.314,97.014,14.314C306.38,168.107,330.923,130.227,317.737,121.379z"/>
		<g>
			<path fill="#FFFFFF" d="M214.059,141.265l-19.605-8.669l-0.367-0.161l-24.393-10.785c0.926-2.021-0.498-5.171-1.73-7.419
				c-1.965-3.583-6.17-5.057-9.395-3.289c-3.213,1.76-4.234,6.073-2.299,9.648c-3.947,0.976-6.449,4.635-5.59,8.195
				c0.862,3.574,4.78,5.693,8.754,4.734c2.494-0.602,5.78-1.668,6.653-3.713l24.392,10.785l0.367,0.162l19.604,8.67
				c-0.924,2.02,0.5,5.17,1.732,7.418c1.963,3.584,6.17,5.058,9.393,3.29c3.213-1.761,4.236-6.073,2.301-9.65
				c3.947-0.974,6.449-4.633,5.59-8.195c-0.862-3.572-4.782-5.694-8.756-4.734C218.219,138.154,214.932,139.221,214.059,141.265z"/>
		</g>
		<path fill="#FFFFFF" d="M166.087,141.265l19.605-8.669l0.367-0.161l24.393-10.785c-0.924-2.021,0.498-5.171,1.732-7.419
			c1.963-3.583,6.168-5.057,9.393-3.289c3.213,1.76,4.236,6.073,2.299,9.648c3.949,0.976,6.451,4.635,5.592,8.195
			c-0.862,3.574-4.782,5.693-8.756,4.734c-2.491-0.602-5.778-1.668-6.651-3.713l-24.394,10.785l-0.367,0.162l-19.604,8.67
			c0.926,2.02-0.498,5.17-1.73,7.418c-1.965,3.584-6.17,5.058-9.395,3.29c-3.213-1.761-4.236-6.073-2.299-9.65
			c-3.949-0.974-6.449-4.633-5.59-8.195c0.86-3.572,4.78-5.694,8.754-4.734C161.928,138.154,165.216,139.221,166.087,141.265z"/>
		<g>
			<g>
				<path fill="#FFFFFF" d="M190.073,139.8c-3.022,0-5.601-2.021-6.158-4.761c-0.958,2.151-3.136,3.522-5.636,3.522
					c-0.376,0-0.757-0.032-1.13-0.096c-3.117-0.532-5.384-3.16-5.273-6.113l1.483-8.863c-4.464-4.173-6.919-9.706-6.919-15.611
					c0-12.177,10.602-22.084,23.633-22.084c13.032,0,23.635,9.907,23.635,22.084c0,5.905-2.455,11.438-6.919,15.61l1.478,8.799
					c0.115,3.017-2.15,5.645-5.268,6.177c-0.374,0.064-0.754,0.096-1.13,0.096l0,0c-2.518,0-4.709-1.391-5.644-3.52
					C195.639,137.807,193.075,139.8,190.073,139.8z"/>
				<path d="M190.073,86.295c12.777,0,23.135,9.664,23.135,21.584c0,6.045-2.666,11.508-6.957,15.427l1.521,9.065
					c0.1,2.673-1.951,5.105-4.857,5.602c-0.353,0.06-0.702,0.089-1.046,0.089c-2.494,0-4.694-1.521-5.39-3.767l-0.668-3.855
					l-0.011,4.153c-0.35,2.651-2.778,4.707-5.729,4.707c-2.947,0-5.377-2.056-5.727-4.707l-0.013-4.153l-0.666,3.855
					c-0.694,2.246-2.896,3.767-5.39,3.767c-0.345,0-0.694-0.029-1.046-0.089c-2.906-0.496-4.957-2.929-4.857-5.602l1.521-9.065
					c-4.291-3.919-6.957-9.382-6.957-15.427C166.94,95.959,177.298,86.295,190.073,86.295 M190.073,85.295
					c-13.307,0-24.133,10.131-24.133,22.584c0,5.958,2.438,11.545,6.881,15.791l-1.432,8.536l-0.013,0.064l-0.002,0.064
					c-0.119,3.203,2.326,6.05,5.688,6.625c0.401,0.068,0.812,0.103,1.215,0.103c2.279,0,4.312-1.06,5.507-2.763
					c1.006,2.363,3.468,4.001,6.287,4.001c2.82,0,5.283-1.638,6.289-4.001c1.195,1.703,3.228,2.763,5.507,2.763
					c0.403,0,0.813-0.035,1.214-0.103c3.362-0.574,5.81-3.422,5.688-6.625l-0.002-0.064l-0.012-0.064l-1.433-8.536
					c4.442-4.246,6.882-9.833,6.882-15.791C214.208,95.426,203.381,85.295,190.073,85.295L190.073,85.295z"/>
			</g>
			<g>
				<ellipse transform="matrix(0.4415 -0.8972 0.8972 0.4415 0.2112 233.5106)" cx="187.688" cy="116.586" rx="1.912" ry="1.316"/>
				
					<ellipse transform="matrix(0.4416 0.8972 -0.8972 0.4416 211.929 -107.3266)" cx="192.187" cy="116.593" rx="1.912" ry="1.317"/>
			</g>
			<circle cx="179.244" cy="106.104" r="6.618"/>
			<circle cx="200.447" cy="106.104" r="6.618"/>
		</g>
	</g>
</g>
</svg>
