<?xml version="1.0" encoding="utf-8"?>
<!-- Generator: Adobe Illustrator 16.0.0, SVG Export Plug-In . SVG Version: 6.00 Build 0)  -->
<!DOCTYPE svg PUBLIC "-//W3C//DTD SVG 1.1//EN" "http://www.w3.org/Graphics/SVG/1.1/DTD/svg11.dtd">
<svg version="1.1" id="Layer_1" xmlns="http://www.w3.org/2000/svg" xmlns:xlink="http://www.w3.org/1999/xlink" x="0px" y="0px"
	 width="386.32px" height="386.324px" viewBox="0 0 386.32 386.324" enable-background="new 0 0 386.32 386.324"
	 xml:space="preserve">
<g>
	<g>
		<path fill="#FFFFFF" d="M267.76,200.43c0-52.064-45.237-94.271-101.04-94.271c-55.806,0-101.044,42.207-101.044,94.271
			c0,26.403,11.641,50.268,30.388,67.379l-6.646,39.599c-0.436,11.675,8.521,22.299,21.213,24.461
			c12.691,2.163,24.66-4.897,28.115-16.059l2.911-16.841l0.044,18.141c1.531,11.582,12.146,20.553,25.021,20.553
			s23.485-8.971,25.018-20.553l0.045-18.141l2.912,16.841c3.455,11.16,15.422,18.222,28.115,16.059
			c12.69-2.162,21.646-12.786,21.211-24.461l-6.646-39.599C256.121,250.695,267.76,226.833,267.76,200.43z"/>
		<g>
			<ellipse transform="matrix(0.4416 -0.8972 0.8972 0.4416 -126.6341 273.4149)" cx="156.344" cy="238.445" rx="8.357" ry="5.75"/>
			<ellipse transform="matrix(0.4416 0.8972 -0.8972 0.4416 312.1798 -24.7111)" cx="175.942" cy="238.441" rx="8.357" ry="5.75"/>
		</g>
	</g>
	<path d="M241.101,197.333c0,0-0.111-0.31-0.316-0.888c-0.096-0.289-0.215-0.646-0.354-1.065c-0.127-0.432-0.392-0.849-0.599-1.333
		c-0.229-0.477-0.438-0.987-0.805-1.53c-0.355-0.533-0.615-1.137-1.096-1.692c-0.451-0.562-0.83-1.188-1.41-1.742
		c-0.263-0.287-0.529-0.58-0.803-0.883c-0.289-0.287-0.617-0.556-0.929-0.84c-1.221-1.16-2.752-2.182-4.367-3.17
		c-0.873-0.422-1.668-0.967-2.616-1.329c-0.463-0.193-0.91-0.417-1.382-0.611c-0.479-0.176-0.963-0.353-1.45-0.533
		c-0.476-0.2-0.99-0.319-1.494-0.473c-0.508-0.145-1.004-0.324-1.523-0.448c-1.057-0.203-2.088-0.503-3.174-0.642
		c-2.143-0.396-4.373-0.497-6.59-0.546c-0.842,0.059-2.574,0.015-3.447,0.16c-0.51,0.061-1.02,0.116-1.533,0.146
		c-0.521,0.058-1.073,0.168-1.606,0.247c-1.088,0.137-2.117,0.446-3.174,0.644c-0.521,0.124-1.017,0.303-1.523,0.447
		c-0.502,0.156-1.018,0.274-1.492,0.476c-0.487,0.179-0.971,0.355-1.451,0.531c-0.471,0.192-0.913,0.421-1.379,0.612
		c-0.948,0.362-1.746,0.904-2.614,1.328c-1.617,0.986-3.147,2.01-4.367,3.167c-0.312,0.284-0.641,0.553-0.928,0.84
		c-0.27,0.299-0.529,0.597-0.804,0.881c-0.58,0.553-0.961,1.179-1.412,1.741c-0.479,0.553-0.737,1.158-1.097,1.691
		c-0.364,0.533-0.582,1.068-0.812,1.555c-0.209,0.49-0.474,0.93-0.598,1.332c-0.139,0.408-0.257,0.755-0.353,1.037
		c-0.207,0.58-0.317,0.89-0.317,0.89s-0.081-0.312-0.199-0.916c-0.107-0.604-0.339-1.521-0.307-2.699
		c-0.022-0.598-0.032-1.268,0.087-1.978c0.1-0.712,0.162-1.525,0.418-2.328c0.229-0.815,0.455-1.716,0.863-2.583
		c0.185-0.445,0.393-0.895,0.604-1.363c0.231-0.452,0.505-0.888,0.771-1.352c1.067-1.858,2.583-3.621,4.354-5.319
		c0.926-0.785,1.874-1.64,2.945-2.334c0.527-0.363,1.057-0.75,1.624-1.077c0.572-0.315,1.148-0.633,1.732-0.955
		c2.362-1.216,4.946-2.227,7.666-2.821c0.684-0.148,1.348-0.322,2.059-0.447c0.729-0.114,1.463-0.206,2.197-0.292
		c0.358-0.039,0.76-0.098,1.084-0.119l0.942-0.046l2.063-0.095c2.813,0.102,5.641,0.289,8.344,1.005
		c2.715,0.604,5.303,1.602,7.662,2.825c0.582,0.322,1.16,0.639,1.732,0.955c0.565,0.326,1.094,0.718,1.62,1.078
		c1.072,0.694,2.021,1.547,2.945,2.334c1.771,1.697,3.285,3.459,4.354,5.316c0.266,0.463,0.541,0.9,0.771,1.351
		c0.213,0.466,0.42,0.918,0.605,1.362c0.405,0.865,0.637,1.766,0.862,2.581c0.259,0.801,0.318,1.613,0.42,2.326
		c0.117,0.702,0.113,1.396,0.095,2.004c0.035,1.218-0.203,2.061-0.31,2.667C241.17,197.014,241.101,197.333,241.101,197.333z"/>
	<path d="M148.497,197.333c0,0-0.109-0.31-0.315-0.888c-0.097-0.289-0.215-0.646-0.354-1.065c-0.127-0.432-0.391-0.849-0.598-1.333
		c-0.229-0.477-0.439-0.987-0.806-1.53c-0.355-0.533-0.614-1.137-1.096-1.692c-0.452-0.562-0.83-1.188-1.411-1.742
		c-0.261-0.287-0.527-0.58-0.803-0.883c-0.288-0.287-0.616-0.556-0.927-0.84c-1.222-1.16-2.752-2.182-4.368-3.17
		c-0.872-0.422-1.667-0.967-2.616-1.329c-0.464-0.193-0.911-0.417-1.382-0.611c-0.479-0.176-0.963-0.353-1.45-0.532
		c-0.475-0.202-0.991-0.321-1.495-0.474c-0.508-0.145-1.004-0.323-1.522-0.447c-1.057-0.203-2.087-0.504-3.175-0.642
		c-0.539-0.08-1.074-0.189-1.62-0.249c-0.551-0.039-1.1-0.087-1.646-0.15c-0.547-0.077-1.102-0.094-1.657-0.101l-0.833-0.021
		l-0.416-0.013l-0.208-0.007l-0.104-0.003l-0.052-0.002l-0.025-0.001c0.069,0-0.192,0.003,0.148-0.003l-1.89,0.055l-0.941,0.028
		c-0.304,0.013-0.524,0.056-0.79,0.081c-0.512,0.061-1.021,0.116-1.533,0.146c-0.522,0.058-1.074,0.168-1.608,0.247
		c-1.088,0.137-2.116,0.446-3.173,0.644c-0.52,0.124-1.016,0.303-1.522,0.447c-0.502,0.156-1.02,0.276-1.493,0.476
		c-0.487,0.179-0.971,0.355-1.45,0.531c-0.471,0.192-0.915,0.421-1.38,0.612c-0.948,0.362-1.745,0.904-2.615,1.328
		c-1.616,0.986-3.146,2.01-4.366,3.167c-0.311,0.284-0.64,0.553-0.928,0.84c-0.269,0.299-0.529,0.597-0.803,0.881
		c-0.58,0.553-0.961,1.179-1.412,1.741c-0.48,0.553-0.738,1.158-1.097,1.691c-0.364,0.533-0.582,1.068-0.813,1.555
		c-0.209,0.489-0.473,0.93-0.597,1.332c-0.14,0.409-0.257,0.755-0.354,1.038c-0.207,0.578-0.316,0.889-0.316,0.889
		s-0.081-0.313-0.199-0.916c-0.108-0.605-0.339-1.52-0.307-2.699c-0.022-0.598-0.032-1.268,0.087-1.978
		c0.1-0.712,0.162-1.525,0.418-2.328c0.228-0.815,0.455-1.716,0.862-2.583c0.186-0.445,0.394-0.895,0.604-1.363
		c0.23-0.452,0.505-0.888,0.771-1.352c1.068-1.858,2.583-3.621,4.355-5.319c0.925-0.785,1.874-1.64,2.945-2.334
		c0.526-0.363,1.058-0.75,1.623-1.077c0.571-0.315,1.148-0.633,1.731-0.955c2.363-1.216,4.948-2.227,7.666-2.821
		c0.686-0.148,1.348-0.322,2.061-0.447c0.728-0.114,1.462-0.206,2.196-0.292c0.358-0.039,0.76-0.098,1.084-0.119l0.942-0.046
		l1.888-0.091l0.208-0.001l0.032,0.001l0.066,0.002l0.132,0.006l0.265,0.013l0.527,0.024l1.055,0.051
		c0.703,0.026,1.404,0.067,2.103,0.172c0.698,0.083,1.394,0.181,2.084,0.288c0.688,0.121,1.368,0.297,2.048,0.445
		c2.715,0.604,5.304,1.604,7.663,2.825c0.582,0.322,1.159,0.639,1.731,0.955c0.565,0.326,1.093,0.718,1.621,1.078
		c1.071,0.695,2.021,1.547,2.943,2.334c1.771,1.697,3.287,3.459,4.354,5.316c0.268,0.464,0.541,0.9,0.772,1.351
		c0.213,0.466,0.419,0.918,0.604,1.362c0.408,0.865,0.64,1.766,0.865,2.581c0.257,0.801,0.318,1.613,0.419,2.326
		c0.118,0.702,0.114,1.396,0.094,2.004c0.035,1.218-0.202,2.06-0.309,2.667C148.566,197.014,148.497,197.333,148.497,197.333z"/>
	<path fill="#ED1C24" d="M343.22,149.933c-5.566-14.291-43.681-15.908-69.142-15.34c-0.274-6.383-3.19-12.619-8.567-16.93
		c-5.378-4.312-12.099-5.804-18.39-4.686c-4.979-24.975-14.84-61.826-30-64.153c-23.059-3.538-69.408,52.247-58.375,72.802
		c7.229,13.47,44.58,15.363,69.479,15.07c0.313,6.333,3.227,12.508,8.563,16.787c5.336,4.277,11.998,5.781,18.248,4.709
		c5.123,24.369,15.092,60.414,29.81,64.542C307.306,229.038,351.685,171.672,343.22,149.933z"/>
</g>
</svg>
