<?xml version="1.0" encoding="utf-8"?>
<!-- Generator: Adobe Illustrator 16.0.0, SVG Export Plug-In . SVG Version: 6.00 Build 0)  -->
<!DOCTYPE svg PUBLIC "-//W3C//DTD SVG 1.1//EN" "http://www.w3.org/Graphics/SVG/1.1/DTD/svg11.dtd">
<svg version="1.1" id="Layer_1" xmlns="http://www.w3.org/2000/svg" xmlns:xlink="http://www.w3.org/1999/xlink" x="0px" y="0px"
	 width="386.32px" height="386.324px" viewBox="0 0 386.32 386.324" enable-background="new 0 0 386.32 386.324"
	 xml:space="preserve">
<g>
	<path fill="#F4A800" d="M152.872,134.108c0,0-74.918,158.188-130.022,166.019l31.389-1.798l-7.102,19.642
		c0,0,123.322-115.617,118.961-162.799"/>
	<path fill="#F4A800" d="M125.239,120.547c0,0-4.018,174.986-51.159,204.576l27.937-14.424l1.511,20.832
		c0,0,65.563-155.812,42.369-197.13"/>
	<g>
		<path fill="#FFFFFF" d="M297.066,180.243c0-52.063-45.238-94.271-101.043-94.271c-55.803,0-101.042,42.208-101.042,94.271
			c0,26.403,11.639,50.267,30.386,67.38l-6.646,39.598c-0.437,11.676,8.52,22.299,21.212,24.461
			c12.691,2.162,24.659-4.897,28.114-16.059l2.912-16.842l0.045,18.141c1.531,11.582,12.144,20.554,25.019,20.554
			s23.488-8.972,25.02-20.554l0.045-18.141l2.91,16.842c3.455,11.16,15.424,18.221,28.115,16.059
			c12.693-2.162,21.648-12.785,21.213-24.461l-6.646-39.598C285.427,230.51,297.066,206.646,297.066,180.243z"/>
		<g>
			<ellipse transform="matrix(0.4416 -0.8972 0.8972 0.4416 -92.173 288.4339)" cx="185.647" cy="218.271" rx="8.355" ry="5.751"/>
			<ellipse transform="matrix(0.4417 0.8972 -0.8972 0.4417 310.3946 -62.275)" cx="205.233" cy="218.254" rx="8.355" ry="5.75"/>
		</g>
	</g>
	<g>
		<polygon points="204.674,155.595 204.674,172.999 204.674,176.618 204.674,178.024 187.119,178.024 187.119,176.618 
			187.119,175.269 187.119,172.999 187.119,155.595 110.034,155.595 110.034,202.453 187.119,202.453 187.119,184.352 
			187.119,181.56 204.674,181.56 204.674,184.352 204.674,202.453 281.758,202.453 281.758,179.649 281.758,175.269 
			281.758,155.595 		"/>
		<polyline opacity="0.3" fill="#FFFFFF" enable-background="new    " points="110.034,202.453 187.119,155.595 187.119,166.948 
			128.15,202.453 		"/>
		<polyline opacity="0.3" fill="#FFFFFF" enable-background="new    " points="204.674,202.453 281.758,155.595 281.758,166.948 
			222.789,202.453 		"/>
	</g>
	<path fill="#F4A800" d="M280.306,128.079L280.306,128.079c-6.398-9.005-14.408-16.927-23.648-23.402
		c-62.486,18.83-109.609,5.45-123.661,1.757c-9.327,6.956-17.305,15.418-23.507,24.997l0,0
		C208.168,161.28,280.306,128.079,280.306,128.079z"/>
</g>
</svg>
