<?xml version="1.0" encoding="utf-8"?>
<!-- Generator: Adobe Illustrator 16.0.0, SVG Export Plug-In . SVG Version: 6.00 Build 0)  -->
<!DOCTYPE svg PUBLIC "-//W3C//DTD SVG 1.1//EN" "http://www.w3.org/Graphics/SVG/1.1/DTD/svg11.dtd">
<svg version="1.1" id="Layer_1" xmlns="http://www.w3.org/2000/svg" xmlns:xlink="http://www.w3.org/1999/xlink" x="0px" y="0px"
	 width="386.32px" height="386.324px" viewBox="0 0 386.32 386.324" enable-background="new 0 0 386.32 386.324"
	 xml:space="preserve">
<g>
	<path fill="#6D6E71" d="M152.873,134.087c0,0-74.918,158.188-130.021,166.019l31.389-1.799l-7.102,19.646
		c0,0,123.32-115.616,118.961-162.799"/>
	<path fill="#6D6E71" d="M125.239,120.527c0,0-4.018,174.987-51.159,204.581l27.938-14.429l1.511,20.832
		c0,0,65.563-155.811,42.369-197.13"/>
	<g>
		<path fill="#FFFFFF" d="M296.613,180.081c0-52.063-45.238-94.271-101.041-94.271c-55.804,0-101.042,42.207-101.042,94.271
			c0,26.403,11.64,50.269,30.386,67.381l-6.646,39.599c-0.438,11.674,8.52,22.301,21.212,24.461
			c12.689,2.162,24.661-4.896,28.116-16.06l2.909-16.841l0.046,18.14c1.528,11.582,12.145,20.556,25.019,20.556
			c12.875,0,23.486-8.974,25.018-20.556l0.045-18.14l2.912,16.841c3.455,11.16,15.425,18.222,28.115,16.059
			c12.691-2.159,21.646-12.786,21.211-24.46l-6.645-39.599C284.974,230.35,296.613,206.484,296.613,180.081z"/>
		<g>
			
				<ellipse transform="matrix(-0.4417 0.8972 -0.8972 -0.4417 462.6821 148.2647)" cx="185.208" cy="218.097" rx="8.356" ry="5.751"/>
			
				<ellipse transform="matrix(-0.4417 -0.8972 0.8972 -0.4417 99.5736 498.1653)" cx="204.787" cy="218.101" rx="8.356" ry="5.751"/>
		</g>
	</g>
	<path d="M125.658,154.436c-4.243,5.031-6.805,11.525-6.805,18.623c0,15.964,12.938,28.907,28.903,28.907
		c13.116,0,24.185-8.737,27.722-20.706L125.658,154.436z"/>
	<path d="M262.465,154.763c4.244,5.031,6.808,11.526,6.808,18.623c0,15.965-12.941,28.907-28.906,28.907
		c-13.115,0-24.182-8.736-27.719-20.706L262.465,154.763z"/>
	<path fill="#6D6E71" d="M279.84,128.058L279.84,128.058c-6.396-9.005-14.405-16.927-23.646-23.402
		c-62.486,18.83-109.608,5.449-123.66,1.757c-9.327,6.957-17.305,15.419-23.507,24.997l0,0
		C207.701,161.259,279.84,128.058,279.84,128.058z"/>
</g>
</svg>
