<?xml version="1.0" encoding="utf-8"?>
<!-- Generator: Adobe Illustrator 16.0.0, SVG Export Plug-In . SVG Version: 6.00 Build 0)  -->
<!DOCTYPE svg PUBLIC "-//W3C//DTD SVG 1.1//EN" "http://www.w3.org/Graphics/SVG/1.1/DTD/svg11.dtd">
<svg version="1.1" id="Layer_1" xmlns="http://www.w3.org/2000/svg" xmlns:xlink="http://www.w3.org/1999/xlink" x="0px" y="0px"
	 width="386.32px" height="386.324px" viewBox="0 0 386.32 386.324" enable-background="new 0 0 386.32 386.324"
	 xml:space="preserve">
<g>
	<g>
		<path fill="#FFFFFF" d="M267.76,201.376c0-52.063-45.236-94.27-101.038-94.27c-55.807,0-101.044,42.208-101.044,94.27
			c0,26.403,11.641,50.269,30.388,67.383l-6.646,39.599c-0.436,11.675,8.521,22.299,21.213,24.46
			c12.691,2.164,24.66-4.896,28.115-16.059l2.911-16.842l0.044,18.141c1.531,11.582,12.146,20.553,25.021,20.553
			s23.484-8.971,25.018-20.553l0.045-18.141l2.912,16.842c3.455,11.16,15.421,18.222,28.114,16.059
			c12.689-2.161,21.646-12.785,21.211-24.46l-6.646-39.599C256.121,251.645,267.76,227.779,267.76,201.376z"/>
		<g>
			
				<ellipse transform="matrix(-0.8972 -0.4417 0.4417 -0.8972 190.8789 523.2037)" cx="156.341" cy="239.383" rx="5.75" ry="8.355"/>
			<ellipse transform="matrix(0.8972 -0.4417 0.4417 0.8972 -87.6394 102.3248)" cx="175.948" cy="239.389" rx="5.75" ry="8.355"/>
		</g>
	</g>
	<circle cx="212.022" cy="193.623" r="28.906"/>
	<path fill="#6D6E71" d="M343.22,150.882c-5.566-14.292-43.681-15.909-69.142-15.341c-0.274-6.383-3.19-12.619-8.567-16.929
		c-5.378-4.312-12.099-5.804-18.39-4.686c-4.979-24.975-14.84-61.826-30-64.154c-23.059-3.538-69.408,52.248-58.375,72.802
		c7.229,13.469,44.58,15.363,69.479,15.071c0.313,6.332,3.227,12.507,8.563,16.788c5.336,4.276,11.998,5.781,18.248,4.708
		c5.123,24.368,15.092,60.416,29.812,64.542C307.306,229.986,351.685,172.621,343.22,150.882z"/>
	<circle cx="119.417" cy="205.931" r="17.906"/>
</g>
</svg>
