<?xml version="1.0" encoding="utf-8"?>
<!-- Generator: Adobe Illustrator 16.0.0, SVG Export Plug-In . SVG Version: 6.00 Build 0)  -->
<!DOCTYPE svg PUBLIC "-//W3C//DTD SVG 1.1//EN" "http://www.w3.org/Graphics/SVG/1.1/DTD/svg11.dtd">
<svg version="1.1" id="Layer_1" xmlns="http://www.w3.org/2000/svg" xmlns:xlink="http://www.w3.org/1999/xlink" x="0px" y="0px"
	 width="386.32px" height="386.324px" viewBox="0 0 386.32 386.324" enable-background="new 0 0 386.32 386.324"
	 xml:space="preserve">
<g id="Layer_1_1_">
	<g>
		<g>
			<path fill="#FFFFFF" d="M294.462,171.961c0-52.064-45.236-94.271-101.044-94.271c-55.802,0-101.041,42.207-101.041,94.271
				c0,26.4,11.641,50.266,30.387,67.381l-6.646,39.6c-0.436,11.674,8.521,22.299,21.211,24.461
				c12.693,2.16,24.66-4.898,28.115-16.061l2.912-16.843l0.045,18.142c1.531,11.582,12.143,20.555,25.017,20.555
				c12.876,0,23.489-8.973,25.021-20.555l0.043-18.142l2.912,16.843c3.455,11.16,15.424,18.221,28.113,16.061
				c12.693-2.162,21.648-12.787,21.215-24.461l-6.646-39.6C282.821,222.227,294.462,198.364,294.462,171.961z"/>
			<g>
				<ellipse transform="matrix(-0.8972 -0.4416 0.4416 -0.8972 254.5065 479.174)" cx="183.015" cy="209.97" rx="5.75" ry="8.355"/>
				<ellipse transform="matrix(0.8973 -0.4415 0.4415 0.8973 -71.8875 111.0308)" cx="202.644" cy="209.99" rx="5.751" ry="8.356"/>
			</g>
		</g>
		<polygon fill="#D7781C" points="301.169,207.145 361.901,160.899 279.637,186.422 192.161,212.65 192.16,212.65 192.158,212.65 
			104.682,186.422 22.418,160.899 83.151,207.145 22.418,219.398 91.418,223.941 25.918,266.898 107.918,248.943 192.16,222.96 
			276.401,248.943 358.401,266.898 292.901,223.941 361.901,219.398 		"/>
		<g>
			
				<line fill="none" stroke="#000000" stroke-width="2" stroke-miterlimit="10" x1="169.559" y1="164.207" x2="222.559" y2="164.207"/>
			<path fill="#343487" d="M169.975,147.886c-2.945-4.298-7.023-7.754-11.803-9.95c-3.67-1.687-7.752-2.636-12.056-2.636
				c-15.964,0-28.906,12.942-28.906,28.907c0,4.665,1.112,9.067,3.074,12.968c2.108,4.193,5.206,7.798,8.988,10.516
				c4.743,3.409,10.558,5.421,16.844,5.421c15.964,0,28.906-12.942,28.906-28.906C175.025,158.15,173.158,152.531,169.975,147.886z"
				/>
			<path fill="#343487" d="M262.579,147.886c-2.945-4.298-7.021-7.754-11.801-9.95c-3.67-1.687-7.752-2.636-12.055-2.636
				c-15.967,0-28.906,12.942-28.906,28.907c0,4.665,1.111,9.067,3.074,12.968c2.105,4.193,5.205,7.798,8.986,10.516
				c4.742,3.409,10.559,5.421,16.846,5.421c15.963,0,28.904-12.942,28.904-28.906C267.63,158.15,265.762,152.531,262.579,147.886z"
				/>
			<path opacity="0.2" fill="#FFFFFF" enable-background="new    " d="M158.174,137.936l-37.888,39.239
				c2.108,4.193,5.206,7.798,8.988,10.516l40.7-39.805C167.03,143.588,162.951,140.132,158.174,137.936z"/>
			<path opacity="0.2" fill="#FFFFFF" enable-background="new    " d="M250.778,137.936l-37.887,39.239
				c2.105,4.193,5.205,7.798,8.986,10.516l40.699-39.805C259.634,143.588,255.555,140.132,250.778,137.936z"/>
		</g>
	</g>
</g>
</svg>
