<?xml version="1.0" encoding="utf-8"?>
<!-- Generator: Adobe Illustrator 16.0.0, SVG Export Plug-In . SVG Version: 6.00 Build 0)  -->
<!DOCTYPE svg PUBLIC "-//W3C//DTD SVG 1.1//EN" "http://www.w3.org/Graphics/SVG/1.1/DTD/svg11.dtd">
<svg version="1.1" id="Layer_1" xmlns="http://www.w3.org/2000/svg" xmlns:xlink="http://www.w3.org/1999/xlink" x="0px" y="0px"
	 width="386.32px" height="386.324px" viewBox="0 0 386.32 386.324" enable-background="new 0 0 386.32 386.324"
	 xml:space="preserve">
<g>
	<path fill="#603913" d="M164.725,105.362"/>
	<g>
		<path fill="#009444" d="M134.218,129.849c0,0,37.359,193.333,30.508,223.333c0,0,158.358-77.998,145.753-223.333"/>
		<g>
			<path fill="#FFFFFF" d="M323.39,175.981c0-52.063-45.238-94.271-101.043-94.271c-55.804,0-101.042,42.208-101.042,94.271
				c0,26.404,11.639,50.267,30.385,67.38l-6.646,39.599c-0.436,11.674,8.521,22.298,21.211,24.46
				c12.693,2.163,24.66-4.896,28.116-16.059l2.912-16.84l0.045,18.14c1.531,11.582,12.144,20.552,25.019,20.552
				s23.487-8.97,25.02-20.552l0.043-18.14l2.912,16.84c3.455,11.16,15.424,18.222,28.115,16.059
				c12.692-2.162,21.647-12.786,21.213-24.46l-6.646-39.599C311.75,226.248,323.39,202.385,323.39,175.981z"/>
			<g>
				<ellipse transform="matrix(0.4416 -0.8972 0.8972 0.4416 -73.633 309.6809)" cx="211.972" cy="213.995" rx="8.355" ry="5.75"/>
				<ellipse transform="matrix(0.4416 0.8972 -0.8972 0.4416 321.3081 -88.2754)" cx="231.572" cy="213.992" rx="8.355" ry="5.75"/>
			</g>
		</g>
		<circle cx="175.047" cy="168.227" r="28.906"/>
		<circle cx="267.652" cy="168.227" r="28.906"/>
		<path fill="#009444" d="M310.478,129.849c0,0-78.58,14-176.261,0c0,0,9.987-51.334,81.987-57
			C216.205,72.849,302.416,68.515,310.478,129.849z"/>
	</g>
	<g>
		<path opacity="0.5" fill="#FFFFFF" enable-background="new    " d="M57.575,45.386c18.111,15.036,29.459,31.243,25.344,36.2
			c-4.114,4.958-22.135-3.21-40.246-18.246C24.56,48.307,17.329,27.143,17.329,27.143S39.462,30.354,57.575,45.386z"/>
		<path opacity="0.5" fill="#FFFFFF" enable-background="new    " d="M112.835,45.386c-18.112,15.036-29.461,31.243-25.346,36.2
			c4.115,4.958,22.135-3.21,40.248-18.246c18.111-15.033,25.344-36.197,25.344-36.197S130.947,30.354,112.835,45.386z"/>
		<path opacity="0.5" fill="#FFFFFF" enable-background="new    " d="M101.073,114.38c-10.213-8.478-16.61-17.615-14.289-20.411
			c2.319-2.794,12.479,1.811,22.691,10.288c10.211,8.477,14.289,20.409,14.289,20.409S111.285,122.855,101.073,114.38z"/>
		<path opacity="0.5" fill="#FFFFFF" enable-background="new    " d="M69.917,114.38c10.212-8.478,16.609-17.615,14.289-20.411
			c-2.319-2.794-12.479,1.811-22.69,10.288c-10.211,8.477-14.289,20.409-14.289,20.409S59.705,122.855,69.917,114.38z"/>
		<circle fill="#FFFFFF" cx="85.204" cy="84.362" r="21"/>
	</g>
</g>
</svg>
