<?xml version="1.0" encoding="utf-8"?>
<!-- Generator: Adobe Illustrator 16.0.0, SVG Export Plug-In . SVG Version: 6.00 Build 0)  -->
<!DOCTYPE svg PUBLIC "-//W3C//DTD SVG 1.1//EN" "http://www.w3.org/Graphics/SVG/1.1/DTD/svg11.dtd">
<svg version="1.1" id="Layer_1" xmlns="http://www.w3.org/2000/svg" xmlns:xlink="http://www.w3.org/1999/xlink" x="0px" y="0px"
	 width="386.32px" height="386.324px" viewBox="0 0 386.32 386.324" enable-background="new 0 0 386.32 386.324"
	 xml:space="preserve">
<g id="Layer_1_1_">
	<g>
		<g>
			<path fill="#FFFFFF" d="M294.232,188.547c0-52.063-45.238-94.271-101.043-94.271c-55.804,0-101.041,42.207-101.041,94.271
				c0,26.404,11.639,50.268,30.387,67.381l-6.646,39.598c-0.438,11.677,8.52,22.302,21.213,24.462
				c12.689,2.164,24.657-4.896,28.111-16.058l2.912-16.844l0.045,18.143c1.531,11.58,12.145,20.552,25.02,20.552
				s23.488-8.972,25.02-20.552l0.045-18.143l2.91,16.844c3.455,11.158,15.424,18.222,28.115,16.058
				c12.693-2.16,21.648-12.785,21.213-24.462l-6.646-39.598C282.594,238.814,294.232,214.951,294.232,188.547z"/>
			<g>
				
					<ellipse transform="matrix(-0.8972 -0.4417 0.4417 -0.8972 246.7144 510.5793)" cx="182.789" cy="226.572" rx="5.75" ry="8.354"/>
				<ellipse transform="matrix(0.8972 -0.4416 0.4416 0.8972 -79.2524 112.6741)" cx="202.41" cy="226.58" rx="5.75" ry="8.354"/>
			</g>
		</g>
		<circle cx="145.89" cy="180.793" r="28.906"/>
		<circle cx="238.494" cy="180.793" r="28.906"/>
		<path fill="#603913" d="M269.677,206.934c0,0-45.25,39.719-76.554,25.941c-31.305,13.775-76.42-25.941-76.42-25.941
			c-15.244,28.082-4.41,49.207,8.021,55.896c41.104,22.104,61.404-14.041,66.855-26.188l0,0c0.4-0.613,1.607-2.453,1.607-2.453
			s0.889,1.222,1.131,1.66c5.945,10.76,25.299,49.586,67.332,26.979C274.086,256.141,284.922,235.016,269.677,206.934z"/>
		<path fill="#009444" d="M294.172,131.46c-12.701-28.117-42.154-70.73-101.012-70.916c-58.854,0.185-88.307,42.798-101.012,70.916
			c-4.189,9.274-8.25,30.603,1.428,41.228c0,0,43.17-34.136,99.584-35.642c56.414,1.506,99.584,35.642,99.584,35.642
			C302.422,162.063,298.363,140.734,294.172,131.46z M193.16,117.075c-27.498-0.555-47.27,8.717-47.27,8.717
			c16.027-28.522,34.01-37.882,47.27-37.604c13.26-0.278,31.24,9.082,47.271,37.604C240.429,125.792,220.658,116.521,193.16,117.075
			z"/>
		<path fill="#FFFFFF" d="M193.16,88.188c-13.26-0.278-31.24,9.082-47.27,37.604c0,0,19.771-9.271,47.27-8.717
			c27.498-0.555,47.271,8.717,47.271,8.717C224.4,97.27,206.42,87.91,193.16,88.188z"/>
		<text transform="matrix(1 0 0 1 187.3972 114.1602)" fill="#009444" font-family="'MyriadPro-Bold'" font-size="33">L</text>
	</g>
</g>
</svg>
