<?xml version="1.0" encoding="utf-8"?>
<!-- Generator: Adobe Illustrator 16.0.0, SVG Export Plug-In . SVG Version: 6.00 Build 0)  -->
<!DOCTYPE svg PUBLIC "-//W3C//DTD SVG 1.1//EN" "http://www.w3.org/Graphics/SVG/1.1/DTD/svg11.dtd">
<svg version="1.1" id="Layer_1" xmlns="http://www.w3.org/2000/svg" xmlns:xlink="http://www.w3.org/1999/xlink" x="0px" y="0px"
	 width="386.32px" height="386.324px" viewBox="0 0 386.32 386.324" enable-background="new 0 0 386.32 386.324"
	 xml:space="preserve">
<g>
	<g>
		<path fill="#FFFFFF" d="M294.232,188.546c0-52.063-45.236-94.271-101.042-94.271c-55.804,0-101.042,42.207-101.042,94.271
			c0,26.404,11.642,50.269,30.389,67.381l-6.646,39.599c-0.437,11.678,8.521,22.302,21.213,24.463
			c12.691,2.163,24.659-4.897,28.113-16.059l2.912-16.844l0.045,18.143c1.531,11.58,12.144,20.553,25.019,20.553
			c12.874,0,23.487-8.973,25.021-20.553l0.045-18.143l2.91,16.844c3.455,11.158,15.424,18.222,28.115,16.059
			c12.691-2.161,21.646-12.785,21.213-24.463l-6.646-39.599C282.594,238.813,294.232,214.95,294.232,188.546z"/>
		<g>
			
				<ellipse transform="matrix(-0.4415 0.8972 -0.8972 -0.4415 466.7856 162.6088)" cx="182.788" cy="226.571" rx="8.354" ry="5.751"/>
			<ellipse transform="matrix(-0.4416 -0.8972 0.8972 -0.4416 88.5167 508.2399)" cx="202.407" cy="226.576" rx="8.355" ry="5.75"/>
		</g>
	</g>
	<circle cx="145.889" cy="180.792" r="28.906"/>
	<circle cx="238.494" cy="180.792" r="28.906"/>
	<g>
		<polygon fill="#603913" points="154.389,264.16 154.395,264.162 154.393,264.154 		"/>
		<polygon fill="#603913" points="231.886,264.162 231.89,264.16 231.888,264.154 		"/>
		<path fill="#603913" d="M283.222,205.68l0.002-0.003L283.222,205.68c-0.021,0.012-7.947,5.061-26.313,10.012
			c-14.412,3.891-35.26,14.754-63.771,16.045c-28.511-1.291-49.355-12.157-63.769-16.045c-18.365-4.953-26.294-10-26.313-10.012
			l-0.002-0.003l0.001,0.003c-7.359,3.342-12.521,11.111-12.521,20.17c0,12.104,9.221,21.918,20.595,21.918
			c2.414,0,4.719-0.468,6.866-1.283c-0.022,0.429-0.063,0.853-0.063,1.283c0,12.104,9.222,21.92,20.597,21.92
			c5.558,0,12.15-1.717,15.854-5.524c-0.128-0.054-0.254-0.104,0.005-0.005c0.259,0.107,0.132,0.061,0.002,0.007
			c1.604,10.401,10.067,18.353,20.298,18.353c8.104,0,15.087-4.998,18.448-12.24c3.359,7.242,10.345,12.24,18.447,12.24
			c10.229,0,18.692-7.947,20.297-18.353c-0.129,0.054-0.256,0.104,0.002-0.007c0.259-0.104,0.134-0.049,0.005,0.005
			c3.704,3.81,10.301,5.524,15.856,5.524c11.375,0,20.596-9.813,20.596-21.92c0-0.434-0.036-0.854-0.061-1.283
			c2.146,0.815,4.449,1.283,6.863,1.283c11.375,0,20.598-9.813,20.598-21.918C295.746,216.791,290.584,209.021,283.222,205.68z"/>
	</g>
	<path fill="#ED1C24" d="M294.172,131.46c-12.703-28.118-42.155-70.731-101.012-70.916c-58.855,0.185-88.308,42.798-101.013,70.916
		c-4.188,9.274-8.25,30.602,1.431,41.227c0,0,43.169-34.136,99.583-35.641c56.414,1.505,99.584,35.641,99.584,35.641
		C302.422,162.062,298.362,140.734,294.172,131.46z M193.16,117.075c-27.499-0.555-47.271,8.717-47.271,8.717
		c16.029-28.523,34.01-37.883,47.271-37.605c13.26-0.278,31.238,9.082,47.271,37.605C240.429,125.792,220.658,116.52,193.16,117.075
		z"/>
	<path fill="#FFFFFF" d="M193.16,88.187c-13.262-0.278-31.24,9.082-47.271,37.605c0,0,19.771-9.271,47.271-8.717
		c27.498-0.555,47.271,8.717,47.271,8.717C224.4,97.269,206.42,87.909,193.16,88.187z"/>
	<text transform="matrix(1 0 0 1 178.3982 114.1592)" fill="#ED1C24" font-family="'MyriadPro-Bold'" font-size="33">M</text>
</g>
</svg>
