<?xml version="1.0" encoding="utf-8"?>
<!-- Generator: Adobe Illustrator 16.0.0, SVG Export Plug-In . SVG Version: 6.00 Build 0)  -->
<!DOCTYPE svg PUBLIC "-//W3C//DTD SVG 1.1//EN" "http://www.w3.org/Graphics/SVG/1.1/DTD/svg11.dtd">
<svg version="1.1" id="Layer_1" xmlns="http://www.w3.org/2000/svg" xmlns:xlink="http://www.w3.org/1999/xlink" x="0px" y="0px"
	 width="386.32px" height="386.324px" viewBox="0 0 386.32 386.324" enable-background="new 0 0 386.32 386.324"
	 xml:space="preserve">
<g>
	<g>
		<path fill="#FFFFFF" d="M294.232,188.546c0-52.063-45.236-94.271-101.042-94.271c-55.804,0-101.042,42.207-101.042,94.271
			c0,26.404,11.642,50.269,30.389,67.381l-6.646,39.599c-0.438,11.679,8.521,22.303,21.213,24.464
			c12.69,2.163,24.659-4.897,28.112-16.06l2.912-16.844l0.045,18.143c1.531,11.58,12.145,20.554,25.02,20.554
			c12.874,0,23.487-8.974,25.021-20.554l0.045-18.143l2.91,16.844c3.455,11.158,15.424,18.223,28.115,16.06
			c12.691-2.161,21.646-12.785,21.213-24.464l-6.646-39.599C282.594,238.813,294.232,214.95,294.232,188.546z"/>
		<g>
			<ellipse transform="matrix(0.8972 0.4415 -0.4415 0.8972 118.8244 -57.4327)" cx="182.805" cy="226.575" rx="5.751" ry="8.353"/>
			
				<ellipse transform="matrix(-0.8972 0.4416 -0.4416 -0.8972 484.0845 340.5008)" cx="202.418" cy="226.584" rx="5.75" ry="8.355"/>
		</g>
	</g>
	<circle cx="145.889" cy="180.792" r="28.906"/>
	<circle cx="240.496" cy="180.792" r="28.906"/>
	<path fill="#0059FF" d="M193.826,80.67C135.131,81.029,87.66,127.981,87.66,185.856c0,25.384,12.217,50.354,31,66.806
		c-1.242-3.118-5.642-20.63-6.188-23.932c-0.014-0.047-0.028-0.088-0.041-0.135c-4.795-18.169-5.076-36.979-3.74-49.364
		c0.796-20.062,20.364-38.125,44.399-38.125c18.24,0,33.892,18.266,40.735,31.493c6.846-13.227,22.495-31.493,40.735-31.493
		c24.037,0,43.604,18.063,44.4,38.125c1.336,12.384,1.056,31.195-3.74,49.364c-0.014,0.047-0.027,0.088-0.04,0.135
		c-0.547,3.302-6.4,20.813-7.644,23.932c18.782-16.452,32.454-41.422,32.454-66.806C299.993,127.981,252.521,81.029,193.826,80.67z"
		/>
	<path fill="#00D9FF" d="M212.35,124.896c0,8.243-7.089,14.925-15.833,14.925h-6.717c-8.743,0-15.832-6.682-15.832-14.925v-6.331
		c0-8.243,7.089-14.925,15.832-14.925h6.717c8.744,0,15.833,6.682,15.833,14.925V124.896z"/>
	<path fill="#00D9FF" d="M212.35,88.18c0,5.832-7.091,10.56-15.833,10.56h-6.717c-8.743,0-15.832-4.728-15.832-10.56V83.7
		c0-5.832,7.089-10.56,15.832-10.56h6.717c8.742,0,15.833,4.728,15.833,10.56V88.18z"/>
	<g>
		<path fill="#00D9FF" d="M91.319,160.041l-6.452,7.475c-0.667,0-1.207,8.162-1.207,18.23c0,10.068,0.54,18.23,1.207,18.23
			l6.46,7.715c1.079,0,1.176-5.649,1.176-21.941C92.503,173.457,92.398,160.041,91.319,160.041z"/>
	</g>
	<g>
		<path fill="#00D9FF" d="M296.177,160.041l6.451,7.475c0.667,0,1.207,8.162,1.207,18.23c0,10.068-0.54,18.23-1.207,18.23
			l-6.459,7.715c-1.08,0-1.177-5.649-1.177-21.941C294.993,173.457,295.097,160.041,296.177,160.041z"/>
	</g>
</g>
</svg>
