<?xml version="1.0" encoding="utf-8"?>
<!-- Generator: Adobe Illustrator 16.0.0, SVG Export Plug-In . SVG Version: 6.00 Build 0)  -->
<!DOCTYPE svg PUBLIC "-//W3C//DTD SVG 1.1//EN" "http://www.w3.org/Graphics/SVG/1.1/DTD/svg11.dtd">
<svg version="1.1" id="Layer_1" xmlns="http://www.w3.org/2000/svg" xmlns:xlink="http://www.w3.org/1999/xlink" x="0px" y="0px"
	 width="386.32px" height="386.324px" viewBox="0 0 386.32 386.324" enable-background="new 0 0 386.32 386.324"
	 xml:space="preserve">
<g>
	<g>
		<path fill="#6D6E71" d="M152.871,134.829c0,0-74.916,158.19-130.021,166.021l31.389-1.8l-7.104,19.645
			c0,0,123.324-115.617,118.965-162.799"/>
		<path fill="#6D6E71" d="M125.238,121.269c0,0-4.018,174.986-51.158,204.576l27.938-14.424l1.51,20.832
			c0,0,65.563-155.811,42.369-197.13"/>
		<g>
			<path fill="#FFFFFF" d="M296.613,180.823c0-52.064-45.238-94.271-101.041-94.271c-55.805,0-101.043,42.207-101.043,94.271
				c0,26.401,11.639,50.266,30.387,67.381l-6.646,39.598c-0.438,11.675,8.52,22.299,21.213,24.461
				c12.689,2.162,24.66-4.896,28.115-16.059l2.908-16.843l0.047,18.142c1.529,11.582,12.145,20.553,25.02,20.553
				s23.486-8.971,25.018-20.553l0.047-18.142l2.91,16.843c3.455,11.16,15.424,18.221,28.115,16.059s21.646-12.786,21.211-24.461
				l-6.645-39.598C284.974,231.089,296.613,207.227,296.613,180.823z"/>
			<g>
				
					<ellipse transform="matrix(-0.8972 -0.4416 0.4416 -0.8972 254.6609 496.972)" cx="185.174" cy="218.846" rx="5.749" ry="8.357"/>
				<ellipse transform="matrix(0.8972 -0.4416 0.4416 0.8972 -75.5957 112.9309)" cx="204.79" cy="218.854" rx="5.75" ry="8.357"/>
			</g>
		</g>
		<g>
			<path d="M119.365,173.069c0,15.963,12.941,28.906,28.906,28.906s28.904-12.941,28.904-28.906c0-0.039-0.004-0.078-0.004-0.117
				h-57.807C119.367,172.991,119.365,173.03,119.365,173.069z"/>
			<path d="M211.969,173.069c0,15.963,12.941,28.906,28.906,28.906s28.906-12.941,28.906-28.906c0-0.039-0.002-0.078-0.002-0.117
				h-57.807C211.972,172.991,211.969,173.03,211.969,173.069z"/>
		</g>
	</g>
	<path fill="#6D6E71" d="M279.84,128.8L279.84,128.8c-6.398-9.004-14.406-16.926-23.646-23.402
		c-62.486,18.83-109.609,5.45-123.662,1.757c-9.326,6.957-17.305,15.419-23.506,24.998l0,0
		C207.699,162.001,279.84,128.8,279.84,128.8z"/>
</g>
</svg>
