<?xml version="1.0" encoding="utf-8"?>
<!-- Generator: Adobe Illustrator 16.0.0, SVG Export Plug-In . SVG Version: 6.00 Build 0)  -->
<!DOCTYPE svg PUBLIC "-//W3C//DTD SVG 1.1//EN" "http://www.w3.org/Graphics/SVG/1.1/DTD/svg11.dtd">
<svg version="1.1" id="Layer_1" xmlns="http://www.w3.org/2000/svg" xmlns:xlink="http://www.w3.org/1999/xlink" x="0px" y="0px"
	 width="386.32px" height="386.324px" viewBox="0 0 386.32 386.324" enable-background="new 0 0 386.32 386.324"
	 xml:space="preserve">
<rect x="-7.197" y="-8.499" fill="#939598" width="406.476" height="420.544"/>
<g>
	<path fill="#FFFFFF" d="M294.202,171.681c0-52.063-45.236-94.271-101.042-94.271c-55.804,0-101.042,42.207-101.042,94.271
		c0,26.404,11.642,50.269,30.389,67.381l-6.646,39.599c-0.437,11.678,8.521,22.302,21.213,24.463
		c12.691,2.163,24.659-4.897,28.113-16.059l2.912-16.844l0.045,18.143c1.531,11.58,12.144,20.553,25.019,20.553
		c12.874,0,23.487-8.973,25.021-20.553l0.045-18.143l2.91,16.844c3.455,11.158,15.424,18.222,28.115,16.059
		c12.691-2.161,21.646-12.785,21.213-24.463l-6.646-39.599C282.563,221.947,294.202,198.085,294.202,171.681z"/>
	<g>
		
			<ellipse transform="matrix(-0.4415 0.8972 -0.8972 -0.4415 451.6099 138.3239)" cx="182.758" cy="209.706" rx="8.354" ry="5.751"/>
		<ellipse transform="matrix(-0.4416 -0.8972 0.8972 -0.4416 103.6044 483.8991)" cx="202.377" cy="209.711" rx="8.355" ry="5.75"/>
	</g>
</g>
<circle cx="145.859" cy="163.927" r="28.906"/>
<circle cx="238.464" cy="163.927" r="28.906"/>
</svg>
