<?xml version="1.0" encoding="utf-8"?>
<!-- Generator: Adobe Illustrator 16.0.0, SVG Export Plug-In . SVG Version: 6.00 Build 0)  -->
<!DOCTYPE svg PUBLIC "-//W3C//DTD SVG 1.1//EN" "http://www.w3.org/Graphics/SVG/1.1/DTD/svg11.dtd">
<svg version="1.1" id="Layer_1" xmlns="http://www.w3.org/2000/svg" xmlns:xlink="http://www.w3.org/1999/xlink" x="0px" y="0px"
	 width="386.32px" height="386.324px" viewBox="0 0 386.32 386.324" enable-background="new 0 0 386.32 386.324"
	 xml:space="preserve">
<g>
	<path fill="#FFFFFF" d="M294.202,171.681c0-52.063-45.236-94.271-101.042-94.271c-55.804,0-101.042,42.207-101.042,94.271
		c0,26.404,11.642,50.269,30.389,67.381l-6.646,39.599c-0.438,11.678,8.521,22.302,21.213,24.463
		c12.691,2.163,24.659-4.897,28.113-16.06l2.912-16.844l0.045,18.144c1.53,11.579,12.144,20.553,25.019,20.553
		c12.874,0,23.487-8.974,25.021-20.553l0.045-18.144l2.91,16.844c3.455,11.158,15.424,18.223,28.114,16.06
		c12.691-2.161,21.646-12.785,21.213-24.463l-6.646-39.599C282.563,221.947,294.202,198.085,294.202,171.681z"/>
	<g>
		<ellipse transform="matrix(0.8972 0.4415 -0.4415 0.8972 111.3742 -59.1519)" cx="182.774" cy="209.709" rx="5.751" ry="8.354"/>
		<ellipse transform="matrix(-0.8972 0.4416 -0.4416 -0.8972 476.5873 308.4951)" cx="202.387" cy="209.718" rx="5.75" ry="8.354"/>
	</g>
</g>
<circle cx="145.859" cy="163.927" r="28.906"/>
<circle cx="238.464" cy="163.927" r="28.906"/>
</svg>
