<?xml version="1.0" encoding="utf-8"?>
<!-- Generator: Adobe Illustrator 16.0.3, SVG Export Plug-In . SVG Version: 6.00 Build 0)  -->
<!DOCTYPE svg PUBLIC "-//W3C//DTD SVG 1.1//EN" "http://www.w3.org/Graphics/SVG/1.1/DTD/svg11.dtd">
<svg version="1.1" id="Layer_1" xmlns="http://www.w3.org/2000/svg" xmlns:xlink="http://www.w3.org/1999/xlink" x="0px" y="0px"
	 width="182.5px" height="64.5px" viewBox="0 0 182.5 64.5" enable-background="new 0 0 182.5 64.5" xml:space="preserve">
<g>
	<path d="M17.87,50.338c1.967,0,3.359-0.191,4.176-0.576c0.816-0.384,1.224-1.127,1.224-2.231c0-0.864-0.529-1.62-1.584-2.269
		c-1.057-0.647-2.664-1.379-4.824-2.195c-1.681-0.624-3.204-1.271-4.572-1.944c-1.368-0.672-2.532-1.477-3.492-2.412
		c-0.96-0.936-1.704-2.052-2.232-3.348c-0.529-1.296-0.792-2.855-0.792-4.681c0-3.552,1.32-6.359,3.96-8.424
		c2.639-2.063,6.264-3.096,10.872-3.096c2.304,0,4.511,0.205,6.624,0.612c2.112,0.408,3.792,0.853,5.04,1.332l-1.872,8.352
		c-1.249-0.432-2.604-0.815-4.068-1.152c-1.465-0.335-3.108-0.504-4.932-0.504c-3.36,0-5.04,0.937-5.04,2.809
		c0,0.432,0.072,0.816,0.216,1.151c0.144,0.337,0.432,0.661,0.864,0.973c0.432,0.313,1.019,0.649,1.764,1.012
		c0.744,0.364,1.692,0.763,2.844,1.197c2.352,0.872,4.295,1.731,5.832,2.577c1.536,0.848,2.748,1.762,3.636,2.743
		c0.888,0.982,1.512,2.072,1.872,3.27c0.36,1.196,0.54,2.586,0.54,4.166c0,3.735-1.404,6.562-4.212,8.478
		c-2.808,1.915-6.78,2.873-11.916,2.873c-3.36,0-6.156-0.288-8.388-0.864c-2.232-0.575-3.78-1.055-4.644-1.439l1.8-8.712
		c1.824,0.72,3.696,1.284,5.616,1.691C14.101,50.135,15.998,50.338,17.87,50.338z"/>
	<path d="M52.645,33.771c1.055-1.146,2.146-2.338,3.272-3.579c1.126-1.241,2.217-2.47,3.273-3.687
		c1.055-1.217,2.049-2.374,2.984-3.472c0.935-1.097,1.738-2.051,2.41-2.863h12.756c-2.544,2.923-5.029,5.713-7.452,8.37
		c-2.425,2.658-5.076,5.4-7.956,8.226c1.44,1.299,2.927,2.85,4.464,4.652c1.536,1.804,3.024,3.666,4.464,5.59s2.76,3.847,3.96,5.77
		c1.199,1.924,2.208,3.679,3.024,5.265H65.509c-0.767-1.251-1.641-2.634-2.624-4.15c-0.982-1.515-2.024-3.03-3.126-4.546
		s-2.263-2.971-3.485-4.366c-1.222-1.395-2.433-2.574-3.629-3.537v16.6H41.917V3.898L52.645,2.17V33.771z"/>
	<path d="M79.213,39.394c0-3.358,0.515-6.3,1.548-8.819c1.032-2.521,2.387-4.619,4.068-6.3c1.68-1.68,3.611-2.952,5.796-3.816
		c2.184-0.864,4.428-1.296,6.732-1.296c5.375,0,9.624,1.645,12.744,4.932c3.12,3.289,4.68,8.125,4.68,14.508
		c0,0.625-0.025,1.309-0.072,2.053c-0.048,0.744-0.097,1.403-0.144,1.979H90.229c0.24,2.209,1.271,3.96,3.096,5.256
		c1.824,1.296,4.271,1.944,7.344,1.944c1.968,0,3.899-0.18,5.796-0.54c1.896-0.36,3.443-0.803,4.644-1.332l1.44,8.712
		c-0.576,0.288-1.345,0.576-2.304,0.864c-0.961,0.288-2.028,0.54-3.204,0.756c-1.177,0.216-2.437,0.396-3.78,0.54
		c-1.344,0.144-2.689,0.216-4.032,0.216c-3.409,0-6.372-0.504-8.892-1.512c-2.52-1.008-4.608-2.388-6.264-4.14
		c-1.656-1.752-2.88-3.828-3.672-6.229C79.609,44.771,79.213,42.179,79.213,39.394z M104.413,35.29
		c-0.048-0.911-0.205-1.8-0.468-2.664c-0.265-0.864-0.673-1.631-1.224-2.304c-0.552-0.672-1.249-1.225-2.088-1.656
		c-0.84-0.432-1.885-0.648-3.132-0.648c-1.2,0-2.232,0.205-3.096,0.612c-0.864,0.408-1.584,0.948-2.16,1.62
		c-0.576,0.673-1.021,1.452-1.332,2.34c-0.313,0.889-0.54,1.789-0.684,2.7H104.413z"/>
	<path d="M138.181,58.762c-3.121-0.048-5.652-0.385-7.596-1.008s-3.481-1.5-4.608-2.628c-1.128-1.127-1.897-2.495-2.304-4.104
		c-0.408-1.608-0.612-3.421-0.612-5.437V3.898l10.728-1.729v41.256c0,0.961,0.072,1.825,0.216,2.592
		c0.144,0.769,0.42,1.417,0.828,1.944c0.407,0.529,0.996,0.961,1.764,1.296c0.767,0.337,1.8,0.553,3.096,0.648L138.181,58.762z"/>
	<path d="M160.5,19.162c3.168,0,5.807,0.36,7.92,1.08c2.112,0.72,3.804,1.753,5.076,3.096c1.271,1.345,2.171,2.977,2.7,4.896
		c0.527,1.92,0.792,4.057,0.792,6.407v22.32c-1.537,0.337-3.672,0.732-6.408,1.188c-2.736,0.455-6.048,0.684-9.936,0.684
		c-2.448,0-4.669-0.216-6.66-0.648c-1.992-0.432-3.708-1.14-5.148-2.124c-1.44-0.982-2.544-2.268-3.312-3.852
		c-0.768-1.584-1.152-3.528-1.152-5.832c0-2.207,0.443-4.079,1.332-5.616c0.888-1.535,2.076-2.76,3.564-3.672
		c1.487-0.911,3.191-1.571,5.112-1.979c1.919-0.407,3.912-0.612,5.976-0.612c1.392,0,2.628,0.061,3.708,0.18
		c1.08,0.121,1.956,0.277,2.628,0.468v-1.008c0-1.823-0.552-3.287-1.656-4.392c-1.105-1.104-3.024-1.656-5.76-1.656
		c-1.825,0-3.625,0.133-5.4,0.396c-1.776,0.264-3.312,0.637-4.608,1.115l-1.368-8.64c0.624-0.191,1.404-0.396,2.34-0.612
		c0.936-0.216,1.955-0.407,3.06-0.575c1.104-0.168,2.268-0.313,3.492-0.433C158.016,19.223,159.251,19.162,160.5,19.162z
		 M161.364,50.554c1.055,0,2.063-0.023,3.024-0.071c0.959-0.048,1.728-0.12,2.304-0.217V42.13c-0.432-0.096-1.08-0.191-1.944-0.288
		c-0.864-0.096-1.656-0.144-2.376-0.144c-1.008,0-1.957,0.061-2.844,0.18c-0.889,0.12-1.668,0.349-2.34,0.684
		c-0.673,0.337-1.2,0.792-1.584,1.368c-0.385,0.576-0.576,1.296-0.576,2.16c0,1.681,0.564,2.844,1.692,3.492
		C157.847,50.23,159.396,50.554,161.364,50.554z"/>
</g>
</svg>
