<?xml version="1.0" encoding="utf-8"?>
<!-- Generator: Adobe Illustrator 16.0.3, SVG Export Plug-In . SVG Version: 6.00 Build 0)  -->
<!DOCTYPE svg PUBLIC "-//W3C//DTD SVG 1.1//EN" "http://www.w3.org/Graphics/SVG/1.1/DTD/svg11.dtd">
<svg version="1.1" id="Layer_1" xmlns="http://www.w3.org/2000/svg" xmlns:xlink="http://www.w3.org/1999/xlink" x="0px" y="0px"
	 width="1515.036px" height="484.848px" viewBox="0 0 1515.036 484.848" enable-background="new 0 0 1515.036 484.848"
	 xml:space="preserve">
<g id="Layer_4">
	<rect x="-0.428" fill="#939598" width="1515.464" height="484.848"/>
</g>
<g>
	<path fill="#FFFFFF" d="M519.043,305.389c0-52.063-45.238-94.271-101.042-94.271s-101.042,42.207-101.042,94.271
		c0,26.403,11.639,50.268,30.386,67.38l-6.646,39.599c-0.436,11.675,8.52,22.299,21.212,24.461
		c12.692,2.163,24.66-4.897,28.115-16.059l2.912-16.842l0.044,18.142c1.531,11.582,12.144,20.552,25.019,20.552
		s23.487-8.97,25.02-20.552l0.044-18.142l2.911,16.842c3.455,11.16,15.424,18.222,28.115,16.059
		c12.692-2.162,21.647-12.786,21.212-24.461l-6.646-39.599C507.404,355.656,519.043,331.792,519.043,305.389z"/>
	<g>
		<ellipse transform="matrix(0.4416 -0.8972 0.8972 0.4416 -80.5003 557.4624)" cx="407.613" cy="343.405" rx="8.356" ry="5.75"/>
		<ellipse transform="matrix(0.4416 0.8972 -0.8972 0.4416 546.6796 -191.5467)" cx="427.223" cy="343.414" rx="8.356" ry="5.75"/>
	</g>
</g>
<path fill="#FFFFFF" d="M1391.03,310.684c0-52.063-45.238-94.271-101.043-94.271c-55.803,0-101.041,42.207-101.041,94.271
	c0,26.403,11.639,50.268,30.385,67.381l-6.645,39.598c-0.438,11.675,8.52,22.299,21.211,24.461
	c12.691,2.163,24.66-4.897,28.115-16.058l2.912-16.843l0.043,18.142c1.531,11.582,12.145,20.552,25.02,20.552
	s23.488-8.97,25.02-20.552l0.043-18.142l2.912,16.843c3.455,11.159,15.424,18.221,28.115,16.058
	c12.693-2.162,21.646-12.786,21.213-24.461l-6.646-39.598C1379.389,360.951,1391.03,337.087,1391.03,310.684z"/>
<g>
	<ellipse transform="matrix(0.4417 -0.8972 0.8972 0.4417 401.5928 1342.713)" cx="1279.589" cy="348.7" rx="8.356" ry="5.75"/>
	<ellipse transform="matrix(0.4416 0.8972 -0.8972 0.4416 1038.2877 -970.9452)" cx="1299.22" cy="348.708" rx="8.356" ry="5.75"/>
</g>
<g>
	<path fill="#FFFFFF" d="M252.043,305.389c0-52.063-45.238-94.271-101.042-94.271c-55.804,0-101.042,42.207-101.042,94.271
		c0,26.403,11.639,50.268,30.386,67.38l-6.646,39.599c-0.436,11.675,8.52,22.299,21.212,24.461
		c12.692,2.163,24.66-4.897,28.115-16.059l2.912-16.842l0.044,18.142c1.531,11.582,12.144,20.552,25.019,20.552
		s23.487-8.97,25.019-20.552l0.044-18.142l2.912,16.842c3.455,11.16,15.423,18.222,28.115,16.059
		c12.692-2.162,21.647-12.786,21.212-24.461l-6.646-39.599C240.404,355.656,252.043,331.792,252.043,305.389z"/>
	<g>
		<ellipse transform="matrix(0.4416 -0.8972 0.8972 0.4416 -229.5866 317.9118)" cx="140.616" cy="343.405" rx="8.356" ry="5.75"/>
		<ellipse transform="matrix(0.4416 0.8972 -0.8972 0.4416 397.5836 48.0127)" cx="160.22" cy="343.414" rx="8.356" ry="5.75"/>
	</g>
	<path d="M225.211,302.294c0,0-0.11-0.31-0.316-0.887c-0.096-0.29-0.214-0.647-0.353-1.067c-0.126-0.431-0.391-0.848-0.598-1.333
		c-0.228-0.477-0.439-0.987-0.805-1.528c-0.356-0.535-0.615-1.14-1.095-1.692c-0.452-0.562-0.83-1.188-1.411-1.743
		c-0.261-0.287-0.528-0.581-0.802-0.882c-0.289-0.288-0.617-0.558-0.928-0.841c-1.22-1.159-2.751-2.182-4.367-3.17
		c-0.873-0.422-1.667-0.967-2.617-1.328c-0.463-0.194-0.911-0.417-1.381-0.611c-0.479-0.176-0.963-0.354-1.45-0.533
		c-0.475-0.201-0.991-0.32-1.495-0.473c-0.507-0.145-1.003-0.324-1.523-0.448c-1.055-0.202-2.086-0.503-3.174-0.642
		c-2.142-0.396-4.371-0.496-6.589-0.547c-0.841,0.059-2.574,0.016-3.446,0.16c-0.51,0.061-1.02,0.115-1.533,0.146
		c-0.522,0.057-1.074,0.168-1.608,0.247c-1.088,0.138-2.117,0.446-3.173,0.646c-0.52,0.123-1.016,0.303-1.523,0.446
		c-0.502,0.157-1.019,0.275-1.494,0.476c-0.487,0.179-0.971,0.355-1.45,0.531c-0.471,0.192-0.916,0.422-1.38,0.612
		c-0.948,0.362-1.745,0.903-2.615,1.328c-1.616,0.985-3.146,2.009-4.366,3.167c-0.311,0.284-0.64,0.553-0.928,0.84
		c-0.269,0.299-0.529,0.598-0.802,0.881c-0.581,0.553-0.961,1.18-1.412,1.741c-0.481,0.554-0.739,1.158-1.097,1.69
		c-0.364,0.535-0.582,1.07-0.812,1.557c-0.209,0.49-0.473,0.929-0.597,1.332c-0.139,0.408-0.256,0.755-0.352,1.037
		c-0.208,0.581-0.318,0.89-0.318,0.89s-0.081-0.312-0.199-0.917c-0.108-0.605-0.339-1.52-0.307-2.699
		c-0.022-0.597-0.032-1.267,0.086-1.977c0.1-0.713,0.163-1.525,0.418-2.328c0.228-0.814,0.456-1.716,0.863-2.582
		c0.184-0.445,0.393-0.896,0.604-1.363c0.231-0.451,0.505-0.889,0.771-1.353c1.068-1.858,2.583-3.62,4.355-5.319
		c0.925-0.785,1.874-1.64,2.945-2.335c0.528-0.362,1.058-0.749,1.623-1.077c0.573-0.314,1.15-0.633,1.733-0.955
		c2.363-1.215,4.948-2.226,7.666-2.82c0.685-0.149,1.348-0.322,2.06-0.448c0.728-0.114,1.462-0.205,2.198-0.292
		c0.358-0.039,0.758-0.098,1.083-0.118l0.942-0.047l2.063-0.094c2.812,0.101,5.642,0.289,8.344,1.005
		c2.715,0.604,5.303,1.604,7.663,2.826c0.583,0.32,1.16,0.639,1.732,0.953c0.565,0.328,1.092,0.719,1.622,1.078
		c1.07,0.695,2.021,1.547,2.943,2.334c1.771,1.699,3.287,3.459,4.354,5.316c0.266,0.463,0.541,0.898,0.772,1.35
		c0.212,0.468,0.419,0.918,0.604,1.363c0.408,0.865,0.638,1.766,0.864,2.58c0.257,0.803,0.318,1.614,0.42,2.327
		c0.118,0.701,0.114,1.396,0.093,2.003c0.036,1.219-0.202,2.061-0.309,2.667C225.279,301.975,225.211,302.294,225.211,302.294z"/>
	<path d="M132.607,302.294c0,0-0.11-0.31-0.316-0.887c-0.096-0.29-0.214-0.647-0.353-1.067c-0.126-0.431-0.391-0.848-0.598-1.333
		c-0.228-0.477-0.439-0.987-0.805-1.528c-0.356-0.535-0.615-1.14-1.095-1.692c-0.452-0.562-0.83-1.188-1.411-1.743
		c-0.261-0.287-0.528-0.581-0.802-0.882c-0.288-0.288-0.617-0.558-0.928-0.841c-1.22-1.159-2.751-2.182-4.367-3.17
		c-0.873-0.422-1.667-0.967-2.617-1.328c-0.463-0.194-0.911-0.417-1.381-0.611c-0.479-0.176-0.963-0.354-1.45-0.533
		c-0.474-0.201-0.991-0.32-1.495-0.473c-0.507-0.145-1.003-0.324-1.523-0.448c-1.055-0.202-2.086-0.503-3.174-0.642
		c-2.142-0.396-4.371-0.496-6.589-0.547c-0.841,0.059-2.574,0.016-3.446,0.16c-0.511,0.061-1.021,0.115-1.534,0.146
		c-0.523,0.057-1.074,0.168-1.609,0.247c-1.087,0.138-2.116,0.446-3.172,0.646c-0.52,0.123-1.016,0.303-1.523,0.446
		c-0.502,0.157-1.02,0.275-1.494,0.476c-0.487,0.179-0.971,0.355-1.45,0.531c-0.472,0.192-0.916,0.422-1.38,0.612
		c-0.949,0.362-1.746,0.903-2.616,1.328c-1.616,0.985-3.146,2.009-4.366,3.167c-0.311,0.284-0.64,0.553-0.928,0.84
		c-0.269,0.299-0.529,0.598-0.802,0.881c-0.581,0.553-0.961,1.18-1.412,1.741c-0.481,0.554-0.739,1.158-1.097,1.69
		c-0.364,0.535-0.582,1.07-0.812,1.557c-0.209,0.49-0.473,0.929-0.597,1.332c-0.139,0.408-0.256,0.755-0.352,1.037
		c-0.208,0.581-0.318,0.89-0.318,0.89s-0.081-0.312-0.199-0.917c-0.109-0.605-0.339-1.52-0.307-2.699
		c-0.022-0.597-0.032-1.267,0.086-1.977c0.1-0.713,0.163-1.525,0.418-2.328c0.228-0.814,0.456-1.716,0.864-2.582
		c0.184-0.445,0.393-0.896,0.604-1.363c0.231-0.451,0.505-0.889,0.771-1.353c1.068-1.858,2.583-3.62,4.355-5.319
		c0.925-0.785,1.874-1.64,2.945-2.335c0.528-0.362,1.059-0.749,1.623-1.077c0.572-0.314,1.15-0.633,1.733-0.955
		c2.363-1.215,4.948-2.226,7.667-2.82c0.684-0.149,1.348-0.322,2.059-0.448c0.727-0.114,1.462-0.205,2.198-0.292
		c0.358-0.039,0.758-0.098,1.083-0.118l0.942-0.047l2.063-0.094c2.812,0.101,5.642,0.289,8.344,1.005
		c2.715,0.604,5.303,1.604,7.663,2.826c0.583,0.32,1.16,0.639,1.732,0.953c0.565,0.328,1.092,0.719,1.622,1.078
		c1.07,0.695,2.021,1.547,2.943,2.334c1.771,1.699,3.286,3.459,4.354,5.316c0.266,0.463,0.541,0.898,0.772,1.35
		c0.212,0.468,0.419,0.918,0.604,1.363c0.408,0.865,0.638,1.766,0.864,2.58c0.257,0.803,0.318,1.614,0.42,2.327
		c0.118,0.701,0.114,1.396,0.093,2.003c0.036,1.219-0.202,2.061-0.309,2.667C132.676,301.975,132.607,302.294,132.607,302.294z"/>
</g>
<path d="M1220.586,284.307c-4.244,5.031-6.805,11.526-6.805,18.623c0,15.964,12.941,28.906,28.906,28.906
	c13.113,0,24.182-8.737,27.719-20.705L1220.586,284.307z"/>
<path d="M1357.391,284.635c4.244,5.031,6.807,11.526,6.807,18.623c0,15.964-12.943,28.906-28.906,28.906
	c-13.115,0-24.184-8.737-27.719-20.705L1357.391,284.635z"/>
<g>
	<path d="M226.72,234.811V85.91c0-4.372-32.615-7.917-72.846-7.917c-40.232,0-72.847,3.544-72.847,7.917v148.9
		c-32.164,2.339-53.153,6.186-53.153,10.534c0,7.129,56.412,12.909,126,12.909s126-5.78,126-12.909
		C279.874,240.996,258.885,237.149,226.72,234.811z"/>
	<path fill="#FFFFFF" d="M81.027,215.895c0,0,48.1,10.016,145.693,0v18.916c0,0-61.593,13.1-145.693,0V215.895z"/>
</g>
<path fill="#FFFFFF" d="M846.793,100.91"/>
<path fill="#662D91" d="M1458.741,272.247c-5.566-14.292-43.682-15.909-69.141-15.34c-0.275-6.384-3.191-12.62-8.568-16.931
	s-12.1-5.803-18.391-4.685c-4.977-24.975-14.838-61.827-29.998-64.154c-23.059-3.538-69.408,52.247-58.375,72.802
	c7.229,13.468,44.58,15.363,69.479,15.068c0.313,6.333,3.227,12.51,8.563,16.788c5.338,4.278,11.998,5.781,18.248,4.709
	c5.125,24.368,15.094,60.414,29.809,64.543C1422.827,351.352,1467.206,293.986,1458.741,272.247z"/>
<g>
	<polygon points="426.651,267.742 426.651,294.596 409.096,294.596 409.096,292.873 409.096,267.742 332.012,267.742 332.012,327.6 
		409.096,327.6 409.096,298.469 409.096,298.133 426.651,298.133 426.651,327.6 503.734,327.6 503.734,298.469 503.734,292.873 
		503.734,267.742 	"/>
	<polyline opacity="0.3" fill="#FFFFFF" enable-background="new    " points="332.012,327.6 409.096,267.742 409.096,282.244 
		350.127,327.6 	"/>
	<polyline opacity="0.3" fill="#FFFFFF" enable-background="new    " points="426.651,327.6 503.734,267.742 503.734,282.244 
		444.766,327.6 	"/>
</g>
<g>
	<path fill="#FFFFFF" d="M1099.03,311.012c0-52.063-45.238-94.271-101.043-94.271c-55.803,0-101.041,42.207-101.041,94.271
		c0,26.403,11.639,50.268,30.385,67.38l-6.645,39.599c-0.438,11.675,8.52,22.299,21.211,24.461
		c12.691,2.163,24.66-4.897,28.115-16.059l2.912-16.842l0.043,18.142c1.531,11.582,12.145,20.552,25.02,20.552
		s23.486-8.97,25.02-20.552l0.043-18.142l2.912,16.842c3.455,11.16,15.424,18.222,28.115,16.059
		c12.693-2.162,21.646-12.786,21.213-24.461l-6.646-39.599C1087.389,361.279,1099.03,337.416,1099.03,311.012z"/>
	<g>
		<ellipse transform="matrix(0.4415 -0.8972 0.8972 0.4415 238.3624 1081.02)" cx="987.592" cy="349.027" rx="8.356" ry="5.751"/>
		
			<ellipse transform="matrix(0.4416 0.8972 -0.8972 0.4416 875.5394 -708.7787)" cx="1007.216" cy="349.036" rx="8.356" ry="5.751"/>
	</g>
</g>
<polygon fill="#D7781C" points="1105.737,346.195 1166.469,299.95 1084.208,325.473 996.731,351.702 996.729,351.702 
	996.727,351.702 909.25,325.473 826.987,299.95 887.719,346.195 826.987,358.45 895.987,362.993 830.487,405.95 912.487,387.994 
	996.729,362.012 1080.969,387.994 1162.969,405.95 1097.469,362.993 1166.469,358.45 "/>
<g>
	
		<line fill="none" stroke="#000000" stroke-width="2" stroke-miterlimit="10" x1="974.127" y1="303.258" x2="1027.127" y2="303.258"/>
	<path fill="#343487" d="M974.543,286.938c-2.947-4.297-7.023-7.754-11.801-9.951c-3.67-1.688-7.752-2.635-12.057-2.635
		c-15.965,0-28.906,12.942-28.906,28.906c0,4.665,1.111,9.067,3.074,12.969c2.109,4.192,5.205,7.799,8.988,10.517
		c4.744,3.409,10.557,5.422,16.844,5.422c15.965,0,28.906-12.942,28.906-28.906C979.592,297.201,977.727,291.582,974.543,286.938z"
		/>
	<path fill="#343487" d="M1067.147,286.938c-2.945-4.297-7.023-7.754-11.801-9.951c-3.67-1.688-7.752-2.635-12.057-2.635
		c-15.963,0-28.906,12.942-28.906,28.906c0,4.665,1.113,9.067,3.074,12.969c2.109,4.192,5.207,7.799,8.988,10.517
		c4.744,3.409,10.557,5.422,16.844,5.422c15.965,0,28.906-12.942,28.906-28.906C1072.198,297.201,1070.331,291.582,1067.147,286.938
		z"/>
	<path opacity="0.2" fill="#FFFFFF" enable-background="new    " d="M962.743,276.986l-37.887,39.24
		c2.107,4.192,5.205,7.799,8.986,10.517l40.701-39.806C971.598,282.641,967.522,279.184,962.743,276.986z"/>
	<path opacity="0.2" fill="#FFFFFF" enable-background="new    " d="M1055.346,276.986l-37.887,39.24
		c2.109,4.192,5.205,7.799,8.988,10.517l40.699-39.806C1064.202,282.641,1060.125,279.184,1055.346,276.986z"/>
</g>
<g>
	<path fill="#FFFFFF" d="M807.043,305.389c0-52.063-45.238-94.271-101.042-94.271c-55.804,0-101.042,42.207-101.042,94.271
		c0,26.403,11.639,50.268,30.386,67.38l-6.646,39.599c-0.437,11.675,8.52,22.299,21.212,24.461
		c12.692,2.163,24.66-4.897,28.115-16.059l2.911-16.842l0.045,18.142c1.53,11.582,12.144,20.552,25.019,20.552
		s23.487-8.97,25.019-20.552l0.045-18.142l2.911,16.842c3.455,11.16,15.423,18.222,28.115,16.059
		c12.693-2.162,21.648-12.786,21.213-24.461l-6.646-39.599C795.405,355.656,807.043,331.792,807.043,305.389z"/>
	<ellipse transform="matrix(0.4416 -0.8972 0.8972 0.4416 80.3242 815.8691)" cx="695.609" cy="343.404" rx="8.356" ry="5.75"/>
	<ellipse transform="matrix(0.4416 0.8972 -0.8972 0.4416 707.5019 -449.9471)" cx="715.226" cy="343.414" rx="8.356" ry="5.75"/>
	<circle cx="658.701" cy="297.635" r="28.906"/>
	<circle cx="751.305" cy="297.635" r="28.906"/>
</g>
<g>
	<path fill="#FFFFFF" d="M624.74,203.643l-9.613,15.268l8.887-17.724c-1.136-3.914-2.228-7.991-3.267-12.112l-5.953,6.835
		l5.234-9.731c-0.615-2.508-1.211-5.021-1.783-7.513l-9.215,15.578l6.969-25.761l0,0c-1.197-5.64-2.248-10.939-3.125-15.543
		l-7.915,13.636l7.051-18.247c-1.326-7.188-2.072-11.789-2.072-11.789c-1.426-3.523-3.094-6.062-4.879-7.844l-6.265,5.546
		l4.194-7.257c-7.848-5.183-17.003,2.021-18.356,6.628c0,0-0.989,4.246-1.885,11.047l9.379,10.582l-9.678-8.19
		c-0.563,4.813-1.026,10.653-1.103,17.037c3.193,1.99,9.64,5.977,12.989,7.83l2.074,0.99c-0.204,0-0.975-0.381-2.074-0.99
		l-13.004-5.204c-0.009,9.179,0.826,18.388,3.373,28.306l13.756,8.035l-12.915-4.962c0.544,1.841,1.159,3.665,1.835,5.467
		l9.029,2.023l-8.206,0.055c5.265,12.855,14.198,24.304,28.952,31.076l17.111,6l3.385-11.174
		C633.133,227.748,628.695,216.811,624.74,203.643z"/>
	<g>
		<path fill="#BCBEC0" d="M597.645,129.473c0,0-0.678,7.054-0.658,17.66c0.003,2.65,0.052,5.521,0.165,8.553
			c0.125,3.032,0.25,6.228,0.508,9.525c0.229,3.299,0.575,6.697,0.976,10.141c0.445,3.438,0.936,6.925,1.583,10.38l0.486,2.59
			l0.556,2.569c0.348,1.714,0.789,3.398,1.217,5.07c0.873,3.339,1.841,6.586,2.866,9.696c0.532,1.547,1.056,3.068,1.567,4.556
			c0.564,1.468,1.117,2.904,1.655,4.302c0.597,1.373,1.177,2.709,1.738,4.001c0.615,1.268,1.208,2.494,1.779,3.67
			c0.628,1.147,1.229,2.247,1.802,3.292c0.547,1.066,1.225,1.973,1.761,2.896c0.28,0.455,0.552,0.894,0.813,1.319
			c0.27,0.42,0.564,0.797,0.829,1.176c0.53,0.76,1.019,1.458,1.458,2.088c0.906,1.244,1.727,2.136,2.223,2.803
			c0.516,0.654,0.789,1.003,0.789,1.003l-0.21,0.214c0,0-0.333-0.295-0.956-0.85c-0.614-0.563-1.55-1.368-2.647-2.484
			c-1.044-1.159-2.437-2.49-3.729-4.254c-1.389-1.698-2.771-3.748-4.223-6.026c-0.672-1.171-1.372-2.39-2.097-3.652
			c-0.644-1.305-1.309-2.654-1.991-4.041c-0.635-1.408-1.238-2.876-1.866-4.373c-0.565-1.518-1.12-3.08-1.666-4.671
			c-0.465-1.616-0.986-3.247-1.419-4.919c-0.416-1.677-0.877-3.366-1.21-5.095c-0.358-1.724-0.732-3.458-1.026-5.212l-0.468-2.63
			l-0.396-2.645c-0.546-3.525-0.929-7.068-1.269-10.556c-0.294-3.491-0.535-6.929-0.659-10.26c-0.145-3.329-0.2-6.55-0.185-9.602
			c0.016-3.052,0.089-5.936,0.199-8.596c0.432-10.641,1.41-17.673,1.41-17.673L597.645,129.473z"/>
	</g>
	<path d="M832.208,214.243c-12.447-8.352-26.053,9.481-36.813,10.395c0,0-29.85-57.522-85.339-59.629
		c-1.338-0.096-2.692-0.15-4.055-0.185c-1.362,0.034-2.717,0.088-4.055,0.185c-55.489,2.107-85.339,59.629-85.339,59.629
		c-10.761-0.913-24.366-18.746-36.813-10.395c-13.186,8.847,11.358,46.729,29.193,62.729c0,0,42.296-14.451,97.015-14.316
		c54.717-0.135,97.016,14.316,97.016,14.316C820.85,260.973,845.393,223.09,832.208,214.243z"/>
	<path fill="#FFFFFF" d="M728.531,234.128l-19.605-8.668l-0.367-0.162l-24.393-10.785c0.925-2.021-0.499-5.17-1.731-7.42
		c-1.964-3.583-6.169-5.056-9.394-3.289c-3.213,1.761-4.236,6.074-2.299,9.65c-3.948,0.975-6.45,4.634-5.59,8.195
		c0.862,3.575,4.781,5.694,8.755,4.735c2.493-0.602,5.78-1.669,6.652-3.713l24.394,10.785l0.367,0.162l19.604,8.668
		c-0.925,2.021,0.499,5.17,1.731,7.419c1.964,3.584,6.17,5.057,9.394,3.29c3.213-1.761,4.236-6.074,2.3-9.649
		c3.948-0.975,6.45-4.635,5.591-8.196c-0.863-3.574-4.783-5.694-8.756-4.734C732.691,231.018,729.403,232.084,728.531,234.128z"/>
	<path fill="#FFFFFF" d="M680.559,234.128l19.605-8.668l0.367-0.162l24.393-10.785c-0.925-2.021,0.499-5.17,1.731-7.42
		c1.964-3.583,6.169-5.056,9.394-3.289c3.213,1.761,4.236,6.074,2.299,9.65c3.948,0.975,6.45,4.634,5.591,8.195
		c-0.863,3.575-4.782,5.694-8.756,4.735c-2.492-0.602-5.779-1.669-6.652-3.713l-24.394,10.785l-0.367,0.162l-19.604,8.668
		c0.925,2.021-0.499,5.17-1.731,7.419c-1.964,3.584-6.17,5.057-9.394,3.29c-3.213-1.761-4.236-6.074-2.3-9.649
		c-3.948-0.975-6.45-4.635-5.59-8.196c0.862-3.574,4.782-5.694,8.755-4.734C676.399,231.018,679.688,232.084,680.559,234.128z"/>
	<g>
		<path fill="#FFFFFF" d="M704.545,232.662c-3.021,0-5.601-2.02-6.16-4.758c-0.958,2.15-3.135,3.521-5.634,3.521
			c-0.376,0-0.757-0.033-1.132-0.097c-3.116-0.53-5.383-3.158-5.272-6.111l1.483-8.864c-4.464-4.171-6.919-9.704-6.919-15.611
			c0-12.177,10.602-22.083,23.634-22.083c13.031,0,23.633,9.907,23.633,22.083c0,5.907-2.455,11.44-6.918,15.611l1.478,8.799
			c0.115,3.018-2.151,5.646-5.267,6.176c-0.375,0.064-0.755,0.097-1.131,0.097l0,0c-2.517,0-4.708-1.39-5.643-3.518
			C710.109,230.671,707.546,232.662,704.545,232.662z"/>
		<path d="M704.545,179.159c12.776,0,23.133,9.663,23.133,21.583c0,6.045-2.665,11.508-6.957,15.427l1.522,9.066
			c0.099,2.672-1.951,5.105-4.857,5.6c-0.353,0.06-0.703,0.089-1.047,0.089c-2.495,0-4.695-1.521-5.39-3.766l-0.667-3.855
			l-0.011,4.153c-0.351,2.651-2.779,4.706-5.728,4.706s-5.377-2.055-5.728-4.706l-0.011-4.153l-0.667,3.855
			c-0.694,2.245-2.895,3.766-5.39,3.766c-0.344,0-0.695-0.029-1.047-0.089c-2.906-0.495-4.957-2.928-4.856-5.6l1.521-9.066
			c-4.292-3.918-6.957-9.382-6.957-15.427C681.412,188.822,691.769,179.159,704.545,179.159 M704.545,178.159
			c-13.308,0-24.134,10.131-24.134,22.583c0,5.96,2.438,11.546,6.882,15.791l-1.433,8.537l-0.012,0.063l-0.002,0.064
			c-0.12,3.204,2.326,6.051,5.688,6.624c0.402,0.068,0.811,0.104,1.215,0.104c2.278,0,4.311-1.06,5.506-2.762
			c1.007,2.362,3.469,4,6.288,4s5.281-1.637,6.288-3.999c1.196,1.702,3.229,2.762,5.507,2.762c0.404,0,0.813-0.035,1.215-0.104
			c3.362-0.572,5.808-3.419,5.688-6.623l-0.002-0.064l-0.011-0.064l-1.434-8.537c4.442-4.245,6.881-9.831,6.881-15.791
			C728.679,188.29,717.854,178.159,704.545,178.159L704.545,178.159z"/>
	</g>
	<g>
		<ellipse transform="matrix(0.4418 -0.8971 0.8971 0.4418 204.0892 746.8386)" cx="702.183" cy="209.419" rx="1.913" ry="1.317"/>
		<ellipse transform="matrix(0.4416 0.8972 -0.8972 0.4416 582.4954 -517.0858)" cx="706.657" cy="209.415" rx="1.913" ry="1.317"/>
	</g>
	<circle cx="693.716" cy="198.967" r="6.618"/>
	<circle cx="714.918" cy="198.967" r="6.618"/>
</g>
</svg>
