<?xml version="1.0" encoding="utf-8"?>
<!-- Generator: Adobe Illustrator 16.0.3, SVG Export Plug-In . SVG Version: 6.00 Build 0)  -->
<!DOCTYPE svg PUBLIC "-//W3C//DTD SVG 1.1//EN" "http://www.w3.org/Graphics/SVG/1.1/DTD/svg11.dtd">
<svg version="1.1" id="Layer_1" xmlns="http://www.w3.org/2000/svg" xmlns:xlink="http://www.w3.org/1999/xlink" x="0px" y="0px"
	 width="182.5px" height="64.5px" viewBox="0 0 182.5 64.5" enable-background="new 0 0 182.5 64.5" xml:space="preserve">
<g>
	<path fill="#000000" d="M17.87,50.338c1.967,0,3.359-0.191,4.176-0.576c0.816-0.384,1.224-1.127,1.224-2.229
		c0-0.864-0.529-1.62-1.584-2.271c-1.057-0.646-2.664-1.379-4.824-2.195c-1.681-0.623-3.204-1.271-4.572-1.942
		s-2.532-1.478-3.492-2.412s-1.704-2.052-2.232-3.348c-0.529-1.298-0.792-2.855-0.792-4.681c0-3.552,1.32-6.359,3.96-8.424
		c2.639-2.063,6.264-3.096,10.872-3.096c2.304,0,4.511,0.205,6.624,0.612c2.112,0.408,3.792,0.853,5.04,1.332l-1.872,8.352
		c-1.249-0.432-2.604-0.815-4.068-1.152c-1.465-0.335-3.108-0.504-4.932-0.504c-3.36,0-5.04,0.938-5.04,2.809
		c0,0.432,0.072,0.816,0.216,1.151c0.144,0.337,0.432,0.661,0.864,0.973c0.432,0.313,1.019,0.649,1.764,1.012
		c0.744,0.363,1.692,0.763,2.844,1.195c2.352,0.873,4.295,1.731,5.832,2.578c1.536,0.849,2.748,1.763,3.636,2.742
		c0.888,0.982,1.512,2.072,1.872,3.271c0.36,1.195,0.54,2.586,0.54,4.166c0,3.734-1.404,6.563-4.212,8.479
		c-2.808,1.914-6.78,2.872-11.916,2.872c-3.36,0-6.156-0.286-8.388-0.862s-3.78-1.057-4.644-1.439l1.8-8.712
		c1.824,0.72,3.696,1.284,5.616,1.69C14.101,50.135,15.998,50.338,17.87,50.338z"/>
	<path fill="#000000" d="M52.645,33.771c1.055-1.146,2.146-2.338,3.272-3.581c1.126-1.241,2.217-2.47,3.273-3.687
		c1.055-1.217,2.049-2.374,2.984-3.472c0.935-1.097,1.738-2.051,2.41-2.863H77.34c-2.544,2.923-5.029,5.713-7.452,8.37
		c-2.425,2.658-5.076,5.398-7.956,8.227c1.44,1.299,2.927,2.851,4.464,4.651c1.536,1.806,3.024,3.666,4.464,5.59
		c1.44,1.925,2.76,3.849,3.96,5.771c1.199,1.925,2.208,3.68,3.024,5.266H65.509c-0.767-1.251-1.641-2.634-2.624-4.15
		c-0.982-1.515-2.024-3.028-3.126-4.545c-1.102-1.517-2.263-2.972-3.485-4.367c-1.222-1.395-2.433-2.572-3.629-3.537v16.602H41.917
		V3.898L52.645,2.17V33.771z"/>
	<path fill="#000000" d="M79.213,39.395c0-3.357,0.515-6.301,1.548-8.818c1.032-2.521,2.387-4.619,4.068-6.3
		c1.68-1.68,3.611-2.952,5.796-3.816c2.184-0.864,4.428-1.296,6.732-1.296c5.375,0,9.623,1.645,12.744,4.932
		c3.119,3.289,4.68,8.125,4.68,14.509c0,0.625-0.025,1.309-0.072,2.053c-0.048,0.744-0.098,1.402-0.145,1.979H90.229
		c0.24,2.209,1.271,3.961,3.096,5.256c1.823,1.297,4.271,1.944,7.344,1.944c1.968,0,3.899-0.18,5.796-0.54
		c1.896-0.359,3.443-0.803,4.645-1.332l1.439,8.712c-0.576,0.288-1.345,0.576-2.304,0.864c-0.961,0.288-2.028,0.54-3.204,0.756
		c-1.178,0.217-2.438,0.396-3.779,0.54c-1.345,0.144-2.689,0.216-4.033,0.216c-3.408,0-6.371-0.504-8.892-1.512
		c-2.52-1.008-4.608-2.389-6.264-4.141c-1.656-1.752-2.88-3.828-3.672-6.229C79.609,44.771,79.213,42.18,79.213,39.395z
		 M104.413,35.29c-0.048-0.911-0.205-1.8-0.468-2.664c-0.266-0.864-0.674-1.631-1.225-2.304c-0.553-0.672-1.248-1.225-2.089-1.656
		c-0.84-0.432-1.885-0.648-3.132-0.648c-1.2,0-2.23,0.205-3.098,0.612c-0.862,0.408-1.584,0.948-2.158,1.62
		c-0.576,0.673-1.021,1.452-1.332,2.34c-0.313,0.889-0.54,1.789-0.684,2.7H104.413z"/>
	<path fill="#000000" d="M138.182,58.762c-3.121-0.048-5.652-0.385-7.597-1.008s-3.481-1.5-4.608-2.628
		c-1.127-1.127-1.896-2.495-2.304-4.104c-0.407-1.606-0.612-3.42-0.612-5.437V3.898l10.729-1.729v41.256
		c0,0.961,0.071,1.825,0.216,2.593c0.145,0.77,0.42,1.416,0.828,1.943c0.407,0.529,0.996,0.961,1.766,1.296
		c0.767,0.337,1.799,0.554,3.096,0.648L138.182,58.762z"/>
	<path fill="#000000" d="M160.5,19.162c3.168,0,5.807,0.36,7.92,1.08c2.112,0.72,3.805,1.753,5.076,3.096
		c1.271,1.345,2.171,2.977,2.699,4.896c0.527,1.92,0.793,4.057,0.793,6.407v22.32c-1.537,0.337-3.672,0.732-6.408,1.188
		c-2.736,0.457-6.048,0.686-9.936,0.686c-2.449,0-4.67-0.216-6.66-0.646c-1.992-0.434-3.709-1.142-5.148-2.125
		c-1.439-0.981-2.544-2.269-3.313-3.853s-1.151-3.526-1.151-5.832c0-2.207,0.442-4.079,1.332-5.616
		c0.888-1.533,2.075-2.76,3.563-3.672c1.486-0.91,3.19-1.57,5.111-1.979c1.919-0.406,3.912-0.611,5.977-0.611
		c1.393,0,2.629,0.061,3.709,0.18c1.08,0.121,1.955,0.277,2.627,0.469v-1.008c0-1.824-0.551-3.288-1.655-4.393
		c-1.104-1.104-3.024-1.656-5.761-1.656c-1.824,0-3.625,0.133-5.399,0.396c-1.776,0.264-3.312,0.637-4.608,1.115l-1.367-8.64
		c0.623-0.191,1.404-0.396,2.341-0.612c0.936-0.216,1.954-0.407,3.06-0.575s2.27-0.313,3.492-0.433
		C158.016,19.223,159.251,19.162,160.5,19.162z M161.363,50.555c1.056,0,2.063-0.022,3.025-0.072
		c0.959-0.047,1.728-0.118,2.303-0.217V42.13c-0.433-0.096-1.08-0.19-1.943-0.288c-0.864-0.096-1.656-0.144-2.376-0.144
		c-1.009,0-1.957,0.061-2.845,0.18c-0.889,0.12-1.668,0.349-2.34,0.685s-1.199,0.791-1.584,1.367
		c-0.386,0.576-0.576,1.297-0.576,2.16c0,1.682,0.563,2.844,1.693,3.492C157.848,50.23,159.396,50.555,161.363,50.555z"/>
</g>
</svg>
