<?xml version="1.0" encoding="utf-8"?>
<!-- Generator: Adobe Illustrator 16.0.0, SVG Export Plug-In . SVG Version: 6.00 Build 0)  -->
<!DOCTYPE svg PUBLIC "-//W3C//DTD SVG 1.1//EN" "http://www.w3.org/Graphics/SVG/1.1/DTD/svg11.dtd">
<svg version="1.1" id="Layer_1" xmlns="http://www.w3.org/2000/svg" xmlns:xlink="http://www.w3.org/1999/xlink" x="0px" y="0px"
	 width="386.32px" height="386.324px" viewBox="0 0 386.32 386.324" enable-background="new 0 0 386.32 386.324"
	 xml:space="preserve">
<g>
	<g>
		<path fill="#FFFFFF" d="M267.76,199.939c0-52.063-45.236-94.271-101.039-94.271c-55.807,0-101.045,42.207-101.045,94.271
			c0,26.403,11.642,50.268,30.389,67.381l-6.646,39.599c-0.436,11.675,8.521,22.299,21.213,24.461
			c12.691,2.163,24.66-4.896,28.115-16.059l2.911-16.841l0.044,18.141c1.531,11.582,12.146,20.552,25.021,20.552
			s23.484-8.97,25.018-20.552l0.045-18.141l2.912,16.841c3.455,11.16,15.422,18.222,28.115,16.059
			c12.689-2.162,21.646-12.786,21.211-24.461l-6.646-39.599C256.121,250.207,267.76,226.344,267.76,199.939z"/>
		<g>
			
				<ellipse transform="matrix(-0.8972 -0.4416 0.4416 -0.8972 191.5422 520.4844)" cx="156.341" cy="237.952" rx="5.75" ry="8.357"/>
			<ellipse transform="matrix(0.8972 -0.4416 0.4416 0.8972 -86.994 102.1565)" cx="175.947" cy="237.951" rx="5.75" ry="8.357"/>
		</g>
	</g>
	<circle cx="119.418" cy="192.186" r="28.906"/>
	<circle cx="212.021" cy="192.186" r="28.906"/>
	<path fill="#6D6E71" d="M343.22,149.445c-5.566-14.291-43.682-15.908-69.143-15.34c-0.273-6.383-3.189-12.619-8.566-16.93
		c-5.379-4.312-12.1-5.803-18.391-4.686c-4.979-24.974-14.84-61.826-30-64.153c-23.059-3.539-69.408,52.247-58.375,72.801
		c7.229,13.469,44.58,15.363,69.479,15.07c0.313,6.332,3.227,12.507,8.563,16.788c5.336,4.277,11.998,5.781,18.248,4.708
		c5.123,24.369,15.092,60.415,29.811,64.543C307.306,228.55,351.685,171.184,343.22,149.445z"/>
</g>
</svg>
