<?xml version="1.0" encoding="utf-8"?>
<!-- Generator: Adobe Illustrator 16.0.0, SVG Export Plug-In . SVG Version: 6.00 Build 0)  -->
<!DOCTYPE svg PUBLIC "-//W3C//DTD SVG 1.1//EN" "http://www.w3.org/Graphics/SVG/1.1/DTD/svg11.dtd">
<svg version="1.1" id="Layer_1" xmlns="http://www.w3.org/2000/svg" xmlns:xlink="http://www.w3.org/1999/xlink" x="0px" y="0px"
	 width="386.32px" height="386.324px" viewBox="0 0 386.32 386.324" enable-background="new 0 0 386.32 386.324"
	 xml:space="preserve">
<g>
	<g>
		<path fill="#FFFFFF" d="M290.773,239.014c0-52.063-45.238-94.271-101.042-94.271c-55.803,0-101.041,42.207-101.041,94.271
			c0,26.403,11.639,50.271,30.385,67.38l-6.645,39.602c-0.438,11.675,8.52,22.299,21.211,24.461
			c12.689,2.163,24.656-4.897,28.111-16.062l2.912-16.842l0.045,18.145c1.531,11.582,12.146,20.553,25.021,20.553
			s23.488-8.971,25.019-20.553l0.045-18.145l2.91,16.842c3.455,11.16,15.424,18.225,28.115,16.062
			c12.693-2.162,21.646-12.786,21.213-24.461l-6.646-39.602C279.135,289.279,290.773,265.417,290.773,239.014z"/>
		<g>
			<ellipse transform="matrix(0.8972 0.4417 -0.4417 0.8972 140.797 -50.7315)" cx="179.357" cy="277.03" rx="5.75" ry="8.356"/>
			
				<ellipse transform="matrix(-0.8972 0.4416 -0.4416 -0.8972 499.7677 437.7178)" cx="198.946" cy="277.018" rx="5.75" ry="8.355"/>
		</g>
	</g>
	<path d="M123.324,213.038c-4.244,5.03-6.805,11.524-6.805,18.623c0,15.964,12.938,28.905,28.902,28.905
		c13.114,0,24.186-8.736,27.723-20.703L123.324,213.038z"/>
	<path d="M260.131,213.367c4.244,5.031,6.809,11.525,6.809,18.622c0,15.965-12.941,28.907-28.906,28.907
		c-13.115,0-24.182-8.737-27.719-20.707L260.131,213.367z"/>
	<g>
		<path d="M265.918,167.274v-148.9c0-4.373-32.611-7.917-72.845-7.917s-72.848,3.544-72.848,7.917v148.9
			c-32.164,2.339-53.152,6.186-53.152,10.533c0,7.13,56.412,12.91,126,12.91c69.587,0,126-5.78,126-12.91
			C319.072,173.46,298.082,169.613,265.918,167.274z"/>
		<path fill="#F4A800" d="M120.225,148.358c48.935,3.304,57.368,4.958,145.689,0v18.916c0,0-61.594,13.1-145.689,0V148.358z"/>
	</g>
</g>
</svg>
