<?xml version="1.0" encoding="utf-8"?>
<!-- Generator: Adobe Illustrator 16.0.0, SVG Export Plug-In . SVG Version: 6.00 Build 0)  -->
<!DOCTYPE svg PUBLIC "-//W3C//DTD SVG 1.1//EN" "http://www.w3.org/Graphics/SVG/1.1/DTD/svg11.dtd">
<svg version="1.1" id="Layer_1" xmlns="http://www.w3.org/2000/svg" xmlns:xlink="http://www.w3.org/1999/xlink" x="0px" y="0px"
	 width="386.32px" height="386.324px" viewBox="0 0 386.32 386.324" enable-background="new 0 0 386.32 386.324"
	 xml:space="preserve">
<g>
	<g>
		<path fill="#F4A800" d="M153.873,134.78c0,0-74.918,158.191-130.022,166.019L55.238,299l-7.102,19.643
			c0,0,123.321-115.617,118.961-162.797"/>
		<path fill="#F4A800" d="M126.24,121.22c0,0-4.018,174.987-51.16,204.575l27.937-14.424l1.512,20.832
			c0,0,65.563-155.81,42.369-197.129"/>
		<g>
			<path fill="#FFFFFF" d="M297.615,180.774c0-52.064-45.238-94.271-101.043-94.271c-55.803,0-101.041,42.207-101.041,94.271
				c0,26.404,11.639,50.267,30.385,67.38l-6.645,39.598c-0.437,11.674,8.52,22.299,21.211,24.461
				c12.692,2.162,24.66-4.897,28.115-16.059l2.911-16.842l0.046,18.143c1.53,11.582,12.143,20.551,25.018,20.551
				s23.488-8.969,25.02-20.551l0.043-18.143l2.912,16.842c3.455,11.16,15.425,18.221,28.115,16.059
				c12.693-2.162,21.648-12.787,21.213-24.461l-6.646-39.598C285.974,231.041,297.615,207.178,297.615,180.774z"/>
			<g>
				<ellipse transform="matrix(0.4416 -0.8972 0.8972 0.4416 -92.3448 289.2156)" cx="186.175" cy="218.795" rx="8.354" ry="5.75"/>
				<ellipse transform="matrix(0.4416 0.8972 -0.8972 0.4416 311.231 -62.4528)" cx="205.788" cy="218.808" rx="8.354" ry="5.751"/>
			</g>
		</g>
		<circle cx="149.271" cy="173.02" r="28.906"/>
		<circle cx="241.877" cy="173.02" r="28.906"/>
	</g>
	<path fill="#F4A800" d="M280.84,128.751L280.84,128.751c-6.397-9.004-14.405-16.927-23.647-23.402
		c-62.484,18.83-109.607,5.449-123.66,1.756c-9.326,6.957-17.305,15.419-23.506,24.998l0,0
		C208.701,161.953,280.84,128.751,280.84,128.751z"/>
</g>
</svg>
