<?xml version="1.0" encoding="utf-8"?>
<!-- Generator: Adobe Illustrator 16.0.0, SVG Export Plug-In . SVG Version: 6.00 Build 0)  -->
<!DOCTYPE svg PUBLIC "-//W3C//DTD SVG 1.1//EN" "http://www.w3.org/Graphics/SVG/1.1/DTD/svg11.dtd">
<svg version="1.1" id="Layer_1" xmlns="http://www.w3.org/2000/svg" xmlns:xlink="http://www.w3.org/1999/xlink" x="0px" y="0px"
	 width="386.32px" height="386.324px" viewBox="0 0 386.32 386.324" enable-background="new 0 0 386.32 386.324"
	 xml:space="preserve">
<g>
	<g>
		<path fill="#741F89" d="M153.873,134.78c0,0-74.918,158.191-130.021,166.019L55.238,299l-7.102,19.643
			c0,0,123.32-115.617,118.961-162.796"/>
		<path fill="#741F89" d="M126.24,121.22c0,0-4.018,174.987-51.16,204.575l27.938-14.424l1.512,20.832
			c0,0,65.563-155.81,42.369-197.129"/>
		<g>
			<path fill="#FFFFFF" d="M297.615,180.774c0-52.064-45.238-94.271-101.043-94.271c-55.803,0-101.041,42.207-101.041,94.271
				c0,26.404,11.639,50.267,30.385,67.38l-6.645,39.598c-0.438,11.674,8.52,22.299,21.211,24.461s24.66-4.896,28.115-16.059
				l2.91-16.842l0.047,18.143c1.529,11.582,12.143,20.551,25.018,20.551s23.488-8.969,25.02-20.551l0.043-18.143l2.912,16.842
				c3.455,11.16,15.426,18.221,28.115,16.059c12.693-2.162,21.648-12.787,21.213-24.461l-6.646-39.598
				C285.974,231.041,297.615,207.178,297.615,180.774z"/>
			<g>
				
					<ellipse transform="matrix(-0.8972 -0.4416 0.4416 -0.8972 256.5883 497.3218)" cx="186.173" cy="218.799" rx="5.75" ry="8.353"/>
				
					<ellipse transform="matrix(0.8972 -0.4417 0.4417 0.8972 -75.4798 113.3902)" cx="205.792" cy="218.806" rx="5.751" ry="8.354"/>
			</g>
		</g>
		<circle cx="149.271" cy="173.02" r="28.906"/>
		<circle cx="241.877" cy="173.02" r="28.906"/>
	</g>
	<path fill="#741F89" d="M280.84,128.751L280.84,128.751c-6.396-9.004-14.404-16.927-23.646-23.402
		c-62.484,18.83-109.607,5.449-123.66,1.756c-9.326,6.957-17.305,15.419-23.506,24.998l0,0
		C208.701,161.953,280.84,128.751,280.84,128.751z"/>
</g>
</svg>
