<?xml version="1.0" encoding="utf-8"?>
<!-- Generator: Adobe Illustrator 16.0.0, SVG Export Plug-In . SVG Version: 6.00 Build 0)  -->
<!DOCTYPE svg PUBLIC "-//W3C//DTD SVG 1.1//EN" "http://www.w3.org/Graphics/SVG/1.1/DTD/svg11.dtd">
<svg version="1.1" id="Layer_1" xmlns="http://www.w3.org/2000/svg" xmlns:xlink="http://www.w3.org/1999/xlink" x="0px" y="0px"
	 width="386.32px" height="386.324px" viewBox="0 0 386.32 386.324" enable-background="new 0 0 386.32 386.324"
	 xml:space="preserve">
<g>
	<g>
		<path fill="#FFFFFF" d="M292.916,211.557c0-52.065-45.238-94.272-101.043-94.272c-55.803,0-101.041,42.207-101.041,94.272
			c0,26.401,11.64,50.267,30.385,67.379l-6.645,39.599c-0.436,11.674,8.52,22.299,21.211,24.462
			c12.693,2.161,24.66-4.898,28.115-16.061l2.912-16.841l0.045,18.141c1.531,11.582,12.143,20.553,25.018,20.553
			s23.488-8.971,25.021-20.553l0.045-18.141l2.91,16.841c3.455,11.161,15.424,18.222,28.114,16.061
			c12.693-2.163,21.648-12.788,21.213-24.462l-6.646-39.599C281.277,261.822,292.916,237.958,292.916,211.557z"/>
		<g>
			<ellipse transform="matrix(0.4416 -0.8972 0.8972 0.4416 -122.5677 302.2037)" cx="181.498" cy="249.569" rx="8.356" ry="5.75"/>
			<ellipse transform="matrix(0.4416 0.8972 -0.8972 0.4416 336.2087 -41.0688)" cx="201.098" cy="249.566" rx="8.356" ry="5.75"/>
		</g>
	</g>
	<path d="M122.127,185.908c-4.244,5.031-6.805,11.525-6.805,18.623c0,15.964,12.941,28.906,28.906,28.906
		c13.114,0,24.182-8.737,27.719-20.705L122.127,185.908z"/>
	<path d="M258.933,186.236c4.243,5.031,6.805,11.526,6.805,18.624c0,15.965-12.941,28.906-28.906,28.906
		c-13.115,0-24.182-8.736-27.719-20.705L258.933,186.236z"/>
	<g>
		<g>
			<path fill="#FFFFFF" d="M110.613,109.809L101,125.077l8.888-17.726c-1.136-3.914-2.229-7.989-3.269-12.111l-5.953,6.837
				l5.234-9.732c-0.615-2.509-1.211-5.021-1.783-7.514l-9.215,15.579l6.969-25.762l0,0c-1.195-5.638-2.248-10.938-3.125-15.543
				l-7.914,13.638l7.051-18.246c-1.325-7.188-2.071-11.79-2.071-11.79c-1.427-3.523-3.095-6.062-4.879-7.843l-6.267,5.546
				l4.195-7.258c-7.848-5.182-17.004,2.021-18.355,6.628c0,0-0.989,4.246-1.885,11.047L78,61.41l-9.678-8.191
				c-0.564,4.813-1.027,10.654-1.104,17.037c3.193,1.991,9.642,5.977,12.99,7.83l2.074,0.991c-0.205,0-0.975-0.381-2.074-0.991
				l-13.006-5.204c-0.008,9.18,0.826,18.388,3.373,28.306l13.758,8.035l-12.916-4.962c0.545,1.841,1.158,3.664,1.836,5.467
				l9.029,2.022l-8.207,0.056c5.266,12.855,14.199,24.305,28.953,31.075l17.111,6l3.385-11.174
				C119.006,133.914,114.568,122.978,110.613,109.809z"/>
			<g>
				<path fill="#BCBEC0" d="M83.517,35.639c0,0-0.679,7.055-0.66,17.66c0.004,2.649,0.053,5.521,0.166,8.553
					c0.125,3.031,0.248,6.228,0.508,9.524c0.229,3.299,0.574,6.697,0.975,10.141c0.445,3.438,0.937,6.926,1.584,10.381l0.484,2.591
					l0.557,2.568c0.347,1.715,0.789,3.398,1.216,5.069c0.875,3.339,1.842,6.587,2.866,9.696c0.531,1.547,1.056,3.067,1.566,4.556
					c0.566,1.469,1.119,2.904,1.656,4.303c0.596,1.373,1.178,2.709,1.737,4.001c0.615,1.268,1.209,2.493,1.779,3.67
					c0.627,1.146,1.229,2.246,1.801,3.292c0.549,1.066,1.226,1.973,1.763,2.896c0.278,0.455,0.551,0.895,0.813,1.319
					c0.271,0.42,0.564,0.797,0.83,1.176c0.531,0.76,1.018,1.458,1.457,2.088c0.906,1.244,1.727,2.137,2.223,2.804
					c0.517,0.654,0.789,1.003,0.789,1.003l-0.209,0.214c0,0-0.332-0.296-0.955-0.85c-0.614-0.564-1.551-1.368-2.647-2.484
					c-1.043-1.159-2.437-2.489-3.73-4.254c-1.389-1.698-2.77-3.748-4.223-6.026c-0.672-1.171-1.371-2.391-2.096-3.652
					c-0.644-1.305-1.31-2.654-1.992-4.041c-0.635-1.407-1.238-2.876-1.865-4.372c-0.566-1.519-1.121-3.08-1.666-4.672
					c-0.465-1.616-0.986-3.246-1.42-4.92c-0.416-1.676-0.877-3.366-1.209-5.095c-0.359-1.725-0.732-3.457-1.027-5.212l-0.469-2.63
					L83.72,92.29c-0.546-3.524-0.929-7.067-1.269-10.556c-0.293-3.491-0.533-6.929-0.658-10.26c-0.145-3.329-0.198-6.55-0.186-9.602
					c0.016-3.052,0.09-5.936,0.199-8.595c0.432-10.642,1.409-17.674,1.409-17.674L83.517,35.639z"/>
			</g>
		</g>
		<path d="M318.082,120.408c-12.447-8.352-26.055,9.482-36.813,10.395c0,0-29.851-57.521-85.34-59.629
			c-1.339-0.095-2.691-0.15-4.056-0.185c-1.36,0.034-2.717,0.09-4.055,0.185c-55.488,2.107-85.338,59.629-85.338,59.629
			c-10.76-0.912-24.367-18.746-36.814-10.395c-13.186,8.848,11.357,46.729,29.193,62.729c0,0,42.297-14.449,97.014-14.314
			c54.719-0.135,97.017,14.314,97.017,14.314C306.722,167.137,331.267,129.256,318.082,120.408z"/>
		<g>
			<path fill="#FFFFFF" d="M214.404,140.294l-19.605-8.669l-0.366-0.161l-24.394-10.785c0.924-2.021-0.498-5.171-1.731-7.419
				c-1.963-3.583-6.168-5.057-9.394-3.289c-3.213,1.76-4.235,6.073-2.299,9.648c-3.949,0.976-6.451,4.635-5.592,8.195
				c0.863,3.574,4.783,5.693,8.756,4.734c2.492-0.602,5.779-1.668,6.652-3.713l24.393,10.785l0.367,0.162l19.604,8.67
				c-0.926,2.02,0.498,5.17,1.73,7.418c1.965,3.584,6.17,5.058,9.395,3.29c3.213-1.761,4.236-6.073,2.3-9.65
				c3.948-0.974,6.45-4.633,5.592-8.195c-0.863-3.572-4.783-5.694-8.756-4.734C218.564,137.184,215.275,138.25,214.404,140.294z"/>
		</g>
		<path fill="#FFFFFF" d="M166.431,140.294l19.604-8.669l0.367-0.161l24.393-10.785c-0.926-2.021,0.498-5.171,1.73-7.419
			c1.965-3.583,6.17-5.057,9.395-3.289c3.213,1.76,4.236,6.073,2.3,9.648c3.948,0.976,6.448,4.635,5.59,8.195
			c-0.861,3.574-4.781,5.693-8.754,4.734c-2.494-0.602-5.781-1.668-6.652-3.713l-24.393,10.785l-0.367,0.162l-19.605,8.67
			c0.924,2.02-0.5,5.17-1.731,7.418c-1.963,3.584-6.17,5.058-9.394,3.29c-3.213-1.761-4.235-6.073-2.301-9.65
			c-3.947-0.974-6.449-4.633-5.59-8.195c0.863-3.572,4.783-5.694,8.756-4.734C162.271,137.184,165.558,138.25,166.431,140.294z"/>
		<g>
			<g>
				<path fill="#FFFFFF" d="M190.418,138.829c-3.021,0-5.599-2.02-6.159-4.758c-0.958,2.15-3.136,3.52-5.636,3.52
					c-0.377,0-0.757-0.032-1.131-0.096c-3.117-0.532-5.383-3.16-5.271-6.113l1.482-8.862c-4.465-4.171-6.919-9.704-6.919-15.611
					c0-12.177,10.603-22.084,23.633-22.084c13.031,0,23.633,9.907,23.633,22.084c0,5.906-2.453,11.439-6.917,15.61l1.478,8.799
					c0.116,3.017-2.15,5.645-5.267,6.177c-0.374,0.064-0.756,0.096-1.132,0.096l0,0c-2.518,0-4.708-1.39-5.644-3.517
					C195.98,136.837,193.417,138.829,190.418,138.829z"/>
				<path d="M190.418,85.324c12.777,0,23.133,9.664,23.133,21.584c0,6.045-2.663,11.508-6.954,15.427l1.521,9.065
					c0.1,2.673-1.951,5.105-4.857,5.602c-0.353,0.06-0.701,0.089-1.047,0.089c-2.495,0-4.694-1.521-5.391-3.767l-0.666-3.855
					l-0.01,4.153c-0.353,2.651-2.781,4.707-5.729,4.707s-5.377-2.056-5.729-4.707l-0.01-4.153l-0.666,3.855
					c-0.695,2.246-2.896,3.767-5.392,3.767c-0.345,0-0.695-0.029-1.047-0.089c-2.906-0.496-4.957-2.929-4.855-5.602l1.521-9.065
					c-4.293-3.919-6.957-9.382-6.957-15.427C167.285,94.988,177.64,85.324,190.418,85.324 M190.418,84.324
					c-13.307,0-24.133,10.131-24.133,22.584c0,5.96,2.439,11.547,6.881,15.791l-1.432,8.536l-0.012,0.063l-0.002,0.064
					c-0.12,3.203,2.323,6.051,5.687,6.625c0.403,0.068,0.812,0.103,1.216,0.103c2.278,0,4.313-1.059,5.507-2.762
					c1.009,2.363,3.472,4,6.288,4c2.817,0,5.28-1.637,6.288-4c1.195,1.703,3.229,2.762,5.507,2.762c0.404,0,0.813-0.035,1.216-0.103
					c3.361-0.574,5.809-3.422,5.688-6.625l-0.002-0.064l-0.011-0.064l-1.434-8.536c4.441-4.245,6.88-9.832,6.88-15.791
					C214.551,94.456,203.724,84.324,190.418,84.324L190.418,84.324z"/>
			</g>
			<g>
				<ellipse transform="matrix(0.4416 -0.8972 0.8972 0.4416 1.2667 233.2666)" cx="188.032" cy="115.616" rx="1.913" ry="1.317"/>
				
					<ellipse transform="matrix(0.4418 0.8971 -0.8971 0.4418 211.1886 -108.1751)" cx="192.521" cy="115.618" rx="1.913" ry="1.317"/>
			</g>
			<circle cx="179.589" cy="105.133" r="6.618"/>
			<circle cx="200.79" cy="105.133" r="6.618"/>
		</g>
	</g>
</g>
</svg>
