<?xml version="1.0" encoding="utf-8"?>
<!-- Generator: Adobe Illustrator 16.0.0, SVG Export Plug-In . SVG Version: 6.00 Build 0)  -->
<!DOCTYPE svg PUBLIC "-//W3C//DTD SVG 1.1//EN" "http://www.w3.org/Graphics/SVG/1.1/DTD/svg11.dtd">
<svg version="1.1" id="Layer_1" xmlns="http://www.w3.org/2000/svg" xmlns:xlink="http://www.w3.org/1999/xlink" x="0px" y="0px"
	 width="386.32px" height="386.324px" viewBox="0 0 386.32 386.324" enable-background="new 0 0 386.32 386.324"
	 xml:space="preserve">
<g>
	<g>
		<path fill="#FFFFFF" d="M291.06,238.35c0-52.063-45.238-94.271-101.043-94.271c-55.806,0-101.041,42.207-101.041,94.271
			c0,26.404,11.639,50.27,30.385,67.381l-6.646,39.6c-0.436,11.675,8.521,22.3,21.211,24.461
			c12.693,2.163,24.66-4.897,28.115-16.058l2.912-16.844l0.045,18.143c1.531,11.582,12.146,20.552,25.021,20.552
			s23.486-8.97,25.02-20.552l0.043-18.143l2.912,16.843c3.455,11.158,15.424,18.222,28.115,16.059
			c12.69-2.161,21.646-12.786,21.213-24.461l-6.646-39.6C279.42,288.616,291.06,264.754,291.06,238.35z"/>
		<g>
			
				<ellipse transform="matrix(-0.4417 0.8972 -0.8972 -0.4417 506.9543 237.2524)" cx="179.656" cy="276.366" rx="8.354" ry="5.751"/>
			<ellipse transform="matrix(-0.4416 -0.8972 0.8972 -0.4416 39.2351 577.1495)" cx="199.22" cy="276.365" rx="8.354" ry="5.752"/>
		</g>
	</g>
	<g>
		<polygon points="198.668,213.701 198.668,231.104 198.668,234.725 198.668,236.13 181.113,236.13 181.113,234.725 
			181.113,233.375 181.113,231.104 181.113,213.701 104.03,213.701 104.03,260.561 181.113,260.561 181.113,242.457 
			181.113,239.666 198.668,239.666 198.668,242.457 198.668,260.561 275.752,260.561 275.752,237.755 275.752,233.375 
			275.752,213.701 		"/>
		<polyline opacity="0.3" fill="#FFFFFF" enable-background="new    " points="104.03,260.561 181.113,213.701 181.113,225.055 
			122.144,260.561 		"/>
		<polyline opacity="0.3" fill="#FFFFFF" enable-background="new    " points="198.668,260.561 275.752,213.701 275.752,225.055 
			216.783,260.561 		"/>
	</g>
	<g>
		<path d="M266.205,166.61V17.71c0-4.373-32.615-7.917-72.846-7.917c-40.232,0-72.851,3.544-72.851,7.917v148.9
			c-32.161,2.339-53.149,6.185-53.149,10.533c0,7.13,56.412,12.91,126,12.91s126-5.78,126-12.91
			C319.359,172.795,298.369,168.948,266.205,166.61z"/>
		<g>
			<path fill="#009444" d="M120.511,147.694l-0.002,18.916c55.844,8.698,129.967,0.454,145.693-0.734v-18.182
				C168.611,157.71,120.511,147.694,120.511,147.694z"/>
		</g>
	</g>
</g>
</svg>
