<?xml version="1.0" encoding="utf-8"?>
<!-- Generator: Adobe Illustrator 16.0.0, SVG Export Plug-In . SVG Version: 6.00 Build 0)  -->
<!DOCTYPE svg PUBLIC "-//W3C//DTD SVG 1.1//EN" "http://www.w3.org/Graphics/SVG/1.1/DTD/svg11.dtd">
<svg version="1.1" id="Layer_1" xmlns="http://www.w3.org/2000/svg" xmlns:xlink="http://www.w3.org/1999/xlink" x="0px" y="0px"
	 width="386.32px" height="386.324px" viewBox="0 0 386.32 386.324" enable-background="new 0 0 386.32 386.324"
	 xml:space="preserve">
<g>
	<g>
		<path fill="#FFFFFF" d="M291.06,238.35c0-52.063-45.238-94.271-101.043-94.271S88.976,186.286,88.976,238.35
			c0,26.404,11.639,50.269,30.385,67.381l-6.646,39.599c-0.436,11.675,8.521,22.3,21.211,24.461
			c12.693,2.163,24.66-4.897,28.115-16.058l2.912-16.843l0.045,18.142c1.531,11.582,12.145,20.552,25.02,20.552
			s23.487-8.97,25.02-20.552l0.043-18.142l2.912,16.842c3.455,11.159,15.424,18.222,28.115,16.059
			c12.691-2.161,21.646-12.786,21.213-24.461l-6.646-39.599C279.42,288.616,291.06,264.754,291.06,238.35z"/>
		<g>
			
				<ellipse transform="matrix(-0.8972 -0.4417 0.4417 -0.8972 218.7634 603.6847)" cx="179.652" cy="276.378" rx="5.751" ry="8.354"/>
			
				<ellipse transform="matrix(0.8972 -0.4416 0.4416 0.8972 -101.5668 116.3848)" cx="199.223" cy="276.368" rx="5.752" ry="8.354"/>
		</g>
	</g>
	<g>
		<polygon points="198.668,213.701 198.668,231.104 198.668,234.725 198.668,236.13 181.113,236.13 181.113,234.725 
			181.113,233.375 181.113,231.104 181.113,213.701 104.03,213.701 104.03,260.561 181.113,260.561 181.113,242.457 
			181.113,239.666 198.668,239.666 198.668,242.457 198.668,260.561 275.752,260.561 275.752,237.755 275.752,233.375 
			275.752,213.701 		"/>
		<polyline opacity="0.3" fill="#FFFFFF" enable-background="new    " points="104.03,260.561 181.113,213.701 181.113,225.055 
			122.144,260.561 		"/>
		<polyline opacity="0.3" fill="#FFFFFF" enable-background="new    " points="198.668,260.561 275.752,213.701 275.752,225.055 
			216.783,260.561 		"/>
	</g>
	<g>
		<path d="M266.205,166.61V17.71c0-4.373-32.615-7.917-72.846-7.917c-40.232,0-72.85,3.544-72.85,7.917v148.9
			c-32.162,2.339-53.15,6.185-53.15,10.533c0,7.13,56.412,12.91,126,12.91s126-5.78,126-12.91
			C319.359,172.795,298.369,168.948,266.205,166.61z"/>
		<g>
			<path fill="#ED1C24" d="M120.511,147.694L120.511,147.694l-0.001,18.916c55.844,8.698,129.967,0.454,145.693-0.734v-18.182
				C168.611,157.71,120.511,147.694,120.511,147.694z"/>
		</g>
	</g>
</g>
</svg>
