<?xml version="1.0" encoding="utf-8"?>
<!-- Generator: Adobe Illustrator 16.0.0, SVG Export Plug-In . SVG Version: 6.00 Build 0)  -->
<!DOCTYPE svg PUBLIC "-//W3C//DTD SVG 1.1//EN" "http://www.w3.org/Graphics/SVG/1.1/DTD/svg11.dtd">
<svg version="1.1" id="Layer_1" xmlns="http://www.w3.org/2000/svg" xmlns:xlink="http://www.w3.org/1999/xlink" x="0px" y="0px"
	 width="386.32px" height="386.324px" viewBox="0 0 386.32 386.324" enable-background="new 0 0 386.32 386.324"
	 xml:space="preserve">
<g>
	<path fill="#F4A800" d="M153.871,134.66c0,0-74.917,158.189-130.021,166.02l31.389-1.799l-7.104,19.645
		c0,0,123.324-115.618,118.963-162.801"/>
	<path fill="#F4A800" d="M126.238,121.1c0,0-4.018,174.986-51.158,204.576l27.937-14.424l1.51,20.833
		c0,0,65.563-155.813,42.369-197.132"/>
	<g>
		<path fill="#FFFFFF" d="M297.472,180.846c0-52.063-45.238-94.27-101.041-94.27c-55.805,0-101.042,42.207-101.042,94.27
			c0,26.404,11.64,50.267,30.386,67.38l-6.646,39.598c-0.436,11.676,8.521,22.299,21.212,24.461
			c12.692,2.164,24.661-4.896,28.116-16.059l2.912-16.842l0.043,18.141c1.531,11.583,12.146,20.553,25.021,20.553
			s23.485-8.97,25.018-20.553l0.045-18.141l2.912,16.842c3.455,11.161,15.422,18.223,28.115,16.059
			c12.69-2.162,21.646-12.785,21.211-24.461l-6.646-39.598C285.834,231.113,297.472,207.25,297.472,180.846z"/>
		<g>
			<ellipse transform="matrix(0.4416 -0.8972 0.8972 0.4416 -92.4719 289.1459)" cx="186.056" cy="218.862" rx="8.356" ry="5.75"/>
			<ellipse transform="matrix(0.4416 0.8972 -0.8972 0.4416 311.2009 -62.3037)" cx="205.654" cy="218.858" rx="8.356" ry="5.75"/>
		</g>
	</g>
	<path d="M270.64,177.751c0,0-0.109-0.308-0.314-0.887c-0.098-0.29-0.215-0.646-0.354-1.066c-0.127-0.432-0.392-0.849-0.599-1.334
		c-0.229-0.476-0.438-0.986-0.805-1.529c-0.357-0.533-0.615-1.138-1.096-1.692c-0.453-0.562-0.83-1.188-1.412-1.741
		c-0.261-0.288-0.527-0.581-0.801-0.884c-0.289-0.287-0.617-0.557-0.929-0.841c-1.221-1.159-2.752-2.182-4.367-3.17
		c-0.873-0.422-1.668-0.967-2.616-1.329c-0.466-0.192-0.912-0.417-1.384-0.61c-0.479-0.176-0.963-0.354-1.448-0.533
		c-0.476-0.201-0.992-0.319-1.496-0.473c-0.506-0.145-1.002-0.324-1.523-0.447c-1.055-0.203-2.086-0.504-3.174-0.643
		c-2.143-0.396-4.371-0.495-6.59-0.546c-0.84,0.06-2.574,0.015-3.445,0.161c-0.51,0.059-1.02,0.115-1.533,0.146
		c-0.522,0.057-1.073,0.169-1.608,0.246c-1.088,0.137-2.115,0.446-3.172,0.645c-0.521,0.124-1.017,0.303-1.523,0.447
		c-0.502,0.156-1.02,0.274-1.494,0.476c-0.485,0.179-0.971,0.355-1.449,0.531c-0.471,0.192-0.916,0.421-1.381,0.612
		c-0.946,0.362-1.744,0.903-2.614,1.328c-1.615,0.986-3.146,2.01-4.365,3.167c-0.312,0.284-0.64,0.553-0.928,0.84
		c-0.271,0.299-0.529,0.597-0.804,0.881c-0.58,0.553-0.961,1.179-1.412,1.741c-0.479,0.554-0.737,1.158-1.096,1.691
		c-0.365,0.533-0.582,1.068-0.813,1.556c-0.209,0.489-0.474,0.928-0.599,1.331c-0.139,0.408-0.256,0.755-0.352,1.036
		c-0.207,0.581-0.318,0.891-0.318,0.891s-0.08-0.312-0.199-0.917c-0.106-0.605-0.338-1.518-0.307-2.699
		c-0.021-0.597-0.031-1.267,0.088-1.977c0.1-0.713,0.162-1.526,0.418-2.328c0.228-0.814,0.455-1.716,0.863-2.582
		c0.184-0.445,0.393-0.896,0.604-1.363c0.232-0.451,0.506-0.888,0.771-1.352c1.067-1.858,2.584-3.62,4.354-5.319
		c0.927-0.785,1.875-1.64,2.945-2.334c0.527-0.363,1.059-0.75,1.623-1.077c0.572-0.315,1.15-0.634,1.732-0.955
		c2.362-1.215,4.948-2.226,7.668-2.821c0.684-0.148,1.348-0.322,2.059-0.447c0.727-0.114,1.461-0.206,2.197-0.292
		c0.358-0.04,0.758-0.098,1.084-0.119l0.94-0.046l2.063-0.095c2.813,0.102,5.643,0.289,8.346,1.006
		c2.715,0.605,5.303,1.604,7.662,2.826c0.582,0.321,1.16,0.638,1.732,0.954c0.563,0.327,1.092,0.717,1.62,1.078
		c1.07,0.694,2.021,1.545,2.943,2.333c1.771,1.697,3.287,3.459,4.354,5.316c0.268,0.464,0.541,0.899,0.772,1.351
		c0.213,0.466,0.418,0.918,0.604,1.362c0.407,0.865,0.639,1.766,0.864,2.58c0.257,0.801,0.318,1.613,0.421,2.326
		c0.116,0.701,0.112,1.397,0.092,2.003c0.037,1.22-0.201,2.061-0.31,2.667C270.711,177.431,270.64,177.751,270.64,177.751z"/>
	<path d="M178.037,177.751c0,0-0.108-0.308-0.315-0.887c-0.097-0.29-0.214-0.646-0.353-1.066c-0.127-0.432-0.391-0.849-0.6-1.334
		c-0.228-0.476-0.439-0.986-0.806-1.529c-0.354-0.533-0.614-1.138-1.094-1.692c-0.453-0.562-0.83-1.188-1.412-1.741
		c-0.26-0.288-0.526-0.581-0.803-0.884c-0.287-0.287-0.617-0.557-0.928-0.841c-1.22-1.159-2.75-2.182-4.367-3.17
		c-0.873-0.422-1.666-0.967-2.617-1.329c-0.463-0.192-0.91-0.417-1.381-0.61c-0.479-0.176-0.963-0.354-1.449-0.533
		c-0.475-0.201-0.992-0.319-1.497-0.473c-0.507-0.145-1.003-0.324-1.522-0.447c-1.056-0.203-2.086-0.504-3.174-0.643
		c-2.144-0.396-4.371-0.495-6.591-0.546c-0.841,0.06-2.573,0.015-3.444,0.161c-0.512,0.059-1.021,0.115-1.533,0.146
		c-0.523,0.057-1.074,0.169-1.609,0.246c-1.088,0.137-2.116,0.446-3.172,0.645c-0.521,0.124-1.016,0.303-1.522,0.447
		c-0.502,0.156-1.021,0.274-1.494,0.476c-0.486,0.179-0.972,0.355-1.449,0.531c-0.472,0.192-0.916,0.421-1.38,0.612
		c-0.949,0.362-1.746,0.903-2.616,1.328c-1.615,0.986-3.146,2.01-4.365,3.167c-0.311,0.284-0.64,0.553-0.928,0.84
		c-0.27,0.299-0.529,0.597-0.803,0.881c-0.581,0.553-0.961,1.179-1.412,1.741c-0.481,0.554-0.739,1.158-1.097,1.691
		c-0.364,0.533-0.582,1.068-0.813,1.556c-0.209,0.489-0.473,0.928-0.598,1.331c-0.14,0.408-0.256,0.755-0.353,1.036
		c-0.207,0.581-0.317,0.891-0.317,0.891s-0.08-0.312-0.199-0.917c-0.108-0.605-0.338-1.518-0.308-2.699
		c-0.021-0.597-0.03-1.267,0.088-1.977c0.101-0.713,0.162-1.526,0.418-2.328c0.228-0.814,0.456-1.716,0.863-2.582
		c0.185-0.445,0.394-0.896,0.604-1.363c0.231-0.451,0.506-0.888,0.771-1.352c1.068-1.858,2.584-3.62,4.355-5.319
		c0.926-0.785,1.874-1.64,2.945-2.334c0.526-0.363,1.059-0.75,1.622-1.077c0.572-0.315,1.15-0.634,1.732-0.955
		c2.363-1.215,4.949-2.226,7.667-2.821c0.685-0.148,1.348-0.322,2.06-0.447c0.728-0.114,1.462-0.206,2.197-0.292
		c0.358-0.04,0.758-0.098,1.084-0.119l0.941-0.046l2.063-0.095c2.813,0.102,5.644,0.289,8.346,1.006
		c2.715,0.605,5.302,1.604,7.664,2.826c0.582,0.321,1.159,0.638,1.731,0.954c0.564,0.327,1.092,0.717,1.621,1.078
		c1.07,0.694,2.021,1.545,2.943,2.333c1.771,1.697,3.284,3.459,4.354,5.316c0.267,0.464,0.541,0.899,0.773,1.351
		c0.211,0.466,0.418,0.918,0.604,1.362c0.408,0.865,0.637,1.766,0.863,2.58c0.258,0.801,0.318,1.613,0.42,2.326
		c0.119,0.701,0.115,1.397,0.094,2.003c0.035,1.22-0.201,2.061-0.309,2.667C178.105,177.431,178.037,177.751,178.037,177.751z"/>
	<path fill="#F4A800" d="M280.84,128.631L280.84,128.631c-6.399-9.005-14.407-16.926-23.647-23.402
		c-62.486,18.83-109.61,5.449-123.662,1.756c-9.327,6.956-17.305,15.419-23.507,24.997l0,0
		C208.699,161.832,280.84,128.631,280.84,128.631z"/>
</g>
</svg>
