<?xml version="1.0" encoding="utf-8"?>
<!-- Generator: Adobe Illustrator 16.0.0, SVG Export Plug-In . SVG Version: 6.00 Build 0)  -->
<!DOCTYPE svg PUBLIC "-//W3C//DTD SVG 1.1//EN" "http://www.w3.org/Graphics/SVG/1.1/DTD/svg11.dtd">
<svg version="1.1" id="Layer_1" xmlns="http://www.w3.org/2000/svg" xmlns:xlink="http://www.w3.org/1999/xlink" x="0px" y="0px"
	 width="386.32px" height="386.324px" viewBox="0 0 386.32 386.324" enable-background="new 0 0 386.32 386.324"
	 xml:space="preserve">
<g id="Layer_1_1_">
	<g>
		<g>
			<path fill="#FFFFFF" d="M297.084,180.292c0-52.064-45.237-94.271-101.043-94.271c-55.803,0-101.042,42.206-101.042,94.271
				c0,26.405,11.641,50.267,30.387,67.379l-6.646,39.599c-0.436,11.676,8.52,22.299,21.212,24.463
				c12.692,2.161,24.66-4.898,28.115-16.06l2.912-16.842l0.044,18.142c1.531,11.581,12.144,20.551,25.018,20.551
				c12.875,0,23.488-8.97,25.021-20.551l0.045-18.142l2.91,16.842c3.455,11.16,15.424,18.222,28.114,16.06
				c12.693-2.164,21.648-12.787,21.214-24.463l-6.646-39.599C285.445,230.559,297.084,206.697,297.084,180.292z"/>
			<g>
				<ellipse transform="matrix(0.4416 -0.8972 0.8972 0.4416 -92.2084 288.4698)" cx="185.644" cy="218.313" rx="8.355" ry="5.75"/>
				<ellipse transform="matrix(0.4416 0.8972 -0.8972 0.4416 310.501 -62.2447)" cx="205.256" cy="218.325" rx="8.354" ry="5.75"/>
			</g>
		</g>
		<path d="M270.252,177.197c0,0-0.108-0.308-0.315-0.887c-0.097-0.288-0.215-0.646-0.354-1.066
			c-0.125-0.431-0.391-0.848-0.598-1.333c-0.229-0.477-0.439-0.986-0.805-1.528c-0.355-0.535-0.615-1.14-1.097-1.692
			c-0.451-0.563-0.83-1.189-1.41-1.743c-0.262-0.288-0.528-0.582-0.803-0.883c-0.289-0.288-0.617-0.558-0.928-0.841
			c-1.221-1.159-2.752-2.182-4.367-3.171c-0.873-0.422-1.668-0.967-2.617-1.327c-0.463-0.194-0.91-0.418-1.381-0.612
			c-0.479-0.175-0.963-0.354-1.451-0.531c-0.475-0.201-0.99-0.321-1.494-0.474c-0.508-0.146-1.004-0.324-1.522-0.448
			c-1.055-0.202-2.086-0.503-3.174-0.642c-2.144-0.396-4.371-0.496-6.59-0.547c-0.843,0.06-2.574,0.016-3.447,0.161
			c-0.51,0.06-1.021,0.115-1.533,0.146c-0.521,0.057-1.074,0.169-1.607,0.246c-1.088,0.138-2.116,0.446-3.174,0.645
			c-0.52,0.124-1.016,0.303-1.521,0.448c-0.504,0.157-1.021,0.274-1.494,0.476c-0.488,0.178-0.971,0.356-1.449,0.531
			c-0.473,0.192-0.916,0.421-1.381,0.611c-0.949,0.362-1.746,0.904-2.615,1.329c-1.615,0.986-3.146,2.009-4.365,3.166
			c-0.313,0.285-0.641,0.553-0.93,0.84c-0.268,0.299-0.529,0.598-0.801,0.882c-0.582,0.553-0.961,1.179-1.412,1.74
			c-0.482,0.555-0.74,1.158-1.098,1.691c-0.365,0.534-0.582,1.068-0.812,1.557c-0.211,0.488-0.473,0.928-0.598,1.33
			c-0.14,0.408-0.258,0.756-0.353,1.037c-0.209,0.581-0.317,0.89-0.317,0.89s-0.082-0.312-0.199-0.916
			c-0.109-0.606-0.34-1.52-0.307-2.699c-0.021-0.598-0.033-1.268,0.086-1.977c0.1-0.714,0.162-1.526,0.418-2.329
			c0.229-0.814,0.457-1.716,0.862-2.581c0.187-0.445,0.394-0.896,0.605-1.363c0.229-0.451,0.506-0.889,0.771-1.352
			c1.068-1.858,2.584-3.621,4.355-5.32c0.924-0.784,1.873-1.64,2.945-2.334c0.526-0.363,1.057-0.75,1.623-1.076
			c0.571-0.315,1.149-0.635,1.731-0.956c2.363-1.216,4.947-2.226,7.666-2.82c0.685-0.148,1.348-0.322,2.06-0.448
			c0.729-0.114,1.463-0.205,2.198-0.291c0.357-0.04,0.759-0.099,1.082-0.119l0.943-0.047l2.063-0.093
			c2.813,0.101,5.642,0.288,8.345,1.005c2.715,0.604,5.303,1.602,7.662,2.825c0.584,0.32,1.159,0.639,1.731,0.953
			c0.566,0.327,1.094,0.719,1.623,1.078c1.07,0.696,2.021,1.547,2.943,2.334c1.771,1.698,3.285,3.46,4.354,5.316
			c0.267,0.464,0.541,0.899,0.771,1.352c0.213,0.467,0.42,0.918,0.604,1.362c0.406,0.865,0.637,1.766,0.863,2.58
			c0.258,0.801,0.318,1.613,0.42,2.325c0.117,0.701,0.113,1.396,0.094,2.003c0.035,1.219-0.203,2.062-0.309,2.668
			C270.32,176.876,270.252,177.197,270.252,177.197z"/>
		<path d="M177.648,177.197c0,0-0.11-0.308-0.316-0.887c-0.096-0.288-0.214-0.646-0.354-1.066c-0.126-0.431-0.391-0.848-0.599-1.333
			c-0.228-0.477-0.438-0.986-0.805-1.528c-0.356-0.535-0.615-1.14-1.095-1.692c-0.452-0.563-0.83-1.189-1.411-1.743
			c-0.261-0.288-0.528-0.582-0.803-0.883c-0.288-0.288-0.617-0.558-0.929-0.841c-1.22-1.159-2.751-2.182-4.366-3.171
			c-0.873-0.422-1.667-0.967-2.617-1.327c-0.463-0.194-0.91-0.418-1.382-0.612c-0.479-0.175-0.963-0.354-1.449-0.531
			c-0.476-0.201-0.991-0.321-1.496-0.474c-0.507-0.146-1.003-0.324-1.522-0.448c-1.056-0.202-2.087-0.503-3.175-0.642
			c-2.142-0.396-4.371-0.496-6.589-0.547c-0.842,0.06-2.574,0.016-3.446,0.161c-0.511,0.06-1.021,0.115-1.532,0.146
			c-0.523,0.057-1.074,0.169-1.609,0.246c-1.087,0.138-2.116,0.446-3.172,0.645c-0.521,0.124-1.017,0.303-1.523,0.448
			c-0.502,0.157-1.02,0.274-1.493,0.476c-0.486,0.178-0.971,0.356-1.449,0.531c-0.473,0.192-0.915,0.421-1.381,0.611
			c-0.948,0.362-1.745,0.904-2.614,1.329c-1.616,0.986-3.146,2.009-4.366,3.166c-0.312,0.285-0.64,0.553-0.928,0.84
			c-0.271,0.299-0.529,0.598-0.804,0.882c-0.581,0.553-0.961,1.179-1.412,1.74c-0.48,0.555-0.738,1.158-1.097,1.691
			c-0.364,0.534-0.582,1.068-0.812,1.557c-0.209,0.488-0.474,0.928-0.598,1.33c-0.139,0.408-0.257,0.756-0.353,1.037
			c-0.207,0.581-0.317,0.89-0.317,0.89s-0.081-0.312-0.198-0.916c-0.109-0.606-0.34-1.52-0.308-2.699
			c-0.021-0.598-0.032-1.268,0.086-1.977c0.102-0.714,0.163-1.526,0.418-2.329c0.229-0.814,0.456-1.716,0.863-2.581
			c0.185-0.445,0.394-0.896,0.604-1.363c0.231-0.451,0.507-0.889,0.772-1.352c1.067-1.858,2.583-3.621,4.354-5.32
			c0.926-0.784,1.873-1.64,2.944-2.334c0.528-0.363,1.06-0.75,1.623-1.076c0.572-0.315,1.15-0.635,1.733-0.956
			c2.361-1.216,4.947-2.226,7.666-2.82c0.685-0.148,1.348-0.322,2.06-0.448c0.728-0.114,1.462-0.205,2.197-0.291
			c0.357-0.04,0.759-0.099,1.084-0.119l0.941-0.047l2.063-0.093c2.812,0.101,5.642,0.288,8.344,1.005
			c2.715,0.604,5.303,1.602,7.663,2.825c0.582,0.32,1.16,0.639,1.732,0.953c0.564,0.327,1.092,0.719,1.621,1.078
			c1.069,0.696,2.021,1.547,2.942,2.334c1.771,1.698,3.286,3.46,4.354,5.316c0.266,0.464,0.54,0.899,0.771,1.352
			c0.212,0.467,0.419,0.918,0.604,1.362c0.408,0.865,0.638,1.766,0.863,2.58c0.259,0.801,0.318,1.613,0.421,2.325
			c0.117,0.701,0.113,1.396,0.094,2.003c0.035,1.219-0.203,2.062-0.31,2.668C177.716,176.876,177.648,177.197,177.648,177.197z"/>
	</g>
</g>
</svg>
