<?xml version="1.0" encoding="utf-8"?>
<!-- Generator: Adobe Illustrator 16.0.0, SVG Export Plug-In . SVG Version: 6.00 Build 0)  -->
<!DOCTYPE svg PUBLIC "-//W3C//DTD SVG 1.1//EN" "http://www.w3.org/Graphics/SVG/1.1/DTD/svg11.dtd">
<svg version="1.1" id="Layer_1" xmlns="http://www.w3.org/2000/svg" xmlns:xlink="http://www.w3.org/1999/xlink" x="0px" y="0px"
	 width="386.32px" height="386.324px" viewBox="0 0 386.32 386.324" enable-background="new 0 0 386.32 386.324"
	 xml:space="preserve">
<g>
	<g>
		<path fill="#FFFFFF" d="M294.202,171.682c0-52.064-45.238-94.271-101.043-94.271c-55.803,0-101.042,42.207-101.042,94.271
			c0,26.404,11.639,50.267,30.386,67.38l-6.646,39.598c-0.437,11.674,8.52,22.299,21.212,24.461s24.66-4.898,28.115-16.059
			l2.912-16.842l0.044,18.141c1.53,11.582,12.143,20.553,25.018,20.553s23.488-8.971,25.021-20.553l0.044-18.141l2.91,16.842
			c3.455,11.16,15.425,18.221,28.115,16.059c12.693-2.162,21.648-12.787,21.213-24.461l-6.646-39.598
			C282.562,221.949,294.202,198.086,294.202,171.682z"/>
		<g>
			<ellipse transform="matrix(0.4417 -0.8972 0.8972 0.4417 -86.0908 281.0739)" cx="182.788" cy="209.708" rx="8.355" ry="5.751"/>
			<ellipse transform="matrix(0.4417 0.8972 -0.8972 0.4417 301.1152 -64.4848)" cx="202.369" cy="209.693" rx="8.355" ry="5.751"/>
		</g>
	</g>
	<g>
		<path d="M116.953,164.658c0,15.964,12.942,28.906,28.906,28.906s28.906-12.942,28.906-28.906c0-0.039-0.003-0.077-0.003-0.116
			h-57.808C116.956,164.581,116.953,164.619,116.953,164.658z"/>
		<path d="M209.557,164.658c0,15.964,12.94,28.906,28.905,28.906c15.966,0,28.906-12.942,28.906-28.906
			c0-0.039-0.004-0.077-0.004-0.116h-57.807C209.559,164.581,209.557,164.619,209.557,164.658z"/>
	</g>
</g>
</svg>
