<?xml version="1.0" encoding="utf-8"?>
<!-- Generator: Adobe Illustrator 16.0.0, SVG Export Plug-In . SVG Version: 6.00 Build 0)  -->
<!DOCTYPE svg PUBLIC "-//W3C//DTD SVG 1.1//EN" "http://www.w3.org/Graphics/SVG/1.1/DTD/svg11.dtd">
<svg version="1.1" id="Layer_1" xmlns="http://www.w3.org/2000/svg" xmlns:xlink="http://www.w3.org/1999/xlink" x="0px" y="0px"
	 width="386.32px" height="386.324px" viewBox="0 0 386.32 386.324" enable-background="new 0 0 386.32 386.324"
	 xml:space="preserve">
<g>
	<g>
		<path fill="#FFFFFF" d="M294.202,171.682c0-52.064-45.238-94.271-101.043-94.271c-55.802,0-101.041,42.206-101.041,94.271
			c0,26.404,11.639,50.267,30.386,67.38l-6.646,39.598c-0.437,11.675,8.52,22.299,21.212,24.462
			c12.692,2.162,24.659-4.897,28.114-16.058l2.912-16.844l0.045,18.143c1.53,11.582,12.142,20.551,25.017,20.551
			s23.488-8.969,25.021-20.551l0.045-18.143l2.909,16.844c3.455,11.158,15.425,18.22,28.115,16.058
			c12.693-2.163,21.648-12.787,21.213-24.462l-6.646-39.598C282.563,221.948,294.202,198.086,294.202,171.682z"/>
		<g>
			<ellipse transform="matrix(0.4416 -0.8972 0.8972 0.4416 -86.0875 281.08)" cx="182.768" cy="209.7" rx="8.354" ry="5.75"/>
			<ellipse transform="matrix(0.4416 0.8972 -0.8972 0.4416 301.1678 -64.4675)" cx="202.375" cy="209.716" rx="8.354" ry="5.749"/>
		</g>
	</g>
	<g>
		<circle cx="145.86" cy="174.927" r="17.906"/>
		<circle cx="238.464" cy="163.927" r="28.906"/>
	</g>
</g>
</svg>
