<?xml version="1.0" encoding="utf-8"?>
<!-- Generator: Adobe Illustrator 16.0.0, SVG Export Plug-In . SVG Version: 6.00 Build 0)  -->
<!DOCTYPE svg PUBLIC "-//W3C//DTD SVG 1.1//EN" "http://www.w3.org/Graphics/SVG/1.1/DTD/svg11.dtd">
<svg version="1.1" id="Layer_1" xmlns="http://www.w3.org/2000/svg" xmlns:xlink="http://www.w3.org/1999/xlink" x="0px" y="0px"
	 width="386.32px" height="386.324px" viewBox="0 0 386.32 386.324" enable-background="new 0 0 386.32 386.324"
	 xml:space="preserve">
<g>
	<g>
		<path fill="#FFFFFF" d="M291.449,180.775c0-52.064-45.238-94.271-101.042-94.271S89.365,128.711,89.365,180.775
			c0,26.403,11.639,50.267,30.386,67.381l-6.646,39.598c-0.437,11.674,8.52,22.299,21.212,24.461
			c12.691,2.162,24.66-4.897,28.115-16.059l2.91-16.842l0.046,18.141c1.53,11.582,12.144,20.553,25.019,20.553
			s23.487-8.971,25.018-20.553l0.046-18.141l2.911,16.842c3.455,11.16,15.423,18.221,28.115,16.059
			c12.691-2.162,21.646-12.787,21.211-24.461l-6.645-39.598C279.81,231.042,291.449,207.18,291.449,180.775z"/>
		<g>
			<ellipse transform="matrix(0.4416 -0.8972 0.8972 0.4416 -95.7747 283.6965)" cx="180.027" cy="218.791" rx="8.356" ry="5.751"/>
			<ellipse transform="matrix(0.4416 0.8972 -0.8972 0.4416 307.7668 -56.9423)" cx="199.631" cy="218.788" rx="8.357" ry="5.75"/>
		</g>
	</g>
	<g>
		<path d="M120.66,155.129c-4.243,5.031-6.805,11.525-6.805,18.623c0,15.964,12.94,28.906,28.906,28.906
			c13.113,0,24.183-8.737,27.719-20.705L120.66,155.129z"/>
		<path d="M257.467,155.457c4.244,5.031,6.806,11.526,6.806,18.623c0,15.965-12.941,28.906-28.906,28.906
			c-13.113,0-24.182-8.736-27.719-20.705L257.467,155.457z"/>
	</g>
</g>
</svg>
