<?xml version="1.0" encoding="utf-8"?>
<!-- Generator: Adobe Illustrator 16.0.0, SVG Export Plug-In . SVG Version: 6.00 Build 0)  -->
<!DOCTYPE svg PUBLIC "-//W3C//DTD SVG 1.1//EN" "http://www.w3.org/Graphics/SVG/1.1/DTD/svg11.dtd">
<svg version="1.1" id="Layer_1" xmlns="http://www.w3.org/2000/svg" xmlns:xlink="http://www.w3.org/1999/xlink" x="0px" y="0px"
	 width="386.32px" height="386.324px" viewBox="0 0 386.32 386.324" enable-background="new 0 0 386.32 386.324"
	 xml:space="preserve">
<g id="Layer_1_1_">
	<g>
		<g>
			<path fill="#FFFFFF" d="M294.202,171.681c0-52.064-45.238-94.271-101.042-94.271c-55.806,0-101.042,42.207-101.042,94.271
				c0,26.404,11.639,50.268,30.385,67.381l-6.646,39.596c-0.437,11.679,8.521,22.302,21.212,24.461
				c12.692,2.167,24.66-4.896,28.115-16.057l2.912-16.844l0.044,18.143c1.53,11.582,12.146,20.554,25.021,20.554
				s23.485-8.972,25.02-20.554l0.044-18.143l2.912,16.844c3.454,11.156,15.423,18.224,28.114,16.057
				c12.69-2.159,21.646-12.782,21.212-24.461l-6.646-39.596C282.561,221.948,294.202,198.085,294.202,171.681z"/>
			<g>
				<ellipse transform="matrix(0.8972 0.4416 -0.4416 0.8972 111.3781 -59.1513)" cx="182.763" cy="209.697" rx="5.75" ry="8.355"/>
				
					<ellipse transform="matrix(-0.8972 0.4417 -0.4417 -0.8972 476.5936 308.4413)" cx="202.394" cy="209.697" rx="5.75" ry="8.355"/>
			</g>
		</g>
		<g>
			<polygon points="201.809,148.034 201.809,165.437 201.809,169.056 201.809,170.463 184.254,170.463 184.254,169.056 
				184.254,167.708 184.254,165.437 184.254,148.034 107.171,148.034 107.171,194.891 184.254,194.891 184.254,176.79 
				184.254,173.999 201.809,173.999 201.809,176.79 201.809,194.891 278.892,194.891 278.892,172.088 278.892,167.708 
				278.892,148.034 			"/>
			<polyline opacity="0.3" fill="#FFFFFF" enable-background="new    " points="107.171,194.891 184.254,148.034 184.254,159.386 
				125.286,194.891 			"/>
			<polyline opacity="0.3" fill="#FFFFFF" enable-background="new    " points="201.809,194.891 278.892,148.034 278.892,159.386 
				219.924,194.891 			"/>
		</g>
	</g>
</g>
</svg>
