<?xml version="1.0" encoding="utf-8"?>
<!-- Generator: Adobe Illustrator 16.0.0, SVG Export Plug-In . SVG Version: 6.00 Build 0)  -->
<!DOCTYPE svg PUBLIC "-//W3C//DTD SVG 1.1//EN" "http://www.w3.org/Graphics/SVG/1.1/DTD/svg11.dtd">
<svg version="1.1" id="Layer_1" xmlns="http://www.w3.org/2000/svg" xmlns:xlink="http://www.w3.org/1999/xlink" x="0px" y="0px"
	 width="386.32px" height="386.324px" viewBox="0 0 386.32 386.324" enable-background="new 0 0 386.32 386.324"
	 xml:space="preserve">
<g>
	<g>
		<path fill="#FFFFFF" d="M291.347,239.047c0-52.063-45.238-94.27-101.042-94.27c-55.805,0-101.041,42.207-101.041,94.27
			c0,26.405,11.639,50.27,30.385,67.383l-6.646,39.599c-0.436,11.675,8.521,22.299,21.211,24.461
			c12.693,2.163,24.66-4.897,28.115-16.06l2.912-16.842l0.045,18.141c1.531,11.582,12.145,20.554,25.02,20.554
			s23.486-8.972,25.019-20.554l0.045-18.141l2.91,16.842c3.455,11.16,15.424,18.223,28.115,16.06
			c12.691-2.162,21.646-12.786,21.213-24.461l-6.646-39.599C279.709,289.314,291.347,265.452,291.347,239.047z"/>
		<g>
			
				<ellipse transform="matrix(-0.8972 -0.4416 0.4416 -0.8972 219.0231 605.1265)" cx="179.943" cy="277.071" rx="5.75" ry="8.357"/>
			<ellipse transform="matrix(0.8971 -0.4417 0.4417 0.8971 -101.8705 116.6392)" cx="199.532" cy="277.073" rx="5.75" ry="8.356"/>
		</g>
	</g>
	<circle cx="143.005" cy="231.295" r="28.906"/>
	<circle cx="235.609" cy="231.295" r="28.906"/>
	<g>
		<path d="M266.492,167.31V18.41c0-4.373-32.615-7.917-72.845-7.917c-40.232,0-72.85,3.544-72.85,7.917v148.9
			c-32.164,2.339-53.15,6.186-53.15,10.533c0,7.131,56.412,12.91,126,12.91c69.587,0,126-5.779,126-12.91
			C319.646,173.496,298.656,169.647,266.492,167.31z"/>
		<path fill="#2E3192" d="M120.799,148.394c51.112,4.268,47.47,4.75,145.693,0v18.916c0,0-61.594,13.1-145.693,0V148.394z"/>
	</g>
</g>
</svg>
