<?xml version="1.0" encoding="utf-8"?>
<!-- Generator: Adobe Illustrator 16.0.0, SVG Export Plug-In . SVG Version: 6.00 Build 0)  -->
<!DOCTYPE svg PUBLIC "-//W3C//DTD SVG 1.1//EN" "http://www.w3.org/Graphics/SVG/1.1/DTD/svg11.dtd">
<svg version="1.1" id="Layer_1" xmlns="http://www.w3.org/2000/svg" xmlns:xlink="http://www.w3.org/1999/xlink" x="0px" y="0px"
	 width="386.32px" height="386.324px" viewBox="0 0 386.32 386.324" enable-background="new 0 0 386.32 386.324"
	 xml:space="preserve">
<g>
	<g>
		<path fill="#FFFFFF" d="M293.353,213.701c0-52.063-45.238-94.27-101.041-94.27c-55.806,0-101.043,42.206-101.043,94.27
			c0,26.404,11.639,50.268,30.387,67.381l-6.646,39.598c-0.436,11.676,8.521,22.299,21.214,24.462
			c12.69,2.162,24.659-4.896,28.114-16.058l2.91-16.843l0.045,18.142c1.531,11.581,12.146,20.551,25.021,20.551
			s23.485-8.97,25.018-20.551l0.045-18.142l2.912,16.843c3.455,11.16,15.422,18.22,28.115,16.058
			c12.691-2.163,21.646-12.786,21.211-24.462l-6.645-39.598C281.715,263.969,293.353,240.105,293.353,213.701z"/>
		<g>
			<ellipse transform="matrix(0.4416 -0.8972 0.8972 0.4416 -124.2692 303.763)" cx="181.914" cy="251.722" rx="8.355" ry="5.75"/>
			<ellipse transform="matrix(0.4416 0.8972 -0.8972 0.4416 338.3944 -40.2404)" cx="201.525" cy="251.736" rx="8.355" ry="5.75"/>
		</g>
	</g>
	<path d="M266.521,210.605c0,0-0.109-0.308-0.316-0.887c-0.096-0.289-0.213-0.646-0.352-1.066c-0.127-0.432-0.392-0.848-0.601-1.332
		c-0.227-0.478-0.438-0.986-0.805-1.53c-0.355-0.533-0.615-1.138-1.094-1.692c-0.453-0.562-0.83-1.188-1.412-1.74
		c-0.26-0.289-0.527-0.582-0.803-0.883c-0.287-0.289-0.617-0.559-0.929-0.842c-1.219-1.158-2.75-2.184-4.367-3.171
		c-0.87-0.422-1.665-0.967-2.616-1.329c-0.463-0.191-0.91-0.416-1.381-0.609c-0.479-0.176-0.964-0.354-1.449-0.533
		c-0.476-0.199-0.992-0.319-1.496-0.473c-0.508-0.146-1.004-0.324-1.523-0.449c-1.055-0.2-2.086-0.501-3.174-0.642
		c-2.143-0.396-4.371-0.495-6.59-0.546c-0.842,0.06-2.574,0.015-3.445,0.161c-0.512,0.061-1.021,0.115-1.533,0.146
		c-0.522,0.057-1.073,0.169-1.608,0.246c-1.088,0.137-2.117,0.446-3.172,0.645c-0.521,0.124-1.017,0.303-1.523,0.448
		c-0.502,0.154-1.02,0.273-1.494,0.476c-0.485,0.179-0.971,0.354-1.448,0.531c-0.474,0.192-0.916,0.42-1.382,0.61
		c-0.948,0.362-1.745,0.904-2.614,1.33c-1.615,0.985-3.146,2.008-4.365,3.166c-0.312,0.284-0.641,0.553-0.928,0.84
		c-0.271,0.299-0.529,0.598-0.804,0.881c-0.582,0.555-0.961,1.18-1.412,1.742c-0.481,0.551-0.739,1.157-1.098,1.69
		c-0.363,0.533-0.582,1.067-0.811,1.554c-0.209,0.49-0.474,0.93-0.599,1.332c-0.139,0.408-0.256,0.756-0.352,1.037
		c-0.207,0.58-0.318,0.891-0.318,0.891s-0.08-0.313-0.199-0.916c-0.108-0.606-0.338-1.521-0.307-2.699
		c-0.021-0.598-0.031-1.268,0.086-1.979c0.103-0.713,0.164-1.524,0.418-2.328c0.229-0.813,0.457-1.716,0.863-2.582
		c0.186-0.443,0.395-0.896,0.604-1.361c0.23-0.451,0.507-0.889,0.771-1.354c1.068-1.857,2.584-3.619,4.354-5.319
		c0.927-0.784,1.873-1.64,2.945-2.335c0.527-0.362,1.06-0.749,1.623-1.075c0.572-0.316,1.15-0.635,1.732-0.956
		c2.362-1.217,4.948-2.226,7.666-2.82c0.686-0.15,1.348-0.323,2.061-0.447c0.728-0.115,1.461-0.207,2.197-0.292
		c0.356-0.041,0.758-0.099,1.084-0.119l0.94-0.047l2.063-0.095c2.813,0.102,5.643,0.289,8.344,1.006
		c2.715,0.604,5.303,1.603,7.664,2.825c0.582,0.321,1.16,0.639,1.732,0.955c0.563,0.325,1.092,0.717,1.621,1.077
		c1.069,0.694,2.021,1.546,2.942,2.334c1.771,1.696,3.287,3.46,4.354,5.315c0.266,0.465,0.541,0.899,0.772,1.352
		c0.211,0.466,0.418,0.919,0.604,1.363c0.408,0.865,0.637,1.766,0.862,2.58c0.259,0.801,0.318,1.611,0.421,2.324
		c0.118,0.701,0.114,1.396,0.094,2.004c0.035,1.219-0.201,2.061-0.31,2.666C266.59,210.286,266.521,210.605,266.521,210.605z"/>
	<path d="M173.918,210.605c0,0-0.108-0.308-0.315-0.887c-0.097-0.289-0.213-0.646-0.353-1.066c-0.127-0.432-0.391-0.848-0.6-1.332
		c-0.228-0.478-0.439-0.986-0.805-1.53c-0.355-0.533-0.615-1.138-1.095-1.692c-0.453-0.562-0.83-1.188-1.412-1.74
		c-0.26-0.289-0.526-0.582-0.803-0.883c-0.287-0.289-0.617-0.559-0.928-0.842c-1.219-1.158-2.75-2.182-4.367-3.171
		c-0.873-0.422-1.666-0.967-2.617-1.329c-0.463-0.191-0.91-0.416-1.381-0.609c-0.479-0.176-0.963-0.354-1.451-0.531
		c-0.473-0.201-0.99-0.321-1.494-0.475c-0.508-0.146-1.004-0.324-1.522-0.447c-1.055-0.202-2.086-0.503-3.174-0.642
		c-0.541-0.08-1.074-0.189-1.621-0.249c-0.549-0.039-1.099-0.086-1.646-0.15c-0.547-0.077-1.102-0.093-1.655-0.101l-0.834-0.021
		l-0.416-0.014l-0.207-0.007l-0.105-0.002l-0.051-0.002l-0.027-0.002c0.07-0.001-0.19,0.004,0.15-0.004l-1.89,0.057l-0.942,0.027
		c-0.303,0.013-0.523,0.057-0.789,0.081c-0.512,0.061-1.021,0.115-1.533,0.146c-0.522,0.057-1.074,0.169-1.609,0.246
		c-1.088,0.137-2.116,0.446-3.174,0.645c-0.52,0.124-1.014,0.303-1.521,0.447c-0.502,0.156-1.021,0.274-1.494,0.477
		c-0.488,0.178-0.971,0.354-1.449,0.531c-0.473,0.191-0.916,0.42-1.381,0.611c-0.949,0.361-1.746,0.903-2.615,1.328
		c-1.615,0.986-3.146,2.01-4.365,3.166c-0.311,0.285-0.641,0.553-0.928,0.84c-0.27,0.299-0.528,0.599-0.803,0.881
		c-0.582,0.556-0.961,1.181-1.412,1.742c-0.482,0.553-0.74,1.158-1.098,1.691c-0.363,0.533-0.582,1.066-0.812,1.555
		c-0.209,0.489-0.473,0.93-0.598,1.332c-0.139,0.407-0.256,0.756-0.353,1.036c-0.207,0.58-0.317,0.89-0.317,0.89
		s-0.08-0.312-0.199-0.916c-0.109-0.605-0.338-1.52-0.307-2.698c-0.021-0.599-0.031-1.269,0.086-1.978
		c0.102-0.714,0.164-1.525,0.418-2.328c0.229-0.814,0.457-1.717,0.862-2.582c0.187-0.444,0.396-0.896,0.605-1.362
		c0.23-0.451,0.506-0.89,0.771-1.353c1.067-1.858,2.584-3.621,4.354-5.32c0.926-0.784,1.873-1.64,2.945-2.335
		c0.526-0.362,1.059-0.749,1.623-1.075c0.571-0.316,1.149-0.635,1.731-0.956c2.363-1.216,4.949-2.226,7.666-2.82
		c0.685-0.148,1.349-0.323,2.062-0.447c0.727-0.115,1.461-0.207,2.196-0.292c0.357-0.041,0.759-0.099,1.084-0.119l0.941-0.047
		l1.887-0.091l0.209-0.001h0.033l0.066,0.003l0.131,0.006l0.264,0.013l0.529,0.024l1.055,0.051c0.703,0.026,1.404,0.068,2.103,0.173
		c0.696,0.083,1.393,0.181,2.084,0.288c0.688,0.121,1.369,0.298,2.047,0.445c2.715,0.604,5.303,1.603,7.662,2.825
		c0.584,0.321,1.162,0.639,1.733,0.955c0.564,0.325,1.092,0.718,1.621,1.077c1.07,0.696,2.021,1.546,2.943,2.334
		c1.771,1.697,3.285,3.46,4.354,5.316c0.267,0.463,0.541,0.898,0.771,1.351c0.213,0.466,0.42,0.919,0.604,1.362
		c0.408,0.865,0.638,1.767,0.863,2.58c0.258,0.802,0.318,1.612,0.42,2.326c0.119,0.7,0.115,1.396,0.094,2.002
		c0.035,1.219-0.2,2.062-0.309,2.668C173.986,210.286,173.918,210.605,173.918,210.605z"/>
	<g>
		<g>
			<path fill="#FFFFFF" d="M111.092,111.172l-9.61,15.269l8.887-17.726c-1.137-3.914-2.229-7.989-3.268-12.111l-5.953,6.837
				l5.233-9.732c-0.614-2.509-1.211-5.022-1.782-7.514l-9.216,15.579l6.97-25.762l0,0c-1.197-5.638-2.248-10.938-3.125-15.543
				l-7.914,13.638l7.051-18.246c-1.326-7.188-2.072-11.79-2.072-11.79c-1.426-3.523-3.094-6.062-4.879-7.843l-6.266,5.546
				l4.194-7.258c-7.848-5.182-17.004,2.021-18.356,6.628c0,0-0.988,4.246-1.885,11.047l9.381,10.583l-9.681-8.191
				c-0.563,4.813-1.024,10.654-1.102,17.037c3.193,1.991,9.639,5.977,12.988,7.83l2.074,0.991c-0.203,0-0.974-0.381-2.074-0.991
				l-13.004-5.204c-0.009,9.18,0.825,18.388,3.373,28.306l13.756,8.035l-12.914-4.962c0.545,1.841,1.158,3.664,1.834,5.467
				l9.029,2.022l-8.205,0.056c5.266,12.855,14.198,24.305,28.952,31.075l17.111,6l3.385-11.174
				C119.486,135.277,115.049,124.341,111.092,111.172z"/>
			<g>
				<path fill="#BCBEC0" d="M83.996,37.001c0,0-0.678,7.054-0.659,17.66c0.003,2.65,0.053,5.521,0.165,8.553
					c0.125,3.032,0.25,6.228,0.508,9.525c0.229,3.299,0.575,6.697,0.977,10.141c0.445,3.438,0.935,6.925,1.583,10.381l0.486,2.59
					l0.556,2.569c0.347,1.714,0.789,3.398,1.216,5.07c0.875,3.338,1.841,6.586,2.867,9.696c0.532,1.547,1.055,3.068,1.567,4.556
					c0.563,1.468,1.116,2.904,1.654,4.302c0.598,1.373,1.177,2.709,1.739,4.001c0.615,1.269,1.208,2.494,1.778,3.67
					c0.628,1.147,1.229,2.247,1.802,3.292c0.547,1.066,1.224,1.973,1.76,2.897c0.28,0.454,0.552,0.894,0.814,1.318
					c0.269,0.42,0.563,0.798,0.829,1.176c0.53,0.76,1.018,1.458,1.458,2.088c0.905,1.244,1.727,2.136,2.223,2.804
					c0.515,0.654,0.789,1.003,0.789,1.003l-0.21,0.214c0,0-0.333-0.295-0.956-0.85c-0.615-0.564-1.55-1.368-2.648-2.484
					c-1.043-1.159-2.436-2.49-3.729-4.254c-1.39-1.699-2.771-3.749-4.224-6.027c-0.672-1.171-1.371-2.39-2.096-3.652
					c-0.643-1.305-1.308-2.654-1.991-4.041c-0.635-1.408-1.238-2.876-1.865-4.373c-0.565-1.518-1.12-3.08-1.665-4.671
					c-0.467-1.616-0.986-3.247-1.42-4.919c-0.416-1.677-0.877-3.366-1.21-5.095c-0.358-1.724-0.732-3.458-1.026-5.212l-0.468-2.63
					l-0.396-2.646c-0.545-3.525-0.928-7.068-1.268-10.555c-0.294-3.492-0.535-6.929-0.659-10.26c-0.146-3.329-0.2-6.549-0.186-9.602
					c0.017-3.052,0.09-5.936,0.198-8.595c0.43-10.641,1.408-17.674,1.408-17.674L83.996,37.001z"/>
			</g>
		</g>
		<path d="M318.56,121.771c-12.447-8.352-26.054,9.482-36.813,10.395c0,0-29.85-57.521-85.34-59.629
			c-1.338-0.095-2.693-0.15-4.055-0.185c-1.361,0.034-2.717,0.09-4.056,0.185c-55.487,2.107-85.34,59.629-85.34,59.629
			c-10.76-0.912-24.365-18.746-36.813-10.395C52.961,130.619,77.504,168.5,95.34,184.5c0,0,42.295-14.449,97.015-14.314
			c54.719-0.135,97.016,14.314,97.016,14.314C307.203,168.5,331.746,130.619,318.56,121.771z"/>
		<g>
			<path fill="#FFFFFF" d="M214.885,141.657l-19.604-8.669l-0.367-0.161l-24.393-10.785c0.924-2.021-0.5-5.171-1.732-7.419
				c-1.963-3.583-6.17-5.057-9.393-3.289c-3.213,1.76-4.236,6.073-2.302,9.648c-3.946,0.976-6.448,4.635-5.59,8.195
				c0.863,3.574,4.783,5.693,8.756,4.734c2.492-0.602,5.779-1.668,6.652-3.713l24.394,10.785l0.366,0.162l19.605,8.67
				c-0.926,2.02,0.498,5.17,1.729,7.418c1.966,3.584,6.17,5.058,9.396,3.29c3.213-1.761,4.236-6.073,2.299-9.65
				c3.949-0.974,6.449-4.633,5.59-8.195c-0.86-3.572-4.781-5.694-8.754-4.734C219.043,138.547,215.756,139.613,214.885,141.657z"/>
		</g>
		<path fill="#FFFFFF" d="M166.912,141.657l19.605-8.669l0.366-0.161l24.394-10.785c-0.926-2.021,0.498-5.171,1.729-7.419
			c1.966-3.583,6.17-5.057,9.396-3.289c3.213,1.76,4.234,6.073,2.299,9.648c3.947,0.976,6.449,4.635,5.59,8.195
			c-0.862,3.574-4.781,5.693-8.754,4.734c-2.494-0.602-5.781-1.668-6.654-3.713l-24.393,10.785l-0.367,0.162l-19.604,8.67
			c0.926,2.02-0.498,5.17-1.73,7.418c-1.963,3.584-6.17,5.058-9.393,3.29c-3.213-1.761-4.236-6.073-2.302-9.65
			c-3.946-0.974-6.448-4.633-5.59-8.195c0.863-3.572,4.783-5.694,8.754-4.734C162.752,138.547,166.039,139.613,166.912,141.657z"/>
		<g>
			<g>
				<path fill="#FFFFFF" d="M190.898,140.192c-3.021,0-5.6-2.02-6.16-4.759c-0.959,2.15-3.137,3.521-5.635,3.521
					c-0.376,0-0.756-0.032-1.131-0.096c-3.116-0.532-5.384-3.16-5.273-6.113l1.483-8.863c-4.465-4.173-6.919-9.706-6.919-15.611
					c0-12.177,10.603-22.084,23.635-22.084c13.031,0,23.633,9.907,23.633,22.084c0,5.907-2.455,11.44-6.919,15.61l1.479,8.799
					c0.114,3.018-2.151,5.646-5.267,6.177c-0.374,0.064-0.755,0.096-1.131,0.096l0,0c-2.519,0-4.708-1.39-5.645-3.517
					C196.461,138.201,193.897,140.192,190.898,140.192z"/>
				<path d="M190.898,86.688c12.774,0,23.133,9.664,23.133,21.584c0,6.045-2.664,11.508-6.957,15.427l1.523,9.065
					c0.098,2.673-1.951,5.105-4.857,5.602c-0.353,0.06-0.702,0.089-1.047,0.089c-2.495,0-4.695-1.521-5.392-3.767l-0.666-3.855
					l-0.01,4.153c-0.352,2.651-2.78,4.707-5.729,4.707s-5.377-2.056-5.729-4.707l-0.01-4.153l-0.666,3.855
					c-0.697,2.246-2.896,3.767-5.391,3.767c-0.345,0-0.694-0.029-1.047-0.089c-2.906-0.496-4.957-2.929-4.857-5.602l1.521-9.065
					c-4.291-3.919-6.957-9.382-6.957-15.427C167.763,96.352,178.121,86.688,190.898,86.688 M190.898,85.688
					c-13.309,0-24.135,10.131-24.135,22.584c0,5.958,2.438,11.545,6.882,15.791l-1.434,8.536l-0.011,0.064l-0.002,0.064
					c-0.119,3.203,2.326,6.05,5.688,6.625c0.401,0.068,0.812,0.103,1.215,0.103c2.277,0,4.311-1.06,5.507-2.763
					c1.007,2.363,3.47,4.001,6.288,4.001c2.816,0,5.279-1.637,6.288-4c1.194,1.703,3.228,2.762,5.507,2.762
					c0.404,0,0.813-0.035,1.215-0.103c3.36-0.574,5.806-3.421,5.688-6.624l-0.003-0.065l-0.011-0.064l-1.435-8.536
					c4.441-4.245,6.882-9.831,6.882-15.791C215.031,95.819,204.205,85.688,190.898,85.688L190.898,85.688z"/>
			</g>
			<g>
				<ellipse transform="matrix(0.4418 -0.8971 0.8971 0.4418 0.2832 234.4248)" cx="188.519" cy="116.985" rx="1.913" ry="1.317"/>
				
					<ellipse transform="matrix(0.4416 0.8972 -0.8972 0.4416 212.7393 -107.8447)" cx="193.009" cy="116.985" rx="1.913" ry="1.317"/>
			</g>
			<circle cx="180.069" cy="106.496" r="6.618"/>
			<circle cx="201.27" cy="106.496" r="6.618"/>
		</g>
	</g>
</g>
</svg>
