<?xml version="1.0" encoding="utf-8"?>
<!-- Generator: Adobe Illustrator 16.0.0, SVG Export Plug-In . SVG Version: 6.00 Build 0)  -->
<!DOCTYPE svg PUBLIC "-//W3C//DTD SVG 1.1//EN" "http://www.w3.org/Graphics/SVG/1.1/DTD/svg11.dtd">
<svg version="1.1" id="Layer_1" xmlns="http://www.w3.org/2000/svg" xmlns:xlink="http://www.w3.org/1999/xlink" x="0px" y="0px"
	 width="386.32px" height="386.324px" viewBox="0 0 386.32 386.324" enable-background="new 0 0 386.32 386.324"
	 xml:space="preserve">
<g>
	<g>
		<path fill="#FFFFFF" d="M292.722,212.902c0-52.063-45.238-94.271-101.043-94.271c-55.804,0-101.042,42.206-101.042,94.271
			c0,26.404,11.639,50.268,30.386,67.381l-6.646,39.598c-0.436,11.675,8.521,22.299,21.212,24.462
			c12.692,2.162,24.66-4.896,28.115-16.058l2.911-16.843l0.045,18.142c1.531,11.581,12.144,20.551,25.019,20.551
			s23.488-8.97,25.02-20.551l0.045-18.142l2.91,16.843c3.455,11.16,15.424,18.22,28.115,16.058
			c12.692-2.163,21.647-12.787,21.213-24.462l-6.646-39.598C281.084,263.17,292.722,239.307,292.722,212.902z"/>
		<g>
			<ellipse transform="matrix(0.4416 -0.8972 0.8972 0.4416 -123.8992 302.7695)" cx="181.287" cy="250.922" rx="8.355" ry="5.75"/>
			<ellipse transform="matrix(0.4416 0.8972 -0.8972 0.4416 337.3259 -40.1207)" cx="200.895" cy="250.938" rx="8.354" ry="5.75"/>
		</g>
	</g>
	<circle cx="144.969" cy="214.604" r="17.906"/>
	<circle cx="237.574" cy="203.604" r="28.906"/>
	<g>
		<g>
			<path fill="#FFFFFF" d="M110.46,110.373l-9.611,15.269l8.888-17.726c-1.137-3.914-2.229-7.989-3.269-12.111l-5.952,6.837
				l5.233-9.732c-0.615-2.509-1.211-5.022-1.783-7.514l-9.215,15.579l6.97-25.762l0,0c-1.197-5.638-2.248-10.938-3.125-15.543
				L90.68,73.308l7.051-18.246c-1.325-7.188-2.071-11.79-2.071-11.79c-1.426-3.523-3.095-6.062-4.88-7.843l-6.265,5.546l4.193-7.258
				c-7.847-5.182-17.003,2.021-18.355,6.628c0,0-0.988,4.246-1.886,11.047l9.381,10.583l-9.68-8.191
				c-0.563,4.813-1.024,10.654-1.102,17.037c3.192,1.991,9.639,5.977,12.988,7.83l2.073,0.991c-0.203,0-0.974-0.381-2.073-0.991
				l-13.005-5.204c-0.009,9.18,0.826,18.388,3.373,28.306l13.757,8.035l-12.914-4.962c0.544,1.841,1.157,3.664,1.834,5.467
				l9.028,2.022l-8.205,0.056c5.266,12.855,14.198,24.305,28.952,31.075l17.112,6l3.384-11.174
				C118.854,134.479,114.416,123.542,110.46,110.373z"/>
			<g>
				<path fill="#BCBEC0" d="M83.365,36.203c0,0-0.679,7.055-0.659,17.66c0.003,2.649,0.052,5.521,0.164,8.553
					c0.126,3.031,0.25,6.228,0.509,9.524c0.229,3.299,0.575,6.697,0.977,10.141c0.444,3.438,0.935,6.926,1.582,10.381l0.485,2.591
					l0.557,2.568c0.347,1.715,0.788,3.398,1.216,5.069c0.875,3.339,1.842,6.587,2.867,9.696c0.53,1.547,1.055,3.067,1.565,4.556
					c0.564,1.469,1.117,2.904,1.655,4.303c0.597,1.373,1.177,2.709,1.739,4.001c0.614,1.268,1.208,2.493,1.777,3.67
					c0.629,1.146,1.229,2.246,1.803,3.292c0.547,1.066,1.225,1.973,1.76,2.896c0.281,0.455,0.553,0.895,0.813,1.319
					c0.271,0.42,0.564,0.797,0.829,1.176c0.53,0.76,1.019,1.458,1.458,2.088c0.906,1.244,1.728,2.137,2.224,2.804
					c0.515,0.654,0.789,1.003,0.789,1.003l-0.21,0.214c0,0-0.333-0.296-0.956-0.85c-0.615-0.564-1.551-1.368-2.647-2.484
					c-1.044-1.159-2.436-2.489-3.729-4.254c-1.39-1.698-2.771-3.748-4.224-6.026c-0.672-1.171-1.373-2.391-2.097-3.652
					c-0.644-1.305-1.308-2.654-1.991-4.041c-0.635-1.407-1.238-2.876-1.867-4.372c-0.563-1.519-1.118-3.08-1.664-4.672
					c-0.467-1.616-0.985-3.246-1.42-4.92c-0.416-1.676-0.878-3.366-1.211-5.095c-0.356-1.725-0.731-3.457-1.024-5.212l-0.47-2.63
					l-0.396-2.646c-0.545-3.524-0.928-7.067-1.268-10.556c-0.296-3.491-0.535-6.929-0.659-10.26c-0.146-3.329-0.2-6.55-0.186-9.602
					c0.016-3.052,0.089-5.936,0.198-8.595c0.433-10.642,1.411-17.674,1.411-17.674L83.365,36.203z"/>
			</g>
		</g>
		<path d="M317.929,120.973c-12.447-8.352-26.054,9.482-36.813,10.395c0,0-29.852-57.521-85.34-59.629
			c-1.338-0.095-2.693-0.15-4.055-0.185c-1.361,0.034-2.718,0.09-4.056,0.185c-55.49,2.107-85.34,59.629-85.34,59.629
			c-10.76-0.912-24.365-18.746-36.813-10.395c-13.187,8.848,11.356,46.729,29.191,62.729c0,0,42.296-14.449,97.016-14.314
			c54.719-0.135,97.014,14.314,97.014,14.314C306.572,167.701,331.115,129.82,317.929,120.973z"/>
		<g>
			<path fill="#FFFFFF" d="M214.252,140.858l-19.604-8.669l-0.367-0.161l-24.393-10.785c0.925-2.021-0.499-5.171-1.731-7.419
				c-1.964-3.583-6.17-5.057-9.394-3.289c-3.214,1.76-4.235,6.073-2.301,9.648c-3.946,0.976-6.448,4.635-5.59,8.195
				c0.863,3.574,4.782,5.693,8.755,4.734c2.493-0.602,5.78-1.668,6.653-3.713l24.393,10.785l0.367,0.162l19.606,8.67
				c-0.926,2.02,0.498,5.17,1.729,7.418c1.963,3.584,6.17,5.058,9.394,3.29c3.213-1.761,4.235-6.073,2.301-9.65
				c3.947-0.974,6.449-4.633,5.59-8.195c-0.863-3.572-4.783-5.694-8.754-4.734C218.412,137.748,215.125,138.814,214.252,140.858z"/>
		</g>
		<path fill="#FFFFFF" d="M166.279,140.858l19.604-8.669l0.367-0.161l24.394-10.785c-0.924-2.021,0.5-5.171,1.731-7.419
			c1.963-3.583,6.17-5.057,9.394-3.289c3.213,1.76,4.235,6.073,2.301,9.648c3.947,0.976,6.449,4.635,5.59,8.195
			c-0.863,3.574-4.783,5.693-8.756,4.734c-2.492-0.602-5.779-1.668-6.652-3.713l-24.393,10.785l-0.367,0.162l-19.605,8.67
			c0.926,2.02-0.498,5.17-1.73,7.418c-1.964,3.584-6.17,5.058-9.394,3.29c-3.214-1.761-4.236-6.073-2.301-9.65
			c-3.947-0.974-6.448-4.633-5.59-8.195c0.862-3.572,4.782-5.694,8.754-4.734C162.12,137.748,165.407,138.814,166.279,140.858z"/>
		<g>
			<g>
				<path fill="#FFFFFF" d="M190.267,139.394c-3.023,0-5.604-2.021-6.16-4.761c-0.957,2.151-3.136,3.522-5.636,3.522
					c-0.375,0-0.757-0.032-1.131-0.096c-3.116-0.532-5.384-3.16-5.272-6.113l1.482-8.863c-4.464-4.173-6.919-9.706-6.919-15.611
					c0-12.177,10.604-22.084,23.636-22.084c13.031,0,23.633,9.907,23.633,22.084c0,5.907-2.455,11.44-6.92,15.611l1.477,8.799
					c0.117,3.017-2.147,5.645-5.264,6.177c-0.375,0.064-0.756,0.096-1.131,0.096l0,0c-2.521,0-4.711-1.391-5.646-3.52
					C195.832,137.401,193.267,139.394,190.267,139.394z"/>
				<path d="M190.267,85.889c12.775,0,23.133,9.664,23.133,21.584c0,6.045-2.664,11.508-6.957,15.427l1.521,9.065
					c0.101,2.673-1.95,5.105-4.854,5.602c-0.354,0.06-0.703,0.089-1.047,0.089c-2.496,0-4.695-1.521-5.392-3.767l-0.666-3.855
					l-0.012,4.153c-0.35,2.651-2.779,4.707-5.727,4.707c-2.949,0-5.379-2.056-5.729-4.707l-0.01-4.153l-0.668,3.855
					c-0.695,2.246-2.896,3.767-5.391,3.767c-0.344,0-0.692-0.029-1.046-0.089c-2.906-0.496-4.958-2.929-4.857-5.602l1.521-9.065
					c-4.291-3.919-6.957-9.382-6.957-15.427C167.132,95.553,177.49,85.889,190.267,85.889 M190.267,84.889
					c-13.309,0-24.136,10.131-24.136,22.584c0,5.958,2.439,11.545,6.883,15.791l-1.434,8.536l-0.011,0.064l-0.002,0.063
					c-0.119,3.203,2.327,6.05,5.688,6.625c0.402,0.068,0.812,0.104,1.215,0.104c2.278,0,4.312-1.06,5.507-2.763
					c1.006,2.363,3.469,4.001,6.289,4.001c2.818,0,5.281-1.638,6.288-4.001c1.194,1.703,3.229,2.763,5.508,2.763
					c0.403,0,0.813-0.035,1.215-0.104c3.361-0.574,5.807-3.422,5.686-6.625l-0.002-0.063l-0.01-0.064l-1.434-8.536
					c4.442-4.244,6.883-9.831,6.883-15.791C214.4,95.02,203.574,84.889,190.267,84.889L190.267,84.889z"/>
			</g>
			<g>
				<ellipse transform="matrix(0.4416 -0.8972 0.8972 0.4416 0.6757 233.4451)" cx="187.879" cy="116.18" rx="1.912" ry="1.317"/>
				
					<ellipse transform="matrix(0.4413 0.8973 -0.8973 0.4413 211.718 -107.7191)" cx="192.369" cy="116.174" rx="1.913" ry="1.318"/>
			</g>
			<circle cx="179.436" cy="105.697" r="6.618"/>
			<circle cx="200.639" cy="105.697" r="6.618"/>
		</g>
	</g>
</g>
</svg>
