<?xml version="1.0" encoding="utf-8"?>
<!-- Generator: Adobe Illustrator 16.0.0, SVG Export Plug-In . SVG Version: 6.00 Build 0)  -->
<!DOCTYPE svg PUBLIC "-//W3C//DTD SVG 1.1//EN" "http://www.w3.org/Graphics/SVG/1.1/DTD/svg11.dtd">
<svg version="1.1" id="Layer_1" xmlns="http://www.w3.org/2000/svg" xmlns:xlink="http://www.w3.org/1999/xlink" x="0px" y="0px"
	 width="386.32px" height="386.324px" viewBox="0 0 386.32 386.324" enable-background="new 0 0 386.32 386.324"
	 xml:space="preserve">
<g>
	<g>
		<path fill="#FFFFFF" d="M292.395,211.549c0-52.064-45.238-94.271-101.043-94.271c-55.804,0-101.041,42.207-101.041,94.271
			c0,26.402,11.639,50.268,30.385,67.381l-6.646,39.598c-0.436,11.675,8.521,22.299,21.212,24.461
			c12.692,2.163,24.659-4.897,28.114-16.059l2.912-16.842l0.045,18.141c1.531,11.582,12.144,20.553,25.019,20.553
			s23.487-8.971,25.02-20.553l0.045-18.141l2.91,16.842c3.455,11.16,15.424,18.222,28.115,16.059
			c12.692-2.162,21.647-12.786,21.213-24.461l-6.646-39.598C280.757,261.814,292.395,237.951,292.395,211.549z"/>
		<g>
			
				<ellipse transform="matrix(0.4416 -0.8972 0.8972 0.4416 -122.8688 301.7161)" cx="180.956" cy="249.567" rx="8.355" ry="5.749"/>
			<ellipse transform="matrix(0.4416 0.8972 -0.8972 0.4416 335.9116 -40.5913)" cx="200.568" cy="249.582" rx="8.355" ry="5.75"/>
		</g>
	</g>
	<circle cx="144.053" cy="203.794" r="28.906"/>
	<circle cx="236.657" cy="203.794" r="28.906"/>
	<g>
		<g>
			<path fill="#FFFFFF" d="M110.093,109.802l-9.612,15.268l8.887-17.724c-1.135-3.914-2.229-7.991-3.268-12.112l-5.953,6.836
				l5.233-9.731c-0.614-2.509-1.211-5.021-1.782-7.514l-9.216,15.579l6.97-25.762v0.001c-1.195-5.64-2.248-10.939-3.125-15.543
				l-7.914,13.637l7.051-18.247C96.036,47.302,95.29,42.7,95.29,42.7c-1.426-3.522-3.094-6.062-4.879-7.844l-6.266,5.547
				l4.194-7.258c-7.848-5.182-17.004,2.021-18.354,6.628c0,0-0.99,4.246-1.885,11.047l9.379,10.583l-9.679-8.19
				c-0.563,4.813-1.026,10.653-1.104,17.036c3.193,1.991,9.641,5.978,12.99,7.83l2.074,0.99c-0.205,0-0.976-0.381-2.074-0.99
				l-13.006-5.204c-0.009,9.18,0.825,18.389,3.373,28.306l13.758,8.035l-12.916-4.962c0.545,1.841,1.158,3.664,1.836,5.467
				l9.029,2.023l-8.207,0.055c5.266,12.855,14.198,24.304,28.952,31.075l17.111,6l3.385-11.174
				C118.485,133.907,114.048,122.97,110.093,109.802z"/>
			<g>
				<path fill="#BCBEC0" d="M82.997,35.632c0,0-0.678,7.055-0.66,17.66c0.004,2.649,0.054,5.521,0.166,8.553
					c0.125,3.031,0.248,6.229,0.509,9.524c0.229,3.299,0.573,6.697,0.975,10.141c0.445,3.438,0.936,6.926,1.584,10.381l0.484,2.591
					l0.557,2.568c0.346,1.715,0.789,3.398,1.215,5.069c0.875,3.339,1.842,6.587,2.867,9.696c0.531,1.547,1.055,3.067,1.565,4.556
					c0.566,1.469,1.117,2.904,1.656,4.303c0.597,1.373,1.178,2.709,1.738,4.001c0.615,1.268,1.209,2.493,1.779,3.67
					c0.627,1.147,1.229,2.246,1.801,3.292c0.549,1.066,1.225,1.973,1.762,2.896c0.279,0.455,0.551,0.895,0.813,1.319
					c0.27,0.42,0.563,0.797,0.83,1.176c0.53,0.761,1.018,1.458,1.457,2.088c0.905,1.244,1.727,2.137,2.223,2.804
					c0.516,0.654,0.789,1.003,0.789,1.003l-0.209,0.214c0,0-0.332-0.296-0.955-0.85c-0.615-0.563-1.551-1.368-2.648-2.484
					c-1.045-1.159-2.436-2.489-3.729-4.254c-1.39-1.698-2.771-3.748-4.224-6.026c-0.672-1.171-1.37-2.391-2.096-3.652
					c-0.645-1.305-1.309-2.654-1.992-4.041c-0.635-1.407-1.237-2.876-1.864-4.372c-0.566-1.519-1.121-3.08-1.666-4.672
					c-0.466-1.616-0.986-3.246-1.42-4.92c-0.416-1.676-0.878-3.366-1.209-5.095c-0.359-1.725-0.732-3.457-1.027-5.212l-0.469-2.63
					L83.2,92.283c-0.545-3.524-0.928-7.067-1.268-10.556c-0.293-3.491-0.533-6.929-0.658-10.26c-0.146-3.329-0.199-6.55-0.187-9.602
					c0.017-3.052,0.091-5.936,0.199-8.595c0.433-10.642,1.41-17.674,1.41-17.674L82.997,35.632z"/>
			</g>
		</g>
		<path d="M317.561,120.402c-12.447-8.352-26.056,9.481-36.814,10.395c0,0-29.85-57.522-85.34-59.63
			c-1.338-0.096-2.691-0.15-4.055-0.185c-1.361,0.034-2.717,0.089-4.056,0.185c-55.487,2.107-85.338,59.63-85.338,59.63
			c-10.76-0.913-24.367-18.746-36.813-10.395c-13.187,8.847,11.356,46.729,29.192,62.729c0,0,42.298-14.45,97.015-14.315
			c54.719-0.135,97.016,14.315,97.016,14.315C306.202,167.131,330.747,129.249,317.561,120.402z"/>
		<g>
			<path fill="#FFFFFF" d="M213.884,140.287l-19.604-8.668l-0.367-0.162l-24.393-10.785c0.924-2.021-0.498-5.17-1.732-7.419
				c-1.963-3.583-6.168-5.057-9.393-3.289c-3.213,1.76-4.236,6.073-2.299,9.649c-3.949,0.975-6.451,4.634-5.593,8.194
				c0.863,3.575,4.783,5.694,8.756,4.735c2.492-0.603,5.779-1.669,6.652-3.713l24.394,10.785l0.366,0.162l19.605,8.669
				c-0.926,2.02,0.498,5.17,1.729,7.418c1.966,3.584,6.17,5.058,9.396,3.29c3.213-1.761,4.236-6.073,2.299-9.65
				c3.949-0.974,6.451-4.634,5.592-8.195c-0.862-3.573-4.783-5.693-8.756-4.734C218.044,137.177,214.755,138.243,213.884,140.287z"
				/>
		</g>
		<path fill="#FFFFFF" d="M165.911,140.287l19.605-8.668l0.366-0.162l24.394-10.785c-0.926-2.021,0.498-5.17,1.729-7.419
			c1.966-3.583,6.17-5.057,9.396-3.289c3.213,1.76,4.236,6.073,2.299,9.649c3.949,0.975,6.449,4.634,5.59,8.194
			c-0.86,3.575-4.781,5.694-8.754,4.735c-2.494-0.603-5.781-1.669-6.652-3.713l-24.393,10.785l-0.367,0.162l-19.604,8.669
			c0.924,2.02-0.5,5.17-1.732,7.418c-1.963,3.584-6.17,5.058-9.393,3.29c-3.213-1.761-4.236-6.073-2.302-9.65
			c-3.946-0.974-6.448-4.634-5.59-8.195c0.863-3.573,4.783-5.693,8.756-4.734C161.751,137.177,165.038,138.243,165.911,140.287z"/>
		<g>
			<g>
				<path fill="#FFFFFF" d="M189.897,138.821c-3.021,0-5.6-2.02-6.159-4.757c-0.958,2.15-3.136,3.52-5.636,3.52
					c-0.376,0-0.757-0.032-1.131-0.096c-3.117-0.531-5.384-3.159-5.271-6.112l1.483-8.863c-4.466-4.171-6.919-9.704-6.919-15.611
					c0-12.177,10.602-22.084,23.633-22.084s23.633,9.907,23.633,22.084c0,5.906-2.454,11.439-6.917,15.61l1.477,8.8
					c0.116,3.018-2.149,5.645-5.267,6.176c-0.374,0.064-0.755,0.096-1.131,0.096l0,0c-2.519,0-4.708-1.39-5.645-3.517
					C195.46,136.83,192.896,138.821,189.897,138.821z"/>
				<path d="M189.897,85.317c12.776,0,23.133,9.664,23.133,21.584c0,6.045-2.664,11.508-6.955,15.427l1.521,9.066
					c0.1,2.672-1.951,5.105-4.857,5.601c-0.353,0.06-0.702,0.089-1.047,0.089c-2.495,0-4.695-1.521-5.392-3.767l-0.666-3.855
					l-0.01,4.153c-0.352,2.651-2.781,4.706-5.729,4.706c-2.948,0-5.377-2.055-5.729-4.706l-0.01-4.153l-0.666,3.855
					c-0.695,2.246-2.896,3.767-5.391,3.767c-0.346,0-0.695-0.029-1.047-0.089c-2.906-0.495-4.957-2.929-4.855-5.601l1.521-9.066
					c-4.293-3.919-6.956-9.382-6.956-15.427C166.764,94.981,177.12,85.317,189.897,85.317 M189.897,84.317
					c-13.308,0-24.133,10.131-24.133,22.584c0,5.96,2.438,11.547,6.881,15.791l-1.433,8.537l-0.012,0.063l-0.002,0.064
					c-0.121,3.203,2.324,6.051,5.688,6.624c0.4,0.068,0.811,0.103,1.215,0.103c2.277,0,4.312-1.059,5.507-2.762
					c1.008,2.362,3.47,3.999,6.288,3.999c2.817,0,5.279-1.637,6.288-3.999c1.194,1.703,3.228,2.762,5.507,2.762
					c0.404,0,0.813-0.035,1.215-0.103c3.362-0.573,5.809-3.42,5.688-6.624l-0.003-0.064l-0.011-0.064l-1.433-8.537
					c4.44-4.245,6.88-9.832,6.88-15.791C214.03,94.449,203.204,84.317,189.897,84.317L189.897,84.317z"/>
			</g>
			<g>
				<ellipse transform="matrix(0.4416 -0.8972 0.8972 0.4416 0.9826 232.7955)" cx="187.511" cy="115.608" rx="1.913" ry="1.317"/>
				<ellipse transform="matrix(0.4418 0.8971 -0.8971 0.4418 210.879 -107.712)" cx="191.999" cy="115.611" rx="1.913" ry="1.316"/>
			</g>
			<circle cx="179.068" cy="105.126" r="6.618"/>
			<circle cx="200.269" cy="105.126" r="6.618"/>
		</g>
	</g>
</g>
</svg>
